SplineFontDB: 3.0
FontName: Fanwood-Throwing-space
FullName: Fanwood-Throwing-space
FamilyName: Fanwood-Throwing-space
Weight: Regular
Copyright: Copyright (c) 2011, Barry Schwartz
Version: 1.0
ItalicAngle: 0
UnderlinePosition: -100
UnderlineWidth: 50
Ascent: 690
Descent: 310
sfntRevision: 0x00010000
LayerCount: 2
Layer: 0 0 "Back"  1
Layer: 1 0 "Fore"  0
XUID: [1021 992 1258595862 5193785]
FSType: 0
OS2Version: 4
OS2_WeightWidthSlopeOnly: 0
OS2_UseTypoMetrics: 1
CreationTime: 1287776574
ModificationTime: 1330010859
PfmFamily: 17
TTFWeight: 400
TTFWidth: 5
LineGap: 90
VLineGap: 0
Panose: 2 0 5 3 0 0 0 0 0 0
OS2TypoAscent: 0
OS2TypoAOffset: 1
OS2TypoDescent: 0
OS2TypoDOffset: 1
OS2TypoLinegap: 90
OS2WinAscent: 0
OS2WinAOffset: 1
OS2WinDescent: 0
OS2WinDOffset: 1
HheadAscent: 0
HheadAOffset: 1
HheadDescent: 0
HheadDOffset: 1
OS2SubXSize: 650
OS2SubYSize: 700
OS2SubXOff: 0
OS2SubYOff: 140
OS2SupXSize: 650
OS2SupYSize: 700
OS2SupXOff: 0
OS2SupYOff: 480
OS2StrikeYSize: 49
OS2StrikeYPos: 258
OS2Vendor: 'PfEd'
OS2CodePages: 00000093.00000000
OS2UnicodeRanges: a000006f.0000004a.00000000.00000000
Lookup: 6 0 0 "'clig' Contextual Ligatures in Latin lookup 0"  {"'clig' Contextual Ligatures in Latin lookup 0 subtable"  } ['clig' ('latn' <'dflt' > 'DFLT' <'dflt' > ) ]
Lookup: 1 0 0 "Single Substitution lookup 1"  {"Single Substitution lookup 1 subtable"  } []
MarkAttachClasses: 1
DEI: 91125
ChainSub2: glyph "'clig' Contextual Ligatures in Latin lookup 0 subtable"  0 0 0 1
 String: 5 space
 BString: 6 period
 FString: 0 
 1
  SeqLookup: 0 "Single Substitution lookup 1" 
EndFPST

StartChar: .notdef
Encoding: 415 -1 0
Width: 500
Flags: MW
HStem: 0 50<100 400 100 450> 410 50<100 400 100 100>
VStem: 50 50<50 50 50 410> 400 50<50 410 410 410>
LayerCount: 2
Fore
SplineSet
50 0 m 1
 50 460 l 1
 450 460 l 1
 450 0 l 1
 50 0 l 1
100 50 m 1
 400 50 l 1
 400 410 l 1
 100 410 l 1
 100 50 l 1
EndSplineSet
EndChar

StartChar: exclam
Encoding: 1 33 2
Width: 261
GlyphClass: 2
Flags: MW
HStem: -8 105<125 133 116 144> 653 20G<125 149.5>
VStem: 80 101<34.5 48.5> 97 72<646 658> 116 27<178.5 182>
LayerCount: 2
Fore
SplineSet
80 38 m 0xe0
 80 59 108 97 124 97 c 0
 142 97 181 75 181 50 c 0
 181 19 149 -8 139 -8 c 0
 111 -8 80 23 80 38 c 0xe0
97 648 m 0xd0
 97 668 112 673 138 673 c 0
 161 673 169 670 169 652 c 0xd0
 169 640 155 446 143 182 c 0
 143 175 136 172 129 172 c 0
 123 172 116 175 116 182 c 0xc8
 110 405 97 594 97 648 c 0xd0
EndSplineSet
EndChar

StartChar: quotedbl
Encoding: 2 34 3
Width: 261
GlyphClass: 2
Flags: MW
HStem: 497 191<36.5 82 60 179>
VStem: 30 29 40 61 160 29 170 61
LayerCount: 2
Fore
SplineSet
30 511 m 0xc0
 30 512 37 637 40 659 c 0
 42 675 48 688 72 688 c 0
 92 688 101 677 101 663 c 0xa0
 101 659 100 654 99 649 c 0
 91 617 64 533 59 516 c 0
 54 500 56 497 42 497 c 0
 31 497 30 503 30 511 c 0xc0
160 511 m 0x90
 160 512 167 637 170 659 c 0
 172 675 178 688 202 688 c 0
 222 688 231 677 231 663 c 0x88
 231 659 230 654 229 649 c 0
 221 617 194 533 189 516 c 0
 184 500 186 497 172 497 c 0
 161 497 160 503 160 511 c 0x90
EndSplineSet
EndChar

StartChar: numbersign
Encoding: 3 35 4
Width: 442
GlyphClass: 2
Flags: MW
HStem: -10 21G<101.5 119 242 264.5> 155 31<41 42 42 110 309 312 312 398> 323 30<35 137 37 132 333 397 397 399>
VStem: 113 40<150 153 150 153> 137 41<319 320 319 320.5 319 353> 146 39<357 359> 236 39 258 39<150 152.5> 283 38<318 318.5 318 322.5> 315 38
LayerCount: 2
Fore
SplineSet
30 169 m 2xf1
 30 173 l 2
 30 184 32 186 41 186 c 2
 114 186 l 2
 121 186 120 187 121 193 c 0
 127 236 137 313 137 319 c 0
 137 322 134 323 132 323 c 2
 37 323 l 2
 33 323 30 325 30 336 c 2
 30 342 l 2
 30 349 31 353 37 353 c 2
 137 353 l 2xe8
 143 353 146 355 146 359 c 0
 170 523 168 521 170 525 c 0
 174 532 170 532 191 532 c 0
 203 532 210 532 210 521 c 0
 210 515 185 365 185 358 c 0
 185 356 187 353 191 353 c 2
 281 353 l 2
 287 353 288 353 289 360 c 0
 310 496 313 518 315 525 c 0
 316 527 316 532 329 532 c 0
 345 532 353 532 353 522 c 0xe440
 353 513 329 366 329 358 c 0
 329 356 330 353 333 353 c 2
 397 353 l 2
 410 353 412 352 412 337 c 0
 412 323 407 323 399 323 c 2
 327 323 l 2
 323 323 321 319 321 318 c 0xe080
 315 280 302 198 302 192 c 0
 302 189 305 186 309 186 c 2
 401 186 l 2
 411 186 412 184 412 169 c 0
 412 156 410 155 398 155 c 2
 312 155 l 2
 299 155 297 156 297 150 c 0xe1
 276 0 276 0 275 -2 c 0
 272 -10 276 -10 253 -10 c 0
 231 -10 236 -8 236 3 c 0xe2
 236 10 258 145 258 151 c 0
 258 154 257 155 251 155 c 2
 165 155 l 2
 155 155 153 156 153 150 c 0
 132 0 132 0 131 -2 c 0
 127 -9 129 -10 109 -10 c 0
 94 -10 91 -7 91 3 c 0
 91 10 113 145 113 151 c 0
 113 155 112 155 110 155 c 2
 42 155 l 2
 30 155 30 160 30 169 c 2xf1
158 193 m 0
 158 189 161 188 167 188 c 2
 257 188 l 2
 258 188 264 188 264 194 c 0
 275 278 283 314 283 321 c 0xe880
 283 324 279 325 276 325 c 2
 186 325 l 2
 180 325 179 322 178 320 c 1
 178 319 l 1
 172 279 158 199 158 193 c 0
EndSplineSet
EndChar

StartChar: dollar
Encoding: 4 36 5
Width: 500
GlyphClass: 2
Flags: MW
HStem: 662 20G<246 255 255 258>
VStem: 62 55<446.5 508 446.5 513.5> 239 23<-136 -14 32 38 38 265 368 602 637 673> 385 57<121.5 181>
LayerCount: 2
Fore
SplineSet
58 92 m 0
 58 102 82 110 93 110 c 0
 105 110 112 93 129 73 c 0
 153 44 182 25 226 21 c 0
 235 20 239 20 239 30 c 2
 239 270 l 2
 239 285 237 289 225 294 c 0
 147 329 62 372 62 470 c 0
 62 557 140 619 231 627 c 0
 239 628 239 628 239 637 c 2
 239 673 l 2
 239 681 241 682 246 682 c 2
 255 682 l 2
 261 682 262 681 262 673 c 2
 262 637 l 2
 262 628 262 629 270 628 c 0
 365 621 418 562 418 532 c 0
 418 517 390 505 383 505 c 0
 353 505 386 596 273 608 c 0
 266 609 262 609 262 602 c 2
 262 365 l 2
 262 348 263 347 274 342 c 0
 352 306 442 263 442 169 c 0
 442 74 383 10 276 0 c 0
 263 -1 262 0 262 -14 c 2
 262 -136 l 2
 262 -148 262 -148 250 -148 c 0
 239 -148 239 -147 239 -136 c 2
 239 -14 l 2
 239 -1 239 -1 226 0 c 0
 135 6 58 53 58 92 c 0
117 480 m 0
 117 413 173 385 226 362 c 0
 236 358 239 352 239 368 c 2
 239 602 l 2
 239 607 237 608 234 608 c 0
 215 608 195 600 176 589 c 0
 144 570 117 536 117 480 c 0
262 38 m 2
 262 26 262 22 268 22 c 0
 270 22 272 22 276 23 c 0
 340 36 385 92 385 147 c 0
 385 215 332 248 274 274 c 0
 270 276 267 277 265 277 c 0
 262 277 262 274 262 265 c 2
 262 38 l 2
EndSplineSet
EndChar

StartChar: percent
Encoding: 5 37 6
Width: 657
GlyphClass: 2
Flags: MW
HStem: -9 16<419 471.5 419 479> 250 15<133.5 185.5 133.5 191.5> 273 33<495.5 543.5> 491 17<351 373 343.5 382.5> 531 32<210 244 174.5 258.5>
VStem: 50 49<331 381.5 318.5 398> 292 29<460 464 464 478 478 481.5> 336 49<72 123.5 60 149> 578 29<148 222.5>
LayerCount: 2
Fore
SplineSet
50 362 m 0
 50 434 122 563 227 563 c 0
 261 563 279 551 298 532 c 0
 312 518 331 508 356 508 c 0
 390 508 427 523 449 536 c 0
 486 558 514 591 538 614 c 0
 540 616 552 631 553 631 c 0
 561 631 571 625 571 619 c 0
 571 617 570 614 566 608 c 0
 510 526 155 1 132 -35 c 0
 129 -40 120 -41 113 -41 c 0
 105 -41 97 -38 97 -31 c 0
 97 -29 98 -27 99 -25 c 0
 101 -21 410 416 461 505 c 0
 465 512 477 527 461 519 c 0
 456 516 409 491 356 491 c 0
 346 491 334 492 321 494 c 0
 319 494 321 481 321 478 c 2
 321 464 l 2
 321 456 321 447 320 439 c 0
 312 344 233 250 150 250 c 0
 85 250 50 300 50 362 c 0
99 336 m 0
 99 301 114 265 153 265 c 0
 218 265 292 352 292 461 c 0
 292 502 277 531 240 531 c 0
 180 531 99 427 99 336 c 0
336 103 m 0
 336 195 422 306 517 306 c 0
 573 306 607 264 607 197 c 0
 607 92 522 -9 436 -9 c 0
 371 -9 336 41 336 103 c 0
385 78 m 0
 385 42 399 7 439 7 c 0
 504 7 578 94 578 202 c 0
 578 243 562 273 525 273 c 0
 466 273 385 169 385 78 c 0
EndSplineSet
EndChar

StartChar: ampersand
Encoding: 6 38 7
Width: 657
GlyphClass: 2
Flags: MW
HStem: -10 62<213 261> 0 27<605 612.5> 332 30<434 440 440 448 433.5 500 613 614> 612 30<227.5 280>
VStem: 40 62<157 199.5> 106 65<499 530> 337 68<508 548> 402 65<129 173.5>
LayerCount: 2
Fore
SplineSet
40 155 m 0xbd
 40 244 127 314 164 340 c 0
 174 347 178 350 178 352 c 0
 178 355 172 359 162 370 c 0
 140 395 106 440 106 486 c 0
 106 574 181 642 266 642 c 0
 332 642 405 610 405 542 c 0xbe
 405 474 318 408 280 382 c 0
 271 376 266 374 266 371 c 0
 266 368 271 364 279 357 c 0
 340 306 383 259 435 203 c 0
 442 195 445 191 448 191 c 0
 451 191 453 196 458 205 c 0
 479 243 519 305 519 327 c 0
 519 332 515 332 500 332 c 2
 440 332 l 2
 428 332 427 332 427 347 c 0
 427 362 427 362 440 362 c 0
 456 362 518 359 548 359 c 0
 575 359 608 362 618 362 c 0
 631 362 632 361 632 344 c 0
 632 332 630 332 614 332 c 2
 584 332 l 2
 577 332 572 326 564 314 c 0
 543 284 467 177 467 170 c 0
 467 166 471 162 477 154 c 0
 499 127 524 87 541 56 c 0
 553 35 556 27 612 27 c 0
 621 27 621 26 621 15 c 0
 621 0 620 0 605 0 c 0x7d
 538 -1 504 -10 490 -10 c 0xbd
 479 -10 477 -8 475 0 c 0x7d
 462 45 439 81 427 98 c 0
 417 112 417 110 407 99 c 0
 376 65 303 -10 219 -10 c 0
 109 -10 40 60 40 155 c 0xbd
102 197 m 0
 102 117 175 52 251 52 c 0
 324 52 375 99 395 119 c 0
 400 125 402 128 402 130 c 0xbd
 402 133 398 136 393 143 c 0
 356 195 276 274 219 321 c 0
 210 329 205 333 201 333 c 0
 197 333 190 329 175 318 c 0
 145 296 102 259 102 197 c 0
171 518 m 0
 171 480 201 436 222 411 c 0
 232 399 242 392 244 392 c 0
 247 392 255 397 266 405 c 0
 294 426 337 467 337 526 c 0x3e
 337 570 303 612 257 612 c 0
 198 612 171 566 171 518 c 0
EndSplineSet
EndChar

StartChar: quotesingle
Encoding: 7 39 8
Width: 131
GlyphClass: 2
Flags: MW
HStem: 497 191<36.5 82>
VStem: 30 29 40 61
LayerCount: 2
Fore
SplineSet
30 511 m 0xc0
 30 512 37 637 40 659 c 0
 42 675 48 688 72 688 c 0
 92 688 101 677 101 663 c 0xa0
 101 659 100 654 99 649 c 0
 91 617 64 533 59 516 c 0
 54 500 56 497 42 497 c 0
 31 497 30 503 30 511 c 0xc0
EndSplineSet
EndChar

StartChar: parenleft
Encoding: 8 40 9
Width: 279
GlyphClass: 2
Flags: MW
VStem: 40 57<170 416>
LayerCount: 2
Fore
SplineSet
40 285 m 0
 40 547 221 689 223 689 c 0
 230 689 239 683 239 676 c 0
 239 672 97 546 97 297 c 0
 97 14 235 -111 235 -126 c 0
 235 -133 230 -140 219 -140 c 0
 208 -140 40 55 40 285 c 0
EndSplineSet
EndChar

StartChar: parenright
Encoding: 9 41 10
Width: 279
GlyphClass: 2
Flags: MW
VStem: 182 57<133 379 133 393.5>
LayerCount: 2
Fore
SplineSet
40 -127 m 0
 40 -123 182 3 182 252 c 0
 182 535 44 660 44 675 c 0
 44 682 49 689 60 689 c 0
 71 689 239 494 239 264 c 0
 239 2 58 -140 56 -140 c 0
 49 -140 40 -134 40 -127 c 0
EndSplineSet
EndChar

StartChar: asterisk
Encoding: 10 42 11
Width: 391
GlyphClass: 2
Flags: MW
HStem: 420 58 513 24<177 188> 514 10 655 20G<262 276>
VStem: 164 63<378 396> 173 25<529 530> 183 12<500.5 511.5> 236 59
LayerCount: 2
Fore
SplineSet
30 447 m 0xd3
 30 461 42 473 53 478 c 0
 73 487 126 503 154 515 c 0
 167 520 173 524 173 528 c 0xd5
 173 532 168 536 158 543 c 0
 133 561 85 587 70 603 c 0
 63 611 57 622 57 632 c 0
 57 646 66 659 85 659 c 0
 97 659 109 652 116 644 c 0
 132 627 160 575 176 550 c 0
 181 542 184 537 187 537 c 0
 189 537 191 541 195 550 c 0xd3
 206 577 224 639 236 656 c 0
 243 666 256 675 268 675 c 0
 284 675 295 660 295 647 c 0
 295 637 291 628 286 621 c 0
 271 599 228 568 208 546 c 0
 202 539 198 534 198 531 c 0xd5
 198 527 203 525 216 524 c 0
 247 521 311 524 332 517 c 0
 347 512 361 502 361 486 c 0
 361 467 346 457 329 457 c 0
 324 457 319 458 314 460 c 0
 299 465 245 495 216 508 c 0
 208 512 203 514 200 514 c 0
 198 514 195 513 195 510 c 0xb3
 195 507 196 503 198 496 c 0xb5
 205 464 227 411 227 387 c 0
 227 369 218 348 197 348 c 0
 174 348 164 370 164 386 c 0xb9
 164 406 178 461 182 492 c 0
 183 496 183 499 183 502 c 0
 183 510 182 513 179 513 c 0
 175 513 169 509 162 502 c 0
 139 481 104 438 85 427 c 0
 78 423 69 420 60 420 c 0
 43 420 30 430 30 447 c 0xd3
EndSplineSet
EndChar

StartChar: plus
Encoding: 11 43 12
Width: 527
GlyphClass: 2
Flags: MW
HStem: -22 21G<256 271.5> 188 44<39.5 219 49 217 303 475>
VStem: 241 45<-4 170 252 259 259 422>
LayerCount: 2
Fore
SplineSet
31 212 m 0
 31 225 31 232 49 232 c 2
 219 232 l 2
 238 232 241 240 241 251 c 2
 241 427 l 2
 241 442 248 442 262 442 c 0
 276 442 286 442 286 422 c 2
 286 259 l 2
 286 245 287 232 303 232 c 2
 480 232 l 2
 496 232 496 225 496 211 c 0
 496 194 496 188 475 188 c 2
 303 188 l 2
 286 188 286 182 286 170 c 2
 286 -5 l 2
 286 -22 277 -22 266 -22 c 0
 246 -22 241 -22 241 -4 c 2
 241 170 l 2
 241 188 234 188 217 188 c 2
 48 188 l 2
 31 188 31 195 31 212 c 0
EndSplineSet
EndChar

StartChar: comma
Encoding: 12 44 13
Width: 203
GlyphClass: 2
Flags: MW
HStem: -156 244<48 100>
VStem: 110 53<-17.5 -10.5>
LayerCount: 2
Fore
SplineSet
40 -139 m 0
 40 -135 110 -85 110 -34 c 0
 110 13 45 32 45 47 c 0
 45 68 86 88 92 88 c 0
 108 88 163 50 163 25 c 0
 163 -60 60 -156 51 -156 c 0
 45 -156 40 -146 40 -139 c 0
EndSplineSet
EndChar

StartChar: hyphen
Encoding: 13 45 14
Width: 258
GlyphClass: 2
Flags: MW
HStem: 198 43 206 42<220 227>
VStem: 25 203<200 241.5>
LayerCount: 2
Fore
SplineSet
25 201 m 0xa0
 25 216 34 240 43 241 c 0xa0
 52 242 220 248 226 248 c 0
 228 248 228 244 228 239 c 0
 228 227 224 206 220 206 c 0x60
 207 205 42 198 29 198 c 0
 26 198 25 199 25 201 c 0xa0
EndSplineSet
EndChar

StartChar: period
Encoding: 14 46 15
Width: 221
GlyphClass: 2
Flags: MW
HStem: -8 105<105 113 96 124>
VStem: 60 101<34.5 48.5>
LayerCount: 2
Fore
SplineSet
60 38 m 0
 60 59 88 97 104 97 c 0
 122 97 161 75 161 50 c 0
 161 19 129 -8 119 -8 c 0
 91 -8 60 23 60 38 c 0
EndSplineSet
EndChar

StartChar: slash
Encoding: 15 47 16
Width: 406
GlyphClass: 2
Flags: W
LayerCount: 2
Fore
SplineSet
10 -220 m 0
 10 -211 21 -186 29 -163 c 2
 29 -163 344 680 346 687 c 0
 351 702 357 705 375 705 c 0
 384 705 396 703 396 693 c 0
 396 684 387 662 382 649 c 2
 68 -202 l 2
 57 -233 51 -233 36 -233 c 0
 24 -233 10 -233 10 -220 c 0
EndSplineSet
EndChar

StartChar: zero
Encoding: 16 48 17
Width: 500
GlyphClass: 2
Flags: MW
HStem: -5 48<202.5 300 202.5 300> 340 40<205.5 288>
VStem: 58 33<144.5 230.5 144.5 244.5> 405 37<159 240 131.5 242.5>
LayerCount: 2
Fore
SplineSet
58 189 m 0
 58 300 144 380 251 380 c 0
 373 380 442 292 442 188 c 0
 442 75 355 -5 245 -5 c 0
 141 -5 58 85 58 189 c 0
91 189 m 0
 91 100 161 43 244 43 c 0
 356 43 405 116 405 202 c 0
 405 283 329 340 247 340 c 0
 164 340 91 272 91 189 c 0
EndSplineSet
EndChar

StartChar: one
Encoding: 17 49 18
Width: 500
GlyphClass: 2
Flags: MW
HStem: -2 27<164 170.5 332.5 342 342 347> 363 27<159 164 164 173.5 158.5 206 335.5 342>
VStem: 218 71<125 156.5 103.5 214 103.5 237>
LayerCount: 2
Fore
SplineSet
150 12 m 0
 150 21 151 25 164 25 c 2
 206 25 l 2
 217 25 217 27 217 37 c 0
 218 66 218 95 218 125 c 2
 218 214 l 2
 218 260 218 307 216 351 c 0
 216 360 216 363 206 363 c 2
 164 363 l 2
 154 363 153 367 153 376 c 0
 153 385 153 390 164 390 c 0
 183 390 230 388 255 388 c 0
 280 388 326 390 345 390 c 0
 356 390 356 387 356 376 c 0
 356 367 355 363 342 363 c 2
 303 363 l 2
 292 363 293 361 292 351 c 0
 289 293 289 196 289 117 c 0
 289 90 289 64 290 37 c 0
 290 28 292 25 302 25 c 2
 342 25 l 2
 352 25 353 21 353 12 c 0
 353 3 353 -2 342 -2 c 0
 323 -2 276 0 251 0 c 0
 226 0 180 -2 161 -2 c 0
 150 -2 150 1 150 12 c 0
EndSplineSet
EndChar

StartChar: two
Encoding: 18 50 19
Width: 500
GlyphClass: 2
Flags: MW
HStem: 0 58<156 388 388 391.5 156 405> 364 42<192.5 230.5>
VStem: 290 68<237.5 300>
LayerCount: 2
Fore
SplineSet
60 323 m 0
 60 338 155 406 230 406 c 0
 304 406 358 351 358 280 c 0
 358 195 237 112 177 77 c 0
 158 66 149 61 149 59 c 0
 149 58 151 58 156 58 c 2
 388 58 l 2
 395 58 421 124 425 124 c 0
 430 124 443 120 443 117 c 0
 443 106 425 38 416 6 c 0
 414 1 412 0 405 0 c 2
 79 0 l 2
 68 0 64 5 64 11 c 0
 64 17 71 24 76 28 c 0
 128 77 290 148 290 270 c 0
 290 330 255 364 206 364 c 0
 138 364 82 303 77 303 c 0
 71 303 60 316 60 323 c 0
EndSplineSet
EndChar

StartChar: three
Encoding: 19 51 20
Width: 500
GlyphClass: 2
Flags: MW
HStem: -213 25<212.5 264.5 212.5 272.5> 89 44 369 38<202 251.5>
VStem: 311 61<250 297.5> 359 63<-78 8>
LayerCount: 2
Fore
SplineSet
80 -164 m 0xe8
 80 -154 98 -144 118 -144 c 0
 135 -144 144 -150 159 -159 c 0
 179 -171 192 -188 233 -188 c 0
 296 -188 359 -117 359 -39 c 0xe8
 359 55 311 92 208 92 c 0
 187 92 160 89 155 89 c 0
 144 89 144 98 141 107 c 0
 140 110 139 113 139 116 c 0
 139 127 150 130 160 133 c 0
 259 161 311 198 311 272 c 0
 311 323 277 369 226 369 c 0
 151 369 120 319 114 319 c 0
 106 319 96 328 96 336 c 0
 96 348 166 407 238 407 c 0
 320 407 372 358 372 284 c 0xf0
 372 216 327 182 281 162 c 0
 255 151 233 141 233 139 c 0
 233 136 247 136 275 134 c 0
 360 127 422 85 422 -27 c 0
 422 -137 322 -213 223 -213 c 0
 174 -213 80 -192 80 -164 c 0xe8
EndSplineSet
EndChar

StartChar: four
Encoding: 20 52 21
Width: 500
GlyphClass: 2
Flags: MW
HStem: 0 54<118 286 286 289 381 382 382 434> 374 20G<346.5 357>
VStem: 40 53<4.5 63> 305 61<74 290 290 299.5> 305 72<-201 -196.5 -202.5 -15>
LayerCount: 2
Fore
SplineSet
40 8 m 0xe8
 40 34 100 110 124 138 c 2
 257 298 l 2
 265 307 340 394 353 394 c 0
 361 394 366 387 366 368 c 2
 366 72 l 2xf0
 366 54 367 54 381 54 c 2
 439 54 l 2
 445 54 446 54 446 44 c 2
 446 10 l 2
 446 0 446 0 434 0 c 2
 382 0 l 2
 368 0 367 0 368 -14 c 0
 371 -75 377 -194 377 -199 c 0
 377 -206 374 -209 361 -210 c 2
 316 -214 l 2
 310 -214 305 -210 305 -201 c 2
 305 -15 l 2
 305 0 304 0 289 0 c 2
 58 0 l 2
 50 0 40 1 40 8 c 0xe8
93 60 m 0
 93 56 99 54 118 54 c 2
 286 54 l 2
 304 54 305 55 305 74 c 2
 305 290 l 2
 305 309 305 316 302 316 c 0
 300 316 293 306 284 295 c 2
 110 85 l 2
 101 74 93 66 93 60 c 0
EndSplineSet
EndChar

StartChar: five
Encoding: 21 53 22
Width: 500
GlyphClass: 2
Flags: MW
HStem: -221 32<113 113> 319 63<340 374 337.5 386.5> 329 62<159 183> 391 20G
VStem: 100 42 309 71<-58.5 55>
LayerCount: 2
Fore
SplineSet
100 158 m 0xcc
 100 172 132 305 147 385 c 0
 148 391 156 391 162 391 c 0xac
 170 391 306 382 369 382 c 0
 379 382 391 382 393 387 c 0
 397 399 400 411 403 411 c 2
 407 411 l 2
 413 411 420 410 420 405 c 0
 418 376 417 363 416 336 c 0
 415 321 394 319 379 319 c 0xdc
 301 319 263 325 183 329 c 0xac
 173 329 164 328 162 319 c 0
 155 284 142 219 142 212 c 0
 142 204 145 206 153 205 c 0
 280 193 380 151 380 19 c 0
 380 -154 149 -221 113 -221 c 0
 107 -221 105 -214 105 -203 c 0
 105 -195 107 -190 113 -189 c 0
 179 -176 309 -120 309 3 c 0
 309 107 218 146 115 146 c 0
 105 146 100 149 100 158 c 0xcc
EndSplineSet
EndChar

StartChar: six
Encoding: 22 54 23
Width: 500
GlyphClass: 2
Flags: MW
HStem: -5 31<208 292 208 298> 336 22<237.5 270> 629 26
VStem: 48 67<160.5 220 160.5 368.5> 373 68<133.5 215.5>
LayerCount: 2
Fore
SplineSet
48 231 m 0
 48 506 341 655 367 655 c 0
 373 655 382 643 382 635 c 0
 382 632 380 630 377 629 c 0
 236 571 166 433 144 375 c 0
 140 364 135 353 135 348 c 0
 135 341 150 348 162 350 c 0
 194 356 222 358 253 358 c 0
 357 358 441 290 441 189 c 0
 441 67 352 -5 244 -5 c 0
 130 -5 48 76 48 231 c 0
115 201 m 0
 115 120 158 26 258 26 c 0
 326 26 373 99 373 168 c 0
 373 263 323 336 217 336 c 0
 203 336 169 333 151 330 c 0
 128 326 129 322 124 298 c 0
 119 274 115 239 115 201 c 0
EndSplineSet
EndChar

StartChar: seven
Encoding: 23 55 24
Width: 500
GlyphClass: 2
Flags: MW
HStem: 335 58<289 402> 397 20G<107 117.5>
VStem: 84 41
LayerCount: 2
Fore
SplineSet
84 278 m 0
 84 288 90 335 96 399 c 0
 98 417 102 417 112 417 c 0
 123 417 125 409 125 397 c 0
 125 393 222 393 289 393 c 2
 455 393 l 2
 464 393 472 391 472 384 c 0
 472 381 470 378 468 374 c 0
 345 146 166 -216 159 -216 c 0
 142 -216 123 -202 123 -188 c 0
 123 -184 346 201 411 314 c 0
 416 323 420 328 420 331 c 0
 420 334 416 335 402 335 c 2
 203 335 l 2
 173 335 119 333 118 326 c 2
 109 275 l 2
 108 267 84 269 84 278 c 0
EndSplineSet
EndChar

StartChar: eight
Encoding: 24 56 25
Width: 500
GlyphClass: 2
Flags: MW
HStem: -6 28<213.5 287 213.5 303> 636 22<213.5 281>
VStem: 71 53<122 201.5 122 207> 80 58<482.5 540.5> 363 45<474 544> 365 65<119.5 195.5>
LayerCount: 2
Fore
SplineSet
71 154 m 0xe4
 71 260 148 299 184 317 c 0
 196 323 202 323 202 324 c 0
 202 325 194 328 181 337 c 0
 146 361 80 415 80 495 c 0
 80 586 156 658 250 658 c 0
 337 658 408 598 408 508 c 0xd8
 408 412 339 371 305 346 c 0
 300 342 296 340 296 338 c 0
 296 336 300 335 305 332 c 0
 338 312 430 273 430 154 c 0
 430 59 358 -6 248 -6 c 0
 153 -6 71 59 71 154 c 0xe4
124 164 m 0xe4
 124 80 175 22 252 22 c 0
 322 22 365 86 365 153 c 0
 365 238 305 272 246 304 c 0
 237 309 222 316 219 316 c 0
 215 316 199 304 186 295 c 0
 163 278 124 239 124 164 c 0xe4
138 507 m 0xd8
 138 458 166 421 207 389 c 0
 228 373 248 360 261 354 c 0
 270 350 274 347 277 347 c 0
 280 347 283 350 291 357 c 0
 322 384 363 448 363 500 c 0
 363 588 314 636 248 636 c 0
 179 636 138 576 138 507 c 0xd8
EndSplineSet
EndChar

StartChar: nine
Encoding: 25 57 26
Width: 500
GlyphClass: 2
Flags: MW
HStem: 32 31<213 254.5> 368 30<211.5 302.5>
VStem: 60 65<176.5 256.5 176.5 265> 387 66<163 218.5>
LayerCount: 2
Fore
SplineSet
60 204 m 0
 60 326 145 398 253 398 c 0
 364 398 453 317 453 162 c 0
 453 -132 91 -218 73 -218 c 0
 67 -218 63 -201 63 -193 c 0
 63 -184 294 -147 367 56 c 0
 369 62 375 77 373 77 c 0
 371 77 362 71 353 65 c 0
 327 49 281 32 228 32 c 0
 124 32 60 103 60 204 c 0
125 214 m 0
 125 139 171 63 255 63 c 0
 323 63 365 87 381 115 c 0
 386 124 387 154 387 172 c 0
 387 265 349 368 256 368 c 0
 167 368 125 299 125 214 c 0
EndSplineSet
EndChar

StartChar: colon
Encoding: 26 58 27
Width: 221
GlyphClass: 2
Flags: MW
HStem: -8 105<105 113 96 124> 267 105<105 113 96 124>
VStem: 60 101<34.5 48.5 309.5 323.5>
LayerCount: 2
Fore
SplineSet
60 38 m 0
 60 59 88 97 104 97 c 0
 122 97 161 75 161 50 c 0
 161 19 129 -8 119 -8 c 0
 91 -8 60 23 60 38 c 0
60 313 m 0
 60 334 88 372 104 372 c 0
 122 372 161 350 161 325 c 0
 161 294 129 267 119 267 c 0
 91 267 60 298 60 313 c 0
EndSplineSet
EndChar

StartChar: semicolon
Encoding: 27 59 28
Width: 223
GlyphClass: 2
Flags: MW
HStem: 267 105<106 114 97 125>
VStem: 61 101<309.5 323.5> 120 53<-17.5 -10.5>
LayerCount: 2
Fore
SplineSet
50 -139 m 0xc0
 50 -135 120 -85 120 -34 c 0
 120 13 55 32 55 47 c 0
 55 68 96 88 102 88 c 0
 118 88 173 50 173 25 c 0xa0
 173 -60 70 -156 61 -156 c 0
 55 -156 50 -146 50 -139 c 0xc0
61 313 m 0xc0
 61 334 89 372 105 372 c 0
 123 372 162 350 162 325 c 0xc0
 162 294 130 267 120 267 c 0xa0
 92 267 61 298 61 313 c 0xc0
EndSplineSet
EndChar

StartChar: less
Encoding: 28 60 29
Width: 527
GlyphClass: 2
Flags: MW
HStem: 361 20G<465 472.5>
VStem: 41 73<205.5 210.5 205.5 216>
LayerCount: 2
Fore
SplineSet
41 211 m 0
 41 221 41 225 56 231 c 0
 463 379 462 381 468 381 c 0
 477 381 487 377 487 356 c 0
 487 347 479 343 471 340 c 2
 156 229 l 2
 137 222 114 213 114 208 c 0
 114 203 136 197 156 190 c 2
 476 78 l 2
 482 76 487 72 487 65 c 0
 487 57 481 41 463 41 c 0
 457 41 460 41 55 188 c 0
 41 193 41 197 41 211 c 0
EndSplineSet
EndChar

StartChar: equal
Encoding: 29 61 30
Width: 527
GlyphClass: 2
Flags: MW
HStem: 110 45<39 480 49 475> 266 44<39 480 49 475>
LayerCount: 2
Fore
SplineSet
31 134 m 0
 31 147 31 155 49 155 c 2
 480 155 l 2
 496 155 496 148 496 134 c 0
 496 117 496 110 475 110 c 2
 48 110 l 2
 30 110 31 117 31 134 c 0
31 290 m 0
 31 303 31 310 49 310 c 2
 480 310 l 2
 496 310 496 303 496 289 c 0
 496 272 496 266 475 266 c 2
 48 266 l 2
 30 266 31 273 31 290 c 0
EndSplineSet
EndChar

StartChar: greater
Encoding: 30 62 31
Width: 527
GlyphClass: 2
Flags: MW
HStem: 361 20G<54.5 62>
VStem: 414 73<205.5 210.5>
LayerCount: 2
Fore
SplineSet
41 65 m 0
 41 72 45 76 51 78 c 2
 372 190 l 2
 392 197 414 203 414 208 c 0
 414 213 391 222 372 229 c 2
 56 340 l 2
 48 343 41 347 41 356 c 0
 41 377 50 381 59 381 c 0
 65 381 64 379 471 231 c 0
 486 225 487 221 487 211 c 0
 487 197 486 193 472 188 c 0
 67 41 70 41 64 41 c 0
 46 41 41 57 41 65 c 0
EndSplineSet
EndChar

StartChar: question
Encoding: 31 63 32
Width: 364
GlyphClass: 2
Flags: MW
HStem: -8 105<141 149 132 160> 245 71<188 199> 647 20G<65.5 75>
VStem: 96 101<34.5 48.5> 137 28<135 157.5> 311 23<387.5 450>
LayerCount: 2
Fore
SplineSet
60 605 m 2xec
 60 650 l 2
 60 657 62 667 69 667 c 0
 81 667 78 644 88 642 c 0
 161 630 334 603 334 419 c 0
 334 328 311 246 199 245 c 0
 177 245 174 238 173 228 c 0
 171 196 167 170 165 138 c 0
 165 132 160 129 153 129 c 0
 139 129 137 134 137 151 c 0
 137 164 138 284 139 298 c 0
 140 315 149 316 167 316 c 2
 224 316 l 2
 305 316 311 371 311 404 c 0
 311 496 239 570 83 590 c 0
 69 592 60 591 60 605 c 2xec
96 38 m 0xf4
 96 59 124 97 140 97 c 0
 158 97 197 75 197 50 c 0
 197 19 165 -8 155 -8 c 0
 127 -8 96 23 96 38 c 0xf4
EndSplineSet
EndChar

StartChar: at
Encoding: 32 64 33
Width: 795
GlyphClass: 2
Flags: MW
HStem: -113 29<285 418> 54 30<449 482.5> 54 47 374 21<403 435.5> 400 20G<520 533.5> 560 28<368.5 539 364 541>
VStem: 50 34<99 291 99 301> 204 67<135.5 172> 374 65<68 132> 460 92<336.5 412> 715 30<307.5 414.5>
LayerCount: 2
Fore
SplineSet
50 187 m 0xdfe0
 50 415 260 588 468 588 c 0
 610 588 745 524 745 344 c 0
 745 152 556 54 409 54 c 0
 391 54 374 60 374 76 c 0
 374 90 380 123 380 123 c 1
 380 123 319 56 262 56 c 0
 223 56 204 96 204 139 c 0
 204 205 311 395 454 395 c 0
 468 395 482 389 485 389 c 0
 487 389 489 392 499 404 c 0
 509 416 513 420 527 420 c 0
 540 420 552 417 552 407 c 0
 552 403 551 397 549 393 c 0
 523 337 439 149 439 115 c 0
 439 99 439 84 459 84 c 0
 514 84 587 118 647 178 c 0
 689 220 715 278 715 337 c 0
 715 492 611 560 471 560 c 0
 266 560 84 401 84 181 c 0
 84 17 214 -84 356 -84 c 0
 493 -84 582 -34 666 44 c 0
 667 45 676 52 679 52 c 0
 688 52 693 41 693 38 c 0
 693 34 692 30 689 27 c 0
 606 -63 483 -113 353 -113 c 0
 196 -113 50 -8 50 187 c 0xdfe0
271 147 m 0
 271 124 287 101 313 101 c 0xbfe0
 382 101 460 323 460 350 c 0
 460 365 443 374 428 374 c 0
 378 374 271 256 271 147 c 0
EndSplineSet
EndChar

StartChar: A
Encoding: 33 65 34
Width: 698
GlyphClass: 2
Flags: MW
HStem: -3 30<48 55.5 197.5 209 209 214 470 477.5 659.5 667 667 672> 275 24<224.5 426 247 426 426 431 247 435> 667 20G<380 385.5>
LayerCount: 2
Fore
SplineSet
30 15 m 0
 30 27 32 27 48 27 c 2
 76 27 l 2
 87 27 208 326 222 358 c 2
 328 604 l 2
 336 624 353 633 364 660 c 0
 370 674 377 687 383 687 c 0
 388 687 391 684 392 680 c 2
 512 343 l 2
 553 229 623 27 635 27 c 2
 667 27 l 2
 678 27 678 26 678 14 c 0
 678 -1 677 -3 667 -3 c 0
 652 -3 607 0 577 0 c 0
 547 0 489 -3 466 -3 c 0
 453 -3 452 -2 452 15 c 0
 452 27 454 27 470 27 c 2
 524 27 l 2
 525 27 525 28 525 30 c 0
 525 54 475 200 455 256 c 0
 449 274 450 275 435 275 c 2
 234 275 l 2
 215 275 216 270 211 257 c 0
 185 191 130 52 130 30 c 0
 130 28 130 27 131 27 c 2
 209 27 l 2
 220 27 220 26 220 14 c 0
 220 -1 219 -3 209 -3 c 0
 186 -3 147 0 117 0 c 0
 87 0 67 -3 44 -3 c 0
 31 -3 30 -2 30 15 c 0
231 305 m 0
 231 301 235 299 247 299 c 2
 426 299 l 2
 436 299 439 301 439 304 c 0
 439 307 437 311 435 317 c 2
 352 560 l 2
 348 573 346 579 344 579 c 0
 342 579 339 572 334 560 c 2
 236 320 l 2
 233 313 231 308 231 305 c 0
EndSplineSet
EndChar

StartChar: B
Encoding: 34 66 35
Width: 587
GlyphClass: 2
Flags: MW
HStem: -2 29<244 279 279 323> 326 22<215 282 225 254> 632 32<54 60> 644 21<275.5 308>
VStem: 127 82<284 318 354 358 358 392 392 406> 434 84<455.5 537.5> 459 88<138.5 211.5>
LayerCount: 2
Fore
SplineSet
40 649 m 0xea
 40 664 47 664 60 664 c 0xea
 76 664 143 662 173 662 c 0
 212 662 255 665 296 665 c 0
 416 665 518 625 518 504 c 0xdc
 518 407 412 364 368 348 c 0
 358 344 351 342 351 341 c 0
 351 335 547 339 547 169 c 0
 547 15 379 -2 267 -2 c 0
 221 -2 184 0 171 0 c 0
 141 0 74 -3 65 -3 c 0
 52 -3 51 -2 51 15 c 0
 51 27 53 27 69 27 c 2
 122 27 l 2
 127 27 127 43 127 69 c 2
 127 392 l 2
 127 515 124 634 117 634 c 2
 60 632 l 2
 48 632 40 634 40 649 c 0xea
209 315 m 0
 209 253 209 27 218 27 c 2
 279 27 l 2
 424 27 459 101 459 176 c 0
 459 247 436 295 372 316 c 0
 344 325 298 326 254 326 c 2
 220 326 l 2
 210 326 209 321 209 315 c 0
209 358 m 2
 209 350 211 348 225 348 c 2
 282 348 l 2
 299 348 309 347 315 347 c 0
 321 347 329 348 335 350 c 0
 381 364 434 404 434 488 c 0
 434 587 359 644 257 644 c 0xdc
 241 644 228 644 214 640 c 0
 210 639 209 486 209 406 c 2
 209 358 l 2
EndSplineSet
EndChar

StartChar: C
Encoding: 35 67 36
Width: 731
GlyphClass: 2
Flags: MW
HStem: -16 39<347 459.5> 429 21G<632 647.5> 650 30<322.5 461 301 461.5>
VStem: 45 102<248.5 423.5 248.5 439.5> 626 35<629 638 638 643.5>
LayerCount: 2
Fore
SplineSet
45 335 m 0
 45 544 200 680 402 680 c 0
 520 680 589 622 609 608 c 0
 618 601 626 594 626 611 c 2
 626 638 l 2
 626 649 626 651 641 651 c 0
 656 651 661 650 661 638 c 0
 661 620 657 496 657 445 c 0
 657 433 654 429 641 429 c 0
 623 429 622 432 622 441 c 0
 622 445 626 522 626 531 c 0
 626 545 528 650 395 650 c 0
 250 650 147 514 147 333 c 0
 147 164 270 23 424 23 c 0
 537 23 618 80 619 91 c 2
 632 204 l 2
 634 218 638 220 654 218 c 0
 664 217 666 212 666 205 c 0
 666 195 662 162 650 72 c 0
 648 54 523 -16 396 -16 c 0
 212 -16 45 94 45 335 c 0
EndSplineSet
EndChar

StartChar: D
Encoding: 36 68 37
Width: 758
GlyphClass: 2
Flags: MW
HStem: -4 29<40.5 118> 641 25<129 129.5> 652 26<312 403.5>
VStem: 131 82 612 101<304.5 419>
LayerCount: 2
Fore
SplineSet
35 10 m 0xb8
 35 25 39 25 52 25 c 2
 118 25 l 2
 124 25 131 397 131 563 c 0
 131 610 130 641 129 641 c 2
 59 639 l 2
 50 639 46 639 46 651 c 0
 46 663 46 667 59 667 c 0
 63 667 94 666 128 666 c 0xd8
 202 666 292 678 332 678 c 0
 548 678 713 549 713 335 c 0
 713 116 547 -2 368 -4 c 0
 303 -4 238 0 173 0 c 0
 145 0 57 -4 46 -4 c 0
 35 -4 35 -2 35 10 c 0xb8
213 86 m 0
 213 54 213 27 215 26 c 0
 221 22 252 22 272 22 c 0
 608 22 612 261 612 348 c 0
 612 490 496 652 311 652 c 0xb8
 285 652 244 652 221 646 c 0
 217 645 214 545 214 500 c 0
 213 362 213 224 213 86 c 0
EndSplineSet
EndChar

StartChar: E
Encoding: 37 69 38
Width: 605
GlyphClass: 2
Flags: MW
HStem: -3 30<57 64.5> 0 34<160 265> 325 27<216 220 220 383> 407 20G<451 458.5> 636 29<61 63.5 56 67 56 110>
VStem: 125 79<198 317.5> 438 31<259 264.5 255.5 305 414.5 418 418 421> 481 28 539 31<147 149.5 121 150>
LayerCount: 2
Fore
SplineSet
40 15 m 0xbf80
 40 27 41 27 57 27 c 2
 118 27 l 2xbf80
 124 27 125 47 125 102 c 2
 125 198 l 2
 125 309 121 486 121 492 c 0
 121 564 117 636 110 636 c 2
 67 636 l 2
 55 636 48 636 48 651 c 0
 48 663 52 665 60 665 c 0
 67 665 132 662 167 662 c 0
 220 662 373 665 416 665 c 0
 483 665 481 666 483 678 c 0
 484 688 488 690 496 690 c 0
 510 690 513 689 513 679 c 0
 513 660 509 627 509 549 c 0
 509 541 507 539 493 539 c 0
 481 539 478 543 478 553 c 0
 478 558 481 625 481 631 c 0
 481 635 320 638 209 638 c 0
 203 638 202 588 202 510 c 0
 202 467 203 418 204 368 c 0
 204 355 204 352 216 352 c 2
 383 352 l 2
 401 352 438 352 438 368 c 2
 438 418 l 2
 438 424 447 427 455 427 c 0
 462 427 469 424 469 419 c 0
 469 410 467 377 467 341 c 0
 467 305 469 271 469 258 c 0
 469 253 463 250 456 250 c 0
 448 250 438 253 438 259 c 2
 438 305 l 2
 438 315 437 325 383 325 c 2
 220 325 l 2
 204 325 204 325 204 310 c 0
 207 167 210 34 216 34 c 0x7f80
 314 34 513 37 517 37 c 0
 533 37 534 37 536 60 c 0
 538 85 538 108 539 147 c 0
 539 153 545 155 553 155 c 0
 562 155 570 153 570 146 c 0
 570 96 567 38 567 8 c 0
 567 -1 555 -3 545 -3 c 0xbf80
 522 -3 205 0 175 0 c 0x7f80
 145 0 76 -3 53 -3 c 0
 40 -3 40 -2 40 15 c 0xbf80
EndSplineSet
EndChar

StartChar: F
Encoding: 38 70 39
Width: 550
GlyphClass: 2
Flags: MW
HStem: 0 27 325 27<204.5 385 212 385> 407 20G<453 460.5> 636 29<53 55.5 48 59 48 102>
VStem: 117 79<198 314> 440 31<249 254.5 245.5 305 414.5 418 418 421> 483 28
LayerCount: 2
Fore
SplineSet
40 651 m 0
 40 663 44 665 52 665 c 0
 59 665 124 662 159 662 c 0
 212 662 375 665 418 665 c 0
 485 665 483 666 485 678 c 0
 486 688 490 690 498 690 c 0
 512 690 515 689 515 679 c 0
 515 660 511 627 511 549 c 0
 511 541 509 539 495 539 c 0
 483 539 480 543 480 553 c 0
 480 558 483 625 483 631 c 0
 483 635 312 638 201 638 c 0
 195 638 194 584 194 524 c 0
 194 461 195 391 196 368 c 0
 196 352 196 352 212 352 c 2
 385 352 l 2
 403 352 440 352 440 368 c 2
 440 418 l 2
 440 424 449 427 457 427 c 0
 464 427 471 424 471 419 c 0
 471 410 469 377 469 341 c 0
 469 305 471 261 471 248 c 0
 471 243 465 240 458 240 c 0
 450 240 440 243 440 249 c 2
 440 305 l 2
 440 315 439 325 385 325 c 2
 212 325 l 2
 197 325 196 323 196 305 c 0
 199 164 197 27 203 27 c 2
 286 27 l 2
 297 27 297 26 297 14 c 0
 297 -1 296 -3 286 -3 c 0
 263 -3 196 0 166 0 c 0
 136 0 86 -3 63 -3 c 0
 50 -3 49 -2 49 15 c 0
 49 27 51 27 67 27 c 2
 110 27 l 2
 116 27 117 47 117 102 c 2
 117 198 l 2
 117 309 113 486 113 492 c 0
 113 564 109 636 102 636 c 2
 59 636 l 2
 47 636 40 636 40 651 c 0
EndSplineSet
EndChar

StartChar: G
Encoding: 39 71 40
Width: 764
GlyphClass: 2
Flags: MW
HStem: -18 30<343 464> 220 30<490.5 493 493 494 490.5 580> 650 27<331.5 463.5 307 472>
VStem: 45 102<248.5 423.5 248.5 445.5> 590 81<64 177.5> 626 34<639 646 646 651.5>
LayerCount: 2
Fore
SplineSet
45 335 m 0xf8
 45 556 206 677 408 677 c 0
 519 677 589 632 609 618 c 0
 618 611 626 604 626 621 c 2
 626 646 l 2
 626 657 626 659 641 659 c 0
 656 659 660 658 660 646 c 0
 660 632 657 516 657 465 c 0
 657 453 654 449 641 449 c 0
 623 449 622 452 622 461 c 0
 622 465 626 532 626 541 c 0xf4
 626 555 540 650 404 650 c 0
 259 650 147 514 147 333 c 0
 147 164 262 12 424 12 c 0
 537 12 586 57 587 68 c 0
 589 85 590 127 590 162 c 0xf8
 590 193 588 220 580 220 c 2
 493 220 l 2
 487 220 485 225 485 232 c 0
 485 241 487 250 494 250 c 0
 543 249 594 247 626 247 c 0xf4
 658 247 669 249 716 250 c 0
 723 250 724 244 724 236 c 0
 724 228 723 220 716 220 c 2
 685 220 l 2
 672 220 672 197 672 162 c 0
 672 137 671 106 671 73 c 0
 671 55 532 -18 396 -18 c 0
 212 -18 45 88 45 335 c 0xf8
EndSplineSet
EndChar

StartChar: H
Encoding: 40 72 41
Width: 791
GlyphClass: 2
Flags: MW
HStem: -3 30<58 65.5 269.5 281 281 286 539 546.5 728.5 740 740 745> 331 24<211.5 585 220 585 585 591> 639 30<67 73 73 81 66.5 116 257.5 265 527 533 533 541 728 729>
VStem: 122 83<285 322 364.5 387 387 388 248.5 448.5> 600 81<311.5 316 316 323 370 461.5 311.5 492 311.5 528>
LayerCount: 2
Fore
SplineSet
40 15 m 0
 40 27 42 27 58 27 c 2
 115 27 l 2
 121 27 122 171 122 285 c 2
 122 387 l 2
 122 510 121 639 116 639 c 2
 73 639 l 2
 61 639 53 639 53 654 c 0
 53 669 60 669 73 669 c 0
 89 669 133 666 163 666 c 0
 193 666 246 669 269 669 c 0
 282 669 283 668 283 651 c 0
 283 639 281 639 265 639 c 2
 211 639 l 2
 205 639 204 574 204 505 c 0
 204 455 205 403 205 373 c 0
 205 356 206 355 220 355 c 2
 585 355 l 2
 600 355 600 356 600 370 c 2
 600 492 l 2
 600 564 597 639 590 639 c 2
 533 639 l 2
 521 639 518 639 518 654 c 0
 518 669 520 669 533 669 c 0
 549 669 608 666 638 666 c 0
 668 666 723 669 733 669 c 0
 746 669 747 668 747 651 c 0
 747 639 745 639 729 639 c 2
 683 639 l 2
 682 639 681 526 681 397 c 0
 681 226 682 27 685 27 c 2
 740 27 l 2
 751 27 751 26 751 14 c 0
 751 -1 750 -3 740 -3 c 0
 717 -3 676 0 646 0 c 0
 616 0 558 -3 535 -3 c 0
 522 -3 521 -2 521 15 c 0
 521 27 523 27 539 27 c 2
 594 27 l 2
 599 27 600 102 600 192 c 2
 600 316 l 2
 600 330 600 331 591 331 c 2
 217 331 l 2
 206 331 205 330 205 314 c 0
 205 183 207 27 216 27 c 2
 281 27 l 2
 292 27 292 26 292 14 c 0
 292 -1 291 -3 281 -3 c 0
 258 -3 201 0 171 0 c 0
 141 0 77 -3 54 -3 c 0
 41 -3 40 -2 40 15 c 0
EndSplineSet
EndChar

StartChar: I
Encoding: 41 73 42
Width: 333
GlyphClass: 2
Flags: MW
HStem: -3 30<48 55.5 280.5 292 292 297> 639 27
VStem: 126 85<394 481>
LayerCount: 2
Fore
SplineSet
30 15 m 0
 30 27 32 27 48 27 c 2
 116 27 l 2
 125 27 126 255 126 394 c 2
 126 492 l 2
 126 564 123 639 116 639 c 2
 54 639 l 2
 42 639 34 639 34 654 c 0
 34 669 41 669 54 669 c 0
 70 669 144 666 174 666 c 0
 204 666 266 669 289 669 c 0
 302 669 303 668 303 651 c 0
 303 639 301 639 285 639 c 2
 222 639 l 2
 212 639 211 537 211 481 c 2
 211 346 l 2
 211 210 212 27 221 27 c 2
 292 27 l 2
 303 27 303 26 303 14 c 0
 303 -1 302 -3 292 -3 c 0
 269 -3 202 0 172 0 c 0
 142 0 67 -3 44 -3 c 0
 31 -3 30 -2 30 15 c 0
EndSplineSet
EndChar

StartChar: J
Encoding: 42 74 43
Width: 333
GlyphClass: 2
Flags: MW
HStem: -212 67<11.5 108> 639 30<48 54 54 62 47.5 119 267.5 275>
VStem: 129 89<87 130 130 370>
LayerCount: 2
Fore
SplineSet
-30 -188 m 0
 -30 -153 30 -124 37 -124 c 0
 53 -124 68 -145 89 -145 c 0
 127 -145 129 -91 129 -5 c 2
 129 492 l 2
 129 564 126 639 119 639 c 2
 54 639 l 2
 42 639 34 639 34 654 c 0
 34 669 41 669 54 669 c 0
 70 669 147 666 177 666 c 0
 207 666 256 669 279 669 c 0
 292 669 293 668 293 651 c 0
 293 639 291 639 275 639 c 2
 225 639 l 2
 218 639 218 502 218 370 c 2
 218 130 l 2
 218 44 210 -65 132 -148 c 0
 103 -179 69 -212 23 -212 c 0
 0 -212 -30 -202 -30 -188 c 0
EndSplineSet
EndChar

StartChar: K
Encoding: 43 75 44
Width: 650
GlyphClass: 2
Flags: MW
HStem: -3 30<58 65.5 277.5 289 289 294 443 450.5 627.5 639 639 644> 310 21<218 219 219 239> 634 30<63 69 69 77 62.5 113 265.5 273 420 426 426 434 579.5 587>
VStem: 121 84<235 304 344 351 351 476>
LayerCount: 2
Fore
SplineSet
40 15 m 0
 40 27 42 27 58 27 c 2
 113 27 l 2
 120 27 121 105 121 197 c 2
 121 487 l 2
 121 559 120 634 113 634 c 2
 69 634 l 2
 57 634 49 634 49 649 c 0
 49 664 56 664 69 664 c 0
 85 664 141 661 171 661 c 0
 201 661 254 664 277 664 c 0
 290 664 291 663 291 646 c 0
 291 634 289 634 273 634 c 2
 219 634 l 2
 209 634 205 532 205 476 c 2
 205 351 l 2
 205 337 206 331 218 331 c 2
 240 331 l 2
 265 331 432 566 469 613 c 0
 474 620 478 625 478 629 c 0
 478 632 474 634 463 634 c 2
 426 634 l 2
 414 634 406 634 406 649 c 0
 406 664 413 664 426 664 c 0
 442 664 481 661 511 661 c 0
 541 661 568 664 591 664 c 0
 604 664 605 663 605 646 c 0
 605 634 603 634 587 634 c 2
 538 634 l 2
 537 634 380 445 322 376 c 0
 312 365 315 366 325 354 c 2
 594 44 l 2
 603 34 611 27 625 27 c 2
 639 27 l 2
 650 27 650 26 650 14 c 0
 650 -1 649 -3 639 -3 c 0
 616 -3 569 0 539 0 c 0
 509 0 462 -3 439 -3 c 0
 426 -3 425 -2 425 15 c 0
 425 27 427 27 443 27 c 2
 473 27 l 2
 486 27 490 29 490 31 c 0
 490 34 484 38 478 45 c 2
 261 302 l 2
 254 310 254 310 239 310 c 2
 219 310 l 2
 207 310 205 310 205 298 c 0
 205 172 205 27 216 27 c 2
 289 27 l 2
 300 27 300 26 300 14 c 0
 300 -1 299 -3 289 -3 c 0
 266 -3 199 0 169 0 c 0
 139 0 77 -3 54 -3 c 0
 41 -3 40 -2 40 15 c 0
EndSplineSet
EndChar

StartChar: L
Encoding: 44 76 45
Width: 592
GlyphClass: 2
Flags: MW
HStem: -3 30<57 64.5> -3 40 639 27
VStem: 128 87<319 424>
LayerCount: 2
Fore
SplineSet
40 15 m 0xb0
 40 27 41 27 57 27 c 2
 119 27 l 2xb0
 127 27 128 171 128 319 c 2
 128 550 l 2
 128 604 127 639 121 639 c 2
 63 639 l 2
 50 639 47 640 47 654 c 0
 47 668 51 669 67 669 c 0
 83 669 147 666 177 666 c 0
 207 666 272 669 295 669 c 0
 311 669 312 668 312 654 c 0
 312 642 310 639 294 639 c 2
 224 639 l 2
 216 639 215 521 215 424 c 2
 215 147 l 2
 215 80 217 31 223 31 c 0
 325 31 505 36 516 37 c 0x70
 532 38 536 38 539 60 c 2
 551 144 l 2
 552 149 556 152 562 152 c 0
 572 152 582 148 582 142 c 0
 582 134 565 37 561 8 c 0
 560 -1 549 -3 539 -3 c 0
 516 -3 205 0 175 0 c 0
 145 0 76 -3 53 -3 c 0
 40 -3 40 -2 40 15 c 0xb0
EndSplineSet
EndChar

StartChar: M
Encoding: 45 77 46
Width: 895
GlyphClass: 2
Flags: MW
HStem: -7 21G<417.5 422> -3 30<53 60.5 207.5 219 219 224 645 652.5 842.5 852 852 857.5> 626 40<152.5 155.5> 639 30<49 54 54 61 49 100 827.5 835>
VStem: 104 38<129 129> 122 28 700 82
LayerCount: 2
Fore
SplineSet
35 15 m 0x4a
 35 27 37 27 53 27 c 2
 95 27 l 2
 102 27 101 68 104 129 c 0x4a
 107 190 122 556 122 626 c 0x66
 122 636 119 639 100 639 c 2
 54 639 l 2
 43 639 43 640 43 652 c 0
 43 667 44 669 54 669 c 0x16
 68 669 140 666 161 666 c 0x26
 183 666 214 669 220 669 c 0x16
 230 669 235 668 240 656 c 2
 450 132 l 2
 456 117 459 110 461 110 c 0
 463 110 467 118 472 132 c 2
 668 643 l 2
 676 664 678 666 693 666 c 2
 739 666 l 2x26
 769 666 816 669 839 669 c 0
 852 669 853 668 853 651 c 0
 853 639 851 639 835 639 c 2
 789 639 l 2
 783 639 782 608 782 559 c 2
 782 469 l 2
 782 288 788 27 798 27 c 2
 852 27 l 2x56
 863 27 865 26 865 14 c 0x86
 865 -1 864 -3 854 -3 c 0
 831 -3 777 0 747 0 c 0
 717 0 664 -3 641 -3 c 0
 628 -3 627 -2 627 15 c 0
 627 27 629 27 645 27 c 2
 691 27 l 2x46
 698 27 700 106 700 204 c 0
 700 321 696 621 693 621 c 0
 689 621 563 284 491 109 c 0
 472 63 459 60 435 12 c 0
 429 -1 424 -7 420 -7 c 0
 415 -7 410 4 403 21 c 2
 170 596 l 2
 161 617 157 626 154 626 c 0
 151 626 151 615 150 594 c 0xa6
 145 462 142 260 142 129 c 0
 142 68 144 27 147 27 c 2
 219 27 l 2x6a
 230 27 230 26 230 14 c 0x8a
 230 -1 229 -3 219 -3 c 0
 196 -3 161 0 131 0 c 0
 101 0 72 -3 49 -3 c 0
 36 -3 35 -2 35 15 c 0x4a
EndSplineSet
EndChar

StartChar: N
Encoding: 46 78 47
Width: 814
GlyphClass: 2
Flags: MW
HStem: -18 21G<679.5 684.5> -3 30<58 65.5 230.5 242 242 247> 614 52<155.5 157.5> 639 30<49 54 54 61 49 122 567 572 572 583.5 748.5 756>
VStem: 114 37<129 129> 122 30 667 38<580 598.5 580 600>
LayerCount: 2
Fore
SplineSet
40 15 m 0x6a
 40 27 42 27 58 27 c 2
 102 27 l 2
 115 27 112 68 114 129 c 0x6a
 119 301 122 639 122 639 c 1
 54 639 l 2
 43 639 43 640 43 652 c 0
 43 667 44 669 54 669 c 0x56
 68 669 145 666 166 666 c 0x26
 188 666 215 669 221 669 c 0
 232 669 233 666 241 656 c 2
 647 157 l 2
 656 146 662 137 665 137 c 0
 668 137 669 145 669 165 c 2
 669 207 l 2
 669 305 667 482 667 583 c 0
 667 617 667 639 666 639 c 2
 572 639 l 2
 561 639 561 640 561 652 c 0
 561 667 562 669 572 669 c 0x16
 595 669 648 666 678 666 c 0x26
 708 666 737 669 760 669 c 0
 773 669 774 668 774 651 c 0
 774 639 772 639 756 639 c 2
 709 639 l 2x16
 708 639 705 617 705 580 c 0
 704 425 692 15 692 4 c 0
 692 -12 687 -18 682 -18 c 0
 677 -18 670 -9 664 -2 c 2
 172 596 l 2
 164 606 159 614 156 614 c 0
 154 614 153 609 153 594 c 0
 152 569 152 525 152 472 c 0xa6
 152 366 151 224 151 129 c 0
 151 68 153 27 156 27 c 2
 242 27 l 2
 253 27 253 26 253 14 c 0
 253 -1 252 -3 242 -3 c 0
 219 -3 166 0 136 0 c 0
 106 0 77 -3 54 -3 c 0
 41 -3 40 -2 40 15 c 0x6a
EndSplineSet
EndChar

StartChar: O
Encoding: 47 79 48
Width: 752
GlyphClass: 2
Flags: MW
HStem: -11 28<298.5 453.5 298.5 468.5> 647 28<303.5 456.5>
VStem: 45 94<255 421.5 255 426> 615 92<256 409.5>
LayerCount: 2
Fore
SplineSet
45 318 m 0
 45 534 201 675 385 675 c 0
 583 675 707 518 707 324 c 0
 707 124 567 -11 370 -11 c 0
 210 -11 45 104 45 318 c 0
139 345 m 0
 139 165 226 17 371 17 c 0
 536 17 615 179 615 333 c 0
 615 486 538 647 375 647 c 0
 232 647 139 498 139 345 c 0
EndSplineSet
EndChar

StartChar: P
Encoding: 48 80 49
Width: 564
GlyphClass: 2
Flags: MW
HStem: 0 27 290 22<287 304 239 375.5> 632 32<54 60> 641 26<292.5 306.5>
VStem: 128 81<474 526 526 557.5> 458 86<421.5 534.5>
LayerCount: 2
Fore
SplineSet
40 649 m 0xec
 40 664 47 664 60 664 c 0xec
 76 664 143 662 173 662 c 0
 203 662 281 667 304 667 c 0xdc
 440 667 544 606 544 471 c 0
 544 343 446 290 305 290 c 0
 269 290 246 293 218 293 c 0
 208 293 208 288 208 282 c 2
 208 216 l 2
 208 136 209 27 213 27 c 2
 286 27 l 2
 297 27 297 26 297 14 c 0
 297 -1 296 -3 286 -3 c 0
 263 -3 201 0 171 0 c 0
 141 0 73 -3 64 -3 c 0
 51 -3 50 -2 50 15 c 0
 50 27 52 27 68 27 c 2
 119 27 l 2
 127 27 128 343 128 474 c 2
 128 526 l 2
 128 589 127 634 123 634 c 2
 60 632 l 2
 48 632 40 634 40 649 c 0xec
209 325 m 2
 209 313 231 312 247 312 c 0
 361 312 458 357 458 486 c 0
 458 583 366 641 247 641 c 0xdc
 236 641 225 641 214 640 c 0
 210 640 209 616 209 586 c 2
 209 325 l 2
EndSplineSet
EndChar

StartChar: Q
Encoding: 49 81 50
Width: 783
GlyphClass: 2
Flags: MW
HStem: -187 63<617 640> -122 56<180.5 206.5> 647 28<310.5 463.5>
VStem: 45 87<310 432.5 310 448> 640 98<259.5 408.5>
LayerCount: 2
Fore
SplineSet
45 340 m 0
 45 556 208 675 392 675 c 0
 590 675 738 534 738 340 c 0
 738 179 637 55 494 14 c 0
 462 5 305 -65 305 -67 c 0
 305 -71 401 -70 459 -83 c 0
 527 -98 595 -124 639 -124 c 0
 707 -124 739 -94 745 -94 c 0
 748 -94 759 -103 759 -111 c 0
 759 -124 677 -187 603 -187 c 0
 466 -187 308 -104 254 -104 c 0
 229 -104 195 -122 187 -122 c 0
 174 -122 151 -91 151 -80 c 0
 151 -68 159 -65 176 -65 c 0
 183 -65 191 -66 198 -66 c 0
 215 -66 234 -65 255 -60 c 0
 289 -51 396 -3 396 1 c 0
 396 2 389 2 382 3 c 0
 204 25 45 118 45 340 c 0
132 356 m 0
 132 264 166 177 217 119 c 0
 274 54 411 18 434 18 c 0
 465 18 640 108 640 332 c 0
 640 485 545 647 382 647 c 0
 239 647 132 509 132 356 c 0
EndSplineSet
EndChar

StartChar: R
Encoding: 50 82 51
Width: 641
GlyphClass: 2
Flags: MW
HStem: -3 30<77 77.5 267.5 279 279 284 607 629 629 630> 312 21 632 32<54 60> 642 26<306.5 313>
VStem: 127 80<271 289 289 305 341 345 345 362.5> 451 85<452 533.5> 483 86
LayerCount: 2
Fore
SplineSet
40 649 m 0xea
 40 664 47 664 60 664 c 0xea
 76 664 143 662 173 662 c 0
 203 662 295 668 318 668 c 0
 418 668 536 638 536 498 c 0xdc
 536 406 444 354 402 335 c 0
 389 329 382 328 382 327 c 0
 382 326 388 326 402 322 c 0
 465 303 563 256 569 92 c 0
 571 35 572 27 583 27 c 2
 629 27 l 2
 638 27 641 26 641 5 c 0
 641 0 636 -3 624 -3 c 0
 590 -3 491 0 491 0 c 2
 484 0 483 0 483 8 c 2
 483 66 l 2
 483 186 473 309 310 312 c 0
 289 312 246 313 218 313 c 0
 208 313 207 308 207 302 c 0
 207 240 212 27 218 27 c 2
 279 27 l 2
 290 27 290 26 290 14 c 0
 290 -1 289 -3 279 -3 c 0
 256 -3 201 0 171 0 c 0
 141 0 82 -3 73 -3 c 0
 60 -3 59 -2 59 15 c 0
 59 27 61 27 77 27 c 2
 122 27 l 2
 126 27 127 85 127 156 c 2
 127 289 l 2
 127 436 126 634 115 634 c 2
 60 632 l 2
 48 632 40 634 40 649 c 0xea
207 345 m 2
 207 337 209 335 223 335 c 0
 266 334 317 334 351 333 c 0
 355 333 359 332 363 334 c 0
 411 356 451 400 451 484 c 0
 451 583 360 642 266 642 c 0xdc
 249 642 231 641 214 640 c 0
 210 640 207 616 207 586 c 2
 207 345 l 2
EndSplineSet
EndChar

StartChar: S
Encoding: 51 83 52
Width: 528
GlyphClass: 2
Flags: MW
HStem: -15 33<249 313.5 249 324.5> 642 20G<435.5 450.5> 649 28<233 287 215 308>
VStem: 55 83<427 544> 61 33<173 173 173 179> 411 82<116 228.5> 425 32<485 563.5>
LayerCount: 2
Fore
SplineSet
55 488 m 0xb4
 55 600 161 677 269 677 c 0xb4
 305 677 348 673 404 635 c 0
 409 631 415 627 420 627 c 0
 424 627 426 629 427 637 c 2
 428 648 l 2
 428 659 428 662 443 662 c 0xd4
 458 662 462 660 462 648 c 0
 462 637 457 542 457 491 c 0
 457 479 454 475 441 475 c 0
 423 475 422 478 422 487 c 0
 422 491 425 542 425 551 c 0
 425 576 345 649 271 649 c 0
 195 649 138 594 138 520 c 0xb2
 138 334 493 411 493 178 c 0
 493 54 380 -15 269 -15 c 0
 158 -15 72 21 71 31 c 0
 69 67 61 161 61 175 c 0
 61 183 63 189 73 189 c 2
 78 189 l 2
 90 189 93 185 94 173 c 2xac
 100 81 l 2
 102 51 220 18 278 18 c 0
 349 18 411 70 411 139 c 0
 411 318 55 256 55 488 c 0xb4
EndSplineSet
EndChar

StartChar: T
Encoding: 52 84 53
Width: 690
GlyphClass: 2
Flags: MW
HStem: 0 27 635 28<131 531 174 301 404 409 409 525> 666 20G<45.5 57 649 660>
VStem: 20 33<539.5 552> 37 29 308 85 638 28
LayerCount: 2
Fore
SplineSet
20 544 m 0xf6
 20 546 33 622 37 672 c 0xee
 38 685 38 686 53 686 c 0xf6
 61 686 66 686 66 680 c 2
 66 669 l 2xee
 66 663 121 663 174 663 c 2
 531 663 l 2
 589 663 639 664 640 674 c 0
 641 684 645 686 653 686 c 0
 667 686 670 685 670 675 c 0
 670 656 666 623 666 545 c 0
 666 537 664 535 650 535 c 0
 638 535 635 539 635 549 c 0
 635 554 638 621 638 627 c 0
 638 633 582 635 525 635 c 2
 409 635 l 2
 399 635 400 534 399 477 c 0
 399 474 393 217 393 92 c 0
 393 53 393 27 395 27 c 2
 469 27 l 2
 480 27 480 26 480 14 c 0
 480 -1 479 -3 469 -3 c 0
 446 -3 379 0 349 0 c 0
 319 0 251 -3 228 -3 c 0
 215 -3 214 -2 214 15 c 0
 214 27 216 27 232 27 c 2
 294 27 l 2
 304 27 308 436 308 545 c 0
 308 594 307 635 301 635 c 2
 157 635 l 2
 105 635 61 633 60 622 c 2
 53 552 l 2
 52 539 49 535 40 535 c 0
 30 535 20 535 20 544 c 0xf6
EndSplineSet
EndChar

StartChar: U
Encoding: 53 85 54
Width: 755
GlyphClass: 2
Flags: MW
HStem: -11 45<311 356> 634 30<52 58 58 66 51.5 95 252.5 260 517 523 523 531 696 697>
VStem: 99 82<166 243.5> 579 81
LayerCount: 2
Fore
SplineSet
40 649 m 0
 40 664 45 664 58 664 c 0
 74 664 120 661 150 661 c 0
 180 661 241 664 264 664 c 0
 277 664 278 663 278 646 c 0
 278 634 276 634 260 634 c 2
 195 634 l 2
 186 634 181 272 181 228 c 0
 181 101 240 34 382 34 c 0
 467 34 526 69 554 88 c 0
 579 105 579 102 579 247 c 2
 579 552 l 2
 579 598 578 634 572 634 c 2
 523 634 l 2
 511 634 503 634 503 649 c 0
 503 664 510 664 523 664 c 0
 539 664 593 661 623 661 c 0
 653 661 691 664 701 664 c 0
 714 664 715 663 715 646 c 0
 715 634 713 634 697 634 c 2
 673 634 l 2
 662 634 664 472 660 317 c 0
 657 180 653 46 653 25 c 0
 653 17 652 -7 632 -7 c 0
 612 -7 593 66 570 66 c 0
 562 66 542 56 524 46 c 0
 477 19 394 -11 318 -11 c 0
 116 -11 99 105 99 227 c 0
 99 260 100 496 100 575 c 0
 100 611 100 634 95 634 c 2
 58 634 l 2
 46 634 40 634 40 649 c 0
EndSplineSet
EndChar

StartChar: V
Encoding: 54 86 55
Width: 685
GlyphClass: 2
Flags: MW
HStem: -25 119<316.5 367.5> 634 30<22 28 28 36 21.5 59 238.5 246 475 481 481 486 656 665>
LayerCount: 2
Fore
SplineSet
10 649 m 0
 10 664 15 664 28 664 c 0
 44 664 90 661 120 661 c 0
 150 661 227 664 250 664 c 0
 263 664 264 663 264 646 c 0
 264 634 262 634 246 634 c 2
 175 634 l 2
 174 634 173 632 173 629 c 0
 173 618 179 594 185 578 c 0
 222 470 303 249 344 142 c 0
 356 112 364 94 366 94 c 0
 369 94 378 111 389 140 c 0
 441 276 561 567 561 618 c 0
 561 628 560 634 552 634 c 2
 481 634 l 2
 469 634 463 634 463 649 c 0
 463 664 465 664 478 664 c 0
 494 664 553 661 583 661 c 0
 613 661 651 664 661 664 c 0
 674 664 675 663 675 646 c 0
 675 634 673 634 657 634 c 0
 630 634 629 629 621 611 c 2
 390 68 l 2
 379 43 374 42 363 26 c 0
 342 -4 338 -25 322 -25 c 0
 311 -25 304 29 268 110 c 0
 265 116 66 634 59 634 c 2
 28 634 l 2
 16 634 10 634 10 649 c 0
EndSplineSet
EndChar

StartChar: W
Encoding: 55 87 56
Width: 1008
GlyphClass: 2
Flags: MW
HStem: -25 115<646 702> -25 131<270 325.5> 634 30<24 30 30 38 23.5 65 215.5 223 386 392 392 400 611.5 620 807 813 813 821 979 988>
VStem: 488 65
LayerCount: 2
Fore
SplineSet
10 649 m 0x70
 10 664 17 664 30 664 c 0
 46 664 93 661 123 661 c 0
 153 661 204 664 227 664 c 0
 240 664 241 663 241 646 c 0
 241 634 239 634 223 634 c 2
 173 634 l 2
 171 634 163 634 163 625 c 0
 163 620 187 536 190 526 c 0
 233 380 305 162 311 142 c 0
 319 118 321 106 324 106 c 0x70
 327 106 331 118 340 142 c 2
 483 507 l 2
 486 515 488 520 488 525 c 0
 488 533 483 540 479 556 c 0
 466 602 454 634 452 634 c 2
 392 634 l 2
 380 634 375 634 375 649 c 0
 375 664 379 664 392 664 c 0
 408 664 473 661 503 661 c 0
 533 661 600 664 623 664 c 0
 636 664 637 663 637 646 c 0
 637 634 633 634 620 634 c 2
 556 634 l 2
 554 634 553 630 553 625 c 0
 553 601 568 538 571 526 c 0
 609 386 675 163 681 142 c 0
 692 108 695 90 700 90 c 0
 704 90 709 107 722 140 c 0
 773 276 887 567 887 618 c 0
 887 628 886 634 878 634 c 2
 813 634 l 2
 801 634 796 634 796 649 c 0
 796 664 800 664 813 664 c 0
 829 664 886 661 916 661 c 0
 946 661 974 664 984 664 c 0
 997 664 998 662 998 648 c 0
 998 636 996 634 980 634 c 0
 953 634 952 629 944 611 c 2
 723 68 l 2
 713 43 707 42 696 26 c 0
 675 -4 668 -25 655 -25 c 0xb0
 637 -25 629 32 603 110 c 0
 602 113 553 293 511 440 c 0
 506 457 504 465 501 465 c 0
 498 465 495 456 489 440 c 2
 347 68 l 2
 337 43 331 42 320 26 c 0
 299 -4 292 -25 279 -25 c 0
 261 -25 253 32 227 110 c 0
 225 116 72 634 65 634 c 2
 30 634 l 2
 18 634 10 634 10 649 c 0x70
EndSplineSet
EndChar

StartChar: X
Encoding: 56 88 57
Width: 638
GlyphClass: 2
Flags: MW
HStem: -3 30<26 34 180.5 188 188 196 396 403.5 602 610 610 616> 634 30<47 53 53 61 46.5 92 255.5 263 427 435 435 442.5 577 585>
LayerCount: 2
Fore
SplineSet
10 12 m 0
 10 27 14 27 26 27 c 2
 63 27 l 2
 71 27 100 73 137 127 c 0
 181 192 233 254 281 316 c 0
 287 324 287 327 281 336 c 0
 281 337 100 634 92 634 c 2
 53 634 l 2
 41 634 35 634 35 649 c 0
 35 664 40 664 53 664 c 0
 69 664 140 661 170 661 c 0
 200 661 244 664 267 664 c 0
 280 664 281 663 281 646 c 0
 281 634 279 634 263 634 c 2
 222 634 l 2
 207 634 208 633 214 619 c 0
 235 568 303 447 335 392 c 0
 339 387 341 382 342 382 c 0
 345 382 420 498 431 515 c 0
 464 564 494 613 494 630 c 0
 494 633 493 634 491 634 c 2
 435 634 l 2
 419 634 417 634 417 646 c 0
 417 663 418 664 431 664 c 0
 454 664 479 661 509 661 c 0
 539 661 569 664 585 664 c 0
 598 664 601 664 601 649 c 0
 601 634 597 634 585 634 c 2
 559 634 l 2
 558 634 538 610 513 574 c 0
 454 489 381 397 361 367 c 0
 356 359 356 361 361 353 c 0
 393 302 568 27 575 27 c 2
 610 27 l 2
 622 27 628 27 628 12 c 0
 628 -3 623 -3 610 -3 c 0
 594 -3 538 0 508 0 c 0
 478 0 415 -3 392 -3 c 0
 379 -3 378 -2 378 15 c 0
 378 27 380 27 396 27 c 2
 446 27 l 2
 461 27 461 28 454 42 c 0
 428 94 347 228 309 292 c 0
 303 302 304 306 296 294 c 0
 267 253 171 114 133 52 c 0
 126 40 121 34 121 31 c 0
 121 28 124 27 134 27 c 2
 188 27 l 2
 204 27 206 27 206 15 c 0
 206 -2 205 -3 192 -3 c 0
 169 -3 139 0 109 0 c 0
 79 0 42 -3 26 -3 c 0
 13 -3 10 -3 10 12 c 0
EndSplineSet
EndChar

StartChar: Y
Encoding: 57 89 58
Width: 597
GlyphClass: 2
Flags: MW
HStem: 0 27 639 30<22 28 28 36 21.5 57 234.5 242 413 421 421 428.5 563 571>
VStem: 263 85<252 277>
LayerCount: 2
Fore
SplineSet
10 654 m 0
 10 669 15 669 28 669 c 0
 44 669 101 666 131 666 c 0
 161 666 223 669 246 669 c 0
 259 669 260 668 260 651 c 0
 260 639 258 639 242 639 c 2
 183 639 l 2
 168 639 169 638 175 624 c 0
 196 573 288 407 317 351 c 0
 322 341 325 334 328 334 c 0
 331 334 334 339 339 348 c 0
 374 416 479 610 479 636 c 0
 479 638 478 639 477 639 c 2
 421 639 l 2
 405 639 403 639 403 651 c 0
 403 668 404 669 417 669 c 0
 440 669 465 666 495 666 c 0
 525 666 555 669 571 669 c 0
 584 669 587 669 587 654 c 0
 587 639 583 639 571 639 c 2
 535 639 l 2
 530 639 398 398 351 324 c 0
 348 319 348 316 348 313 c 0
 348 191 349 27 358 27 c 2
 429 27 l 2
 440 27 440 26 440 14 c 0
 440 -1 439 -3 429 -3 c 0
 406 -3 339 0 309 0 c 0
 279 0 220 -3 197 -3 c 0
 184 -3 183 -2 183 15 c 0
 183 27 185 27 201 27 c 2
 253 27 l 2
 262 27 263 137 263 271 c 0
 263 283 260 287 256 294 c 0
 222 356 65 639 57 639 c 2
 28 639 l 2
 16 639 10 639 10 654 c 0
EndSplineSet
EndChar

StartChar: Z
Encoding: 58 90 59
Width: 601
GlyphClass: 2
Flags: MW
HStem: 0 37 629 32<161 411>
VStem: 52 33 73 29<666.5 677.5> 536 35<147 149.5 121 150>
LayerCount: 2
Fore
SplineSet
40 15 m 0xd8
 40 27 274 372 430 617 c 0
 433 621 435 624 435 626 c 0
 435 629 430 629 411 629 c 2
 109 629 l 2
 99 629 100 628 98 619 c 0
 94 596 86 545 85 541 c 0
 83 533 82 526 76 526 c 0
 64 526 52 529 52 535 c 0xe8
 52 542 65 614 73 676 c 0
 73 679 77 682 89 682 c 0
 96 682 102 680 102 676 c 2
 102 670 l 2
 102 663 108 661 161 661 c 2
 542 661 l 2
 554 661 559 659 559 646 c 0
 559 631 322 303 180 60 c 0
 175 52 170 46 170 42 c 0
 170 39 173 37 181 37 c 2
 518 37 l 2
 534 37 531 37 533 60 c 0
 535 85 535 108 536 147 c 0
 536 153 546 155 554 155 c 0
 563 155 571 153 571 146 c 0
 571 96 568 38 568 8 c 0
 568 -1 556 -3 546 -3 c 0
 434 -3 152 0 48 0 c 0
 41 0 40 1 40 15 c 0xd8
EndSplineSet
EndChar

StartChar: bracketleft
Encoding: 59 91 60
Width: 296
GlyphClass: 2
Flags: MW
HStem: -141 36<138 243 138 243> 654 36<131.5 138 138 243>
VStem: 80 45<-98 -93 -93 642>
LayerCount: 2
Fore
SplineSet
80 -126 m 2
 80 675 l 2
 80 686 81 690 92 690 c 2
 243 690 l 2
 255 690 256 689 256 681 c 2
 256 667 l 2
 256 654 254 654 243 654 c 2
 138 654 l 2
 125 654 125 652 125 642 c 2
 125 -93 l 2
 125 -103 125 -105 138 -105 c 2
 243 -105 l 2
 254 -105 256 -105 256 -118 c 2
 256 -130 l 2
 256 -138 255 -141 243 -141 c 2
 93 -141 l 2
 81 -141 80 -140 80 -126 c 2
EndSplineSet
EndChar

StartChar: backslash
Encoding: 60 92 61
Width: 406
GlyphClass: 2
Flags: MW
VStem: 338 58<-226.5 -202>
LayerCount: 2
Fore
SplineSet
10 693 m 0
 10 703 22 705 31 705 c 0
 49 705 55 702 60 687 c 0
 62 680 377 -163 377 -163 c 2
 385 -186 396 -211 396 -220 c 0
 396 -233 382 -233 370 -233 c 0
 355 -233 349 -233 338 -202 c 2
 24 649 l 2
 19 662 10 684 10 693 c 0
EndSplineSet
EndChar

StartChar: bracketright
Encoding: 61 93 62
Width: 296
GlyphClass: 2
Flags: MW
HStem: -141 36<47 158 53 158 158 164.5 53 204> 654 36<47.5 203 53 158>
VStem: 171 45<-93 642 642 647>
LayerCount: 2
Fore
SplineSet
40 -118 m 2
 40 -105 42 -105 53 -105 c 2
 158 -105 l 2
 171 -105 171 -103 171 -93 c 2
 171 642 l 2
 171 652 171 654 158 654 c 2
 53 654 l 2
 42 654 40 654 40 667 c 2
 40 679 l 2
 40 687 41 690 53 690 c 2
 203 690 l 2
 215 690 216 689 216 675 c 2
 216 -126 l 2
 216 -137 215 -141 204 -141 c 2
 53 -141 l 2
 41 -141 40 -140 40 -132 c 2
 40 -118 l 2
EndSplineSet
EndChar

StartChar: asciicircum
Encoding: 62 94 63
Width: 402
GlyphClass: 2
Flags: MW
HStem: 311 320<51 197 103 197 197 303 197 355>
VStem: 51 304<311 311>
LayerCount: 2
Fore
SplineSet
51 311 m 1
 197 631 l 1
 199 632 201 632 203 632 c 0
 205 632 207 632 209 631 c 1
 355 311 l 1
 345 309 340 308 329 308 c 0
 319 308 314 309 303 311 c 1
 201 543 l 1
 103 311 l 1
 91 309 89 308 75 308 c 0
 64 308 60 309 51 311 c 1
EndSplineSet
EndChar

StartChar: underscore
Encoding: 63 95 64
Width: 410
GlyphClass: 2
Flags: MW
HStem: -70 45<32.5 372 41 372 41 372>
LayerCount: 2
Fore
SplineSet
25 -43 m 2
 25 -30 30 -25 41 -25 c 2
 372 -25 l 2
 385 -25 385 -33 385 -42 c 2
 385 -47 l 2
 385 -55 383 -70 372 -70 c 2
 38 -70 l 2
 27 -70 25 -65 25 -51 c 2
 25 -43 l 2
EndSplineSet
EndChar

StartChar: grave
Encoding: 64 96 65
Width: 400
GlyphClass: 2
Flags: MW
HStem: 449 163<122.5 195 122.5 211>
VStem: 98 66<587 587 587 590>
LayerCount: 2
Fore
SplineSet
98 582 m 0
 98 598 111 612 134 612 c 0
 148 612 158 603 164 587 c 2
 213 457 l 2
 214 455 215 452 215 451 c 0
 215 450 214 449 211 449 c 2
 195 449 l 2
 192 449 190 451 187 455 c 2
 105 562 l 2
 100 569 98 575 98 582 c 0
EndSplineSet
EndChar

StartChar: a
Encoding: 65 97 66
Width: 419
GlyphClass: 2
Flags: MW
HStem: -17 51<290 350> 374 25<175 223>
VStem: 35 70<83 115.5> 49 68<299 302 299 309> 267 65<58 307.5 192 307.5 242.5 270>
LayerCount: 2
Fore
SplineSet
35 71 m 0xe8
 35 160 160 202 259 219 c 0
 267 220 267 227 267 235 c 0
 267 305 266 374 180 374 c 0
 170 374 159 373 149 369 c 0
 121 357 118 342 117 302 c 0
 117 296 116 285 110 281 c 0
 94 269 61 253 57 253 c 0
 52 253 49 257 49 268 c 0xd8
 49 350 136 399 201 399 c 0
 302 399 332 347 332 268 c 0
 332 217 326 86 326 64 c 0
 326 55 330 34 348 34 c 0
 352 34 383 58 386 58 c 0
 390 58 399 49 399 43 c 0
 399 39 356 9 334 -6 c 0
 327 -11 318 -17 308 -17 c 0
 272 -17 270 39 268 39 c 0
 266 39 256 31 248 27 c 0
 228 15 175 -14 133 -14 c 0
 71 -14 35 20 35 71 c 0xe8
105 99 m 0xe8
 105 67 128 30 170 30 c 0
 214 30 267 53 267 58 c 2
 267 192 l 2
 267 199 266 203 261 203 c 0
 258 203 228 197 199 188 c 0
 152 173 105 146 105 99 c 0xe8
EndSplineSet
EndChar

StartChar: b
Encoding: 66 98 67
Width: 485
GlyphClass: 2
Flags: MW
HStem: -13 27<223 284 223 291> 357 29<238 266.5> 633 27<8.5 10 8 13> 639 37
VStem: 89 66 383 72<142.5 231.5>
LayerCount: 2
Fore
SplineSet
5 639 m 0xdc
 5 645 6 660 10 660 c 0xec
 58 665 147 676 152 676 c 0
 158 676 158 667 158 661 c 2
 158 661 155 476 155 394 c 0
 155 371 155 356 156 356 c 0
 159 356 213 386 263 386 c 0
 376 386 455 297 455 188 c 0
 455 59 348 -13 234 -13 c 0
 198 -13 173 6 145 6 c 0
 125 6 107 -12 96 -12 c 0
 88 -12 84 -8 84 1 c 0
 84 7 89 130 89 197 c 0
 89 231 85 639 72 639 c 0xdc
 68 639 15 633 11 633 c 0xec
 6 633 5 634 5 639 c 0xdc
153 64 m 0
 153 15 209 14 237 14 c 0
 331 14 383 98 383 187 c 0
 383 276 310 357 223 357 c 0
 189 357 155 337 155 332 c 0
 155 231 153 97 153 64 c 0
EndSplineSet
EndChar

StartChar: c
Encoding: 67 99 68
Width: 412
GlyphClass: 2
Flags: MW
HStem: -10 44<202.5 273.5> 372 27<192.5 266.5>
VStem: 35 65<160 241.5 160 251> 317 57
LayerCount: 2
Fore
SplineSet
35 177 m 0
 35 325 144 399 241 399 c 0
 306 399 374 354 374 303 c 0
 374 295 372 289 364 283 c 0
 355 276 343 270 334 270 c 0
 326 270 320 272 317 281 c 0
 301 326 298 372 235 372 c 0
 150 372 100 281 100 202 c 0
 100 118 151 34 254 34 c 0
 323 34 367 64 375 64 c 0
 379 64 382 62 382 56 c 0
 382 50 323 -10 224 -10 c 0
 107 -10 35 64 35 177 c 0
EndSplineSet
EndChar

StartChar: d
Encoding: 68 100 69
Width: 499
GlyphClass: 2
Flags: MW
HStem: -23 21G<344 346> -13 37<201 227.5> 359 20<201 263 175.5 271> 643 37
VStem: 30 73<141.5 232.5 141.5 237.5> 342 62<168 307 307 313.5 168 421.5>
LayerCount: 2
Fore
SplineSet
30 181 m 0x7c
 30 294 118 379 233 379 c 0
 293 379 334 353 336 353 c 0
 342 353 342 363 342 371 c 0
 342 472 335 643 332 643 c 0
 329 643 272 634 265 634 c 0
 259 634 259 635 261 649 c 0
 262 656 263 661 269 662 c 0
 326 669 395 680 400 680 c 0
 409 680 410 678 410 657 c 0
 410 623 404 494 404 184 c 0
 404 152 405 100 406 64 c 0
 407 24 413 15 429 15 c 0
 437 15 448 17 463 19 c 0
 471 20 474 21 474 11 c 0
 474 -3 474 -6 461 -8 c 2
 346 -23 l 2xbc
 342 -23 340 -19 340 -14 c 0
 340 -12 341 18 341 22 c 0
 341 32 340 35 326 26 c 0
 292 5 249 -13 206 -13 c 0
 117 -13 30 37 30 181 c 0x7c
103 188 m 0
 103 95 147 24 255 24 c 0x7c
 281 24 342 39 342 57 c 2
 342 307 l 2
 342 320 297 359 245 359 c 0
 157 359 103 277 103 188 c 0
EndSplineSet
EndChar

StartChar: e
Encoding: 69 101 70
Width: 424
GlyphClass: 2
Flags: MW
HStem: -15 44<211.5 271.5> 230 17<102.5 119.5> 374 22<189 238>
VStem: 30 70<140.5 201 140.5 242> 314 69<254 279 233 304>
LayerCount: 2
Fore
SplineSet
30 182 m 0
 30 302 113 396 234 396 c 0
 333 396 383 321 383 237 c 0
 383 229 341 225 329 225 c 0
 318 225 113 230 105 230 c 0
 100 230 100 208 100 194 c 0
 100 87 174 29 249 29 c 0
 329 29 375 94 378 94 c 0
 381 94 394 82 394 79 c 0
 394 73 322 -15 221 -15 c 0
 98 -15 30 65 30 182 c 0
105 255 m 0
 105 249 109 247 117 247 c 0
 122 247 224 249 274 251 c 0
 311 252 314 253 314 255 c 0
 314 353 254 374 222 374 c 0
 156 374 109 305 105 255 c 0
EndSplineSet
EndChar

StartChar: f
Encoding: 70 102 71
Width: 306
GlyphClass: 2
Flags: MW
HStem: -2 27<47 63 227.5 237 237 243> 347 25<178 293> 656 22<189.5 236.5>
VStem: 90 71<172 232 232 251.5> 265 61
LayerCount: 2
Fore
SplineSet
35 12 m 0
 35 21 37 25 47 25 c 2
 87 25 l 2
 90 25 91 55 91 88 c 0
 91 123 90 161 90 172 c 2
 90 232 l 2
 90 271 90 346 88 346 c 2
 55 346 l 2
 44 346 41 347 41 359 c 0
 41 371 43 372 52 372 c 2
 79 372 l 2
 88 372 89 373 89 384 c 0
 89 433 87 428 87 481 c 0
 87 585 126 678 243 678 c 0
 282 678 326 652 326 611 c 0
 326 588 292 564 278 564 c 0
 269 564 266 565 265 573 c 0
 259 618 255 656 218 656 c 0
 161 656 159 553 159 492 c 0
 159 449 158 432 157 389 c 0
 157 374 158 372 178 372 c 2
 294 372 l 2
 298 372 301 370 301 367 c 0
 301 362 297 347 293 347 c 2
 178 347 l 2
 163 347 161 345 161 335 c 2
 161 169 l 2
 161 97 163 25 171 25 c 2
 237 25 l 2
 249 25 250 21 250 12 c 0
 250 3 250 -2 237 -2 c 0
 218 -2 160 0 131 0 c 0
 106 0 78 -2 48 -2 c 0
 35 -2 35 1 35 12 c 0
EndSplineSet
EndChar

StartChar: g
Encoding: 71 103 72
Width: 425
GlyphClass: 2
Flags: MW
HStem: -290 26<169 236.5 169 264.5> -51 51 370 25<176.5 235.5>
VStem: 15 45<-199 -138.5> 34 64<201 283 201 290> 48 27<24 25> 305 62<200.5 265 200.5 283.5> 363 57<-175 -119>
LayerCount: 2
Fore
SplineSet
15 -173 m 0xf1
 15 -104 104 -68 152 -58 c 0
 162 -56 175 -53 175 -52 c 0
 175 -51 169 -51 154 -51 c 2
 97 -51 l 2
 80 -51 63 -45 57 -32 c 0
 49 -13 48 5 48 16 c 0xe4
 48 34 53 45 66 48 c 0
 91 54 110 59 142 68 c 0
 152 71 180 78 180 80 c 0
 180 81 171 82 161 85 c 0
 90 106 34 151 34 246 c 0
 34 334 121 395 210 395 c 0
 287 395 329 344 332 344 c 0
 338 344 376 361 407 363 c 0
 410 363 416 347 416 335 c 0
 416 331 415 329 413 329 c 0
 401 328 354 319 354 315 c 0
 354 309 367 287 367 243 c 0xea
 367 158 323 118 252 91 c 0
 206 73 146 58 79 39 c 0
 76 38 75 34 75 30 c 0
 75 18 85 1 89 0 c 0
 216 -8 420 5 420 -124 c 0xe5
 420 -226 329 -290 200 -290 c 0
 117 -290 15 -253 15 -173 c 0xf1
60 -166 m 0
 60 -232 139 -264 199 -264 c 0
 274 -264 363 -236 363 -148 c 0
 363 -90 262 -68 189 -68 c 0
 141 -68 60 -100 60 -166 c 0
98 250 m 0
 98 152 182 95 207 95 c 0
 247 95 305 154 305 244 c 0xea
 305 323 266 370 205 370 c 0
 148 370 98 316 98 250 c 0
EndSplineSet
EndChar

StartChar: h
Encoding: 72 104 73
Width: 503
GlyphClass: 2
Flags: MW
HStem: -2 27<39 55 199.5 209 209 215 307 322 454.5 464 464 470> 344 41<281 297> 655 20G<158 164>
VStem: 81 85 89 69<308 310 308 322> 359 68<159 180>
LayerCount: 2
Fore
SplineSet
10 640 m 0xf4
 10 648 11 656 15 657 c 0
 61 663 155 675 161 675 c 0
 167 675 166 665 166 655 c 0xf4
 162 572 158 442 158 354 c 0
 158 337 159 339 169 345 c 0
 200 362 260 385 302 385 c 0
 414 385 427 288 427 180 c 2
 427 37 l 2
 427 26 428 25 438 25 c 2
 464 25 l 2
 476 25 478 21 478 12 c 0
 478 3 477 -2 464 -2 c 0
 445 -2 422 0 393 0 c 0
 368 0 337 -2 307 -2 c 0
 294 -2 294 1 294 12 c 0
 294 21 297 25 307 25 c 2
 346 25 l 2
 356 25 356 25 357 36 c 0
 358 56 359 106 359 212 c 0
 359 284 331 344 263 344 c 0
 223 344 194 333 174 323 c 0
 160 316 158 312 158 308 c 2
 159 158 l 2
 159 117 159 69 160 43 c 0
 161 25 161 25 171 25 c 2
 209 25 l 2
 221 25 222 21 222 12 c 0
 222 3 222 -2 209 -2 c 0
 190 -2 155 0 126 0 c 0
 101 0 70 -2 40 -2 c 0
 27 -2 27 1 27 12 c 0
 27 21 29 25 39 25 c 2
 78 25 l 2
 88 25 88 28 88 43 c 0
 89 137 89 191 89 263 c 0xec
 89 381 85 542 81 619 c 0
 80 632 81 636 75 636 c 0
 72 636 18 629 14 629 c 0
 10 629 10 635 10 640 c 0xf4
EndSplineSet
EndChar

StartChar: i
Encoding: 73 105 74
Width: 249
GlyphClass: 2
Flags: MW
HStem: -2 27<43 49.5 203.5 213 213 218> 353 30 512 96<125 132>
VStem: 77 102<551 571> 96 68<110 207>
LayerCount: 2
Fore
SplineSet
25 357 m 0xe8
 25 360 25 362 29 370 c 0
 33 378 32 377 44 378 c 0
 63 379 152 383 157 383 c 0
 163 383 164 382 164 377 c 2
 164 207 l 2
 164 150 164 94 167 37 c 0
 167 28 167 25 177 25 c 2
 213 25 l 2
 223 25 224 21 224 12 c 0
 224 3 224 -2 213 -2 c 0
 194 -2 154 0 129 0 c 0
 104 0 59 -2 40 -2 c 0
 29 -2 29 1 29 12 c 0
 29 21 30 25 43 25 c 2
 84 25 l 2
 95 25 95 27 95 37 c 0
 96 66 96 95 96 125 c 0
 96 195 95 266 92 339 c 0
 91 354 89 355 79 355 c 0
 76 355 33 353 29 353 c 0
 26 353 25 354 25 357 c 0xe8
77 553 m 0xf0
 77 589 113 608 137 608 c 0
 158 608 179 597 179 568 c 0
 179 534 146 512 118 512 c 0
 97 512 77 525 77 553 c 0xf0
EndSplineSet
EndChar

StartChar: j
Encoding: 74 106 75
Width: 292
GlyphClass: 2
Flags: MW
HStem: -275 73<17.5 56.5> 348 25 539 96<128 135>
VStem: 80 102<578 598> 130 72<-26.5 270> 139 63
LayerCount: 2
Fore
SplineSet
5 -255 m 0xe8
 5 -233 31 -202 46 -202 c 0
 67 -202 91 -206 101 -206 c 0
 129 -206 139 -189 139 -173 c 0xe4
 139 -134 130 -41 130 258 c 0
 130 282 130 307 128 334 c 0
 127 346 125 348 119 348 c 0
 112 348 58 345 49 345 c 0
 46 345 46 346 46 349 c 0
 46 352 48 359 50 364 c 0
 53 372 51 373 65 373 c 0
 116 374 185 378 190 378 c 0
 197 378 197 370 197 355 c 0
 198 266 202 155 202 27 c 0
 202 -80 195 -155 148 -216 c 0
 130 -239 53 -275 24 -275 c 0
 11 -275 5 -266 5 -255 c 0xe8
80 580 m 0xf0
 80 616 116 635 140 635 c 0
 161 635 182 624 182 595 c 0
 182 561 149 539 121 539 c 0
 100 539 80 552 80 580 c 0xf0
EndSplineSet
EndChar

StartChar: k
Encoding: 75 107 76
Width: 449
GlyphClass: 2
Flags: MW
HStem: -2 27<34 40.5 173.5 183 183 189 290 298 419 426 426 432> 193 16<154.5 187 165 174> 360 27<259.5 265 265 271 259.5 285 373.5 382> 644 37
VStem: 85 64<43 177 215 220>
LayerCount: 2
Fore
SplineSet
10 649 m 2
 10 658 l 2
 10 666 11 671 22 672 c 0
 60 675 147 681 153 681 c 0
 160 681 160 680 160 668 c 2
 149 220 l 2
 149 210 150 209 165 209 c 2
 187 209 l 2
 202 209 209 222 216 231 c 0
 244 268 272 306 295 344 c 0
 302 356 305 360 285 360 c 2
 265 360 l 2
 253 360 252 364 252 373 c 0
 252 382 253 387 266 387 c 0
 276 387 303 385 324 385 c 0
 343 385 366 387 381 387 c 0
 391 387 394 384 394 373 c 0
 394 364 392 360 382 360 c 2
 350 360 l 2
 342 360 261 260 243 237 c 0
 231 222 231 227 243 213 c 2
 394 38 l 2
 404 26 407 25 416 25 c 2
 426 25 l 2
 438 25 439 21 439 12 c 0
 439 3 439 -2 426 -2 c 0
 412 -2 384 0 359 0 c 0
 334 0 305 -2 291 -2 c 0
 278 -2 278 1 278 12 c 0
 278 21 280 25 290 25 c 2
 301 25 l 2
 316 25 311 34 306 40 c 2
 196 176 l 2
 184 191 184 193 174 193 c 2
 160 193 l 2
 149 193 149 189 149 177 c 2
 149 43 l 2
 149 25 150 25 160 25 c 2
 183 25 l 2
 195 25 196 21 196 12 c 0
 196 3 196 -2 183 -2 c 0
 164 -2 144 0 115 0 c 0
 82 0 46 -2 35 -2 c 0
 22 -2 22 1 22 12 c 0
 22 21 24 25 34 25 c 2
 75 25 l 2
 85 25 85 28 85 43 c 2
 85 236 l 2
 85 435 85 644 76 644 c 0
 70 644 30 641 20 641 c 0
 11 641 10 642 10 649 c 2
EndSplineSet
EndChar

StartChar: l
Encoding: 76 108 77
Width: 257
GlyphClass: 2
Flags: MW
HStem: -2 27<42 58 205.5 215 215 221> 646 32
VStem: 87 75 98 70<97.5 134.5>
LayerCount: 2
Fore
SplineSet
20 645 m 0xe0
 20 648 21 654 22 661 c 0
 24 669 23 668 32 669 c 0
 72 672 149 678 155 678 c 0
 162 678 162 675 162 663 c 0xe0
 163 356 168 265 168 64 c 0
 168 41 168 25 176 25 c 2
 215 25 l 2
 227 25 228 21 228 12 c 0
 228 3 228 -2 215 -2 c 0
 196 -2 165 0 136 0 c 0
 111 0 73 -2 43 -2 c 0
 30 -2 30 1 30 12 c 0
 30 21 32 25 42 25 c 2
 94 25 l 2
 98 25 98 85 98 110 c 0xd0
 98 159 95 538 87 627 c 0
 85 644 86 646 76 646 c 0
 71 646 32 642 28 642 c 0
 21 642 20 642 20 645 c 0xe0
EndSplineSet
EndChar

StartChar: m
Encoding: 77 109 78
Width: 739
GlyphClass: 2
Flags: MW
HStem: -2 27<39 48 190.5 200 200 206 298 316 437.5 447 447 453 541 554 690.5 700 700 706> 344 44<281.5 305.5>
VStem: 93 67<163 272 272 292.5> 344 66<98 144> 590 70<198 249.5>
LayerCount: 2
Fore
SplineSet
25 350 m 0
 25 352 27 362 29 368 c 0
 32 376 30 375 44 376 c 0
 85 378 139 381 144 381 c 0
 159 381 159 380 159 370 c 2
 159 342 l 2
 159 322 160 326 169 333 c 0
 199 354 253 388 310 388 c 0
 386 388 395 337 398 337 c 0
 400 337 404 339 411 344 c 0
 442 364 498 386 536 386 c 0
 633 386 660 326 660 240 c 0
 660 156 658 83 658 35 c 0
 658 28 660 25 668 25 c 2
 700 25 l 2
 712 25 714 21 714 12 c 0
 714 3 713 -2 700 -2 c 0
 681 -2 653 0 624 0 c 0
 599 0 569 -2 539 -2 c 0
 526 -2 526 1 526 12 c 0
 526 21 531 25 541 25 c 2
 581 25 l 2
 590 25 590 169 590 216 c 0
 590 283 574 344 501 344 c 0
 450 344 404 317 404 314 c 0
 404 306 410 296 410 236 c 2
 410 66 l 2
 410 42 410 25 413 25 c 2
 447 25 l 2
 459 25 461 21 461 12 c 0
 461 3 460 -2 447 -2 c 0
 428 -2 403 0 374 0 c 0
 349 0 331 -2 301 -2 c 0
 288 -2 286 1 286 12 c 0
 286 21 288 25 298 25 c 2
 337 25 l 2
 343 25 344 74 344 122 c 0
 344 166 343 209 343 216 c 0
 343 284 340 344 271 344 c 0
 221 344 187 326 171 314 c 0
 161 306 160 302 160 296 c 2
 160 68 l 2
 160 29 160 25 179 25 c 2
 200 25 l 2
 212 25 214 21 214 12 c 0
 214 3 213 -2 200 -2 c 0
 181 -2 149 0 124 0 c 0
 99 0 56 -2 40 -2 c 0
 32 -2 28 0 28 11 c 0
 28 20 29 25 39 25 c 2
 78 25 l 2
 87 25 89 38 91 57 c 0
 93 77 93 118 93 163 c 2
 93 272 l 2
 93 313 91 350 89 350 c 0
 86 350 35 347 30 347 c 0
 26 347 25 348 25 350 c 0
EndSplineSet
EndChar

StartChar: n
Encoding: 78 110 79
Width: 514
GlyphClass: 2
Flags: MW
HStem: -2 27<43 59 203.5 213 213 219 316 332 467.5 475 475 481> 342 42<275.5 310.5> 346 28
VStem: 95 68 303 131<5.5 44.5> 368 71<179.5 248>
LayerCount: 2
Fore
SplineSet
25 350 m 0xb4
 25 353 28 361 30 366 c 0
 33 374 31 373 45 374 c 0xb4
 59 375 122 379 150 381 c 0
 165 382 163 380 163 370 c 2
 163 328 l 2
 163 319 173 330 178 333 c 0
 208 352 245 384 306 384 c 0
 422 384 439 305 439 207 c 0xd4
 439 152 434 52 434 37 c 0
 434 26 435 25 445 25 c 2
 475 25 l 2
 487 25 489 24 489 12 c 0
 489 3 489 -2 477 -2 c 0
 458 -2 431 0 402 0 c 0
 377 0 347 -2 317 -2 c 0
 303 -2 303 0 303 11 c 0xd8
 303 23 306 25 316 25 c 2
 353 25 l 2
 363 25 363 25 364 36 c 0
 366 60 368 106 368 212 c 0
 368 284 349 342 272 342 c 0xd4
 232 342 203 324 183 314 c 0
 167 306 165 300 165 291 c 0
 165 209 164 126 164 44 c 0
 164 28 164 25 177 25 c 2
 213 25 l 2
 225 25 226 21 226 12 c 0
 226 3 226 -2 213 -2 c 0
 194 -2 161 0 132 0 c 0
 107 0 74 -2 44 -2 c 0
 31 -2 31 1 31 12 c 0
 31 21 33 25 43 25 c 2
 82 25 l 2
 92 25 91 28 92 43 c 0
 95 102 97 173 97 237 c 0
 97 271 97 305 95 336 c 0
 94 351 93 350 83 350 c 0
 80 350 32 346 28 346 c 0
 25 346 25 347 25 350 c 0xb4
EndSplineSet
EndChar

StartChar: o
Encoding: 79 111 80
Width: 446
GlyphClass: 2
Flags: MW
HStem: -15 26<180 269 180 281> 370 26<176 265>
VStem: 30 71<131.5 224 131.5 242> 343 73<159 243>
LayerCount: 2
Fore
SplineSet
30 183 m 0
 30 301 112 396 235 396 c 0
 344 396 416 307 416 197 c 0
 416 74 343 -15 219 -15 c 0
 112 -15 30 74 30 183 c 0
101 169 m 0
 101 94 141 11 219 11 c 0
 319 11 343 114 343 204 c 0
 343 282 307 370 223 370 c 0
 129 370 101 279 101 169 c 0
EndSplineSet
EndChar

StartChar: p
Encoding: 80 112 81
Width: 512
GlyphClass: 2
Flags: MW
HStem: -279 25 -9 19<257.5 312 249.5 333.5> 347 27<33 34 32.5 40.5> 348 35<285 312>
VStem: 111 67<2 7.5 40 48 48 52 52 155.5> 405 72<147 236>
LayerCount: 2
Fore
SplineSet
25 352 m 0xec
 25 356 31 374 34 374 c 0xec
 101 376 162 380 166 380 c 0
 174 380 177 380 177 366 c 2
 177 342 l 2
 177 335 177 332 179 332 c 0
 182 332 189 339 198 346 c 0
 221 363 264 383 306 383 c 0xdc
 421 383 477 300 477 194 c 0
 477 93 399 -9 268 -9 c 0
 247 -9 221 -4 202 2 c 0
 189 6 178 13 178 2 c 2
 181 -187 l 2
 182 -225 181 -254 187 -254 c 2
 257 -254 l 2
 269 -254 270 -258 270 -267 c 0
 270 -276 270 -281 257 -281 c 0
 238 -281 180 -279 151 -279 c 0
 126 -279 84 -281 54 -281 c 0
 41 -281 41 -278 41 -267 c 0
 41 -258 43 -254 53 -254 c 2
 108 -254 l 2
 111 -254 111 -173 111 -94 c 2
 111 48 l 2
 111 263 107 294 104 335 c 0
 103 349 102 349 88 349 c 0
 82 349 43 347 38 347 c 0
 28 347 25 346 25 352 c 0xec
178 52 m 2
 178 28 234 10 265 10 c 0
 359 10 405 107 405 187 c 0
 405 285 349 348 275 348 c 0xdc
 247 348 226 342 211 335 c 0
 179 319 178 306 178 302 c 2
 178 52 l 2
EndSplineSet
EndChar

StartChar: q
Encoding: 81 113 82
Width: 490
GlyphClass: 2
Flags: MW
HStem: -291 29 -280 29<412 425 425 452> -13 32<204 230> 354 27<190.5 267> 368 20G<390.5 403>
VStem: 35 71<150.5 230 150.5 238> 339 70<41 77>
LayerCount: 2
Fore
SplineSet
35 180 m 0xa6
 35 296 124 381 243 381 c 0xb6
 299 381 340 355 360 355 c 0
 378 355 383 388 398 388 c 0
 408 388 414 384 414 375 c 0
 410 256 409 168 409 77 c 2
 409 -88 l 2
 409 -167 409 -251 412 -251 c 2
 453 -251 l 2
 463 -251 465 -257 465 -266 c 0
 465 -277 465 -280 452 -280 c 2
 425 -280 l 2x6e
 338 -280 274 -291 269 -291 c 0
 256 -291 254 -288 254 -279 c 0
 254 -270 255 -263 267 -262 c 0
 335 -255 336 -262 336 -222 c 2
 338 1 l 2
 338 7 338 10 334 10 c 0
 331 10 326 8 319 6 c 0
 295 -1 251 -13 209 -13 c 0
 131 -13 35 39 35 180 c 0xa6
106 191 m 0
 106 110 158 19 250 19 c 0
 279 19 339 25 339 41 c 2
 339 291 l 2
 339 331 299 354 235 354 c 0
 146 354 106 269 106 191 c 0
EndSplineSet
EndChar

StartChar: r
Encoding: 82 114 83
Width: 329
GlyphClass: 2
Flags: MW
HStem: 0 25 341 53<197 277>
VStem: 99 60
LayerCount: 2
Fore
SplineSet
25 349 m 0
 25 352 26 356 28 361 c 0
 31 369 29 368 43 369 c 0
 57 370 141 372 148 372 c 0
 164 372 160 372 160 362 c 0
 160 343 159 321 159 302 c 0
 159 289 159 284 160 284 c 0
 162 284 165 300 169 309 c 0
 192 363 232 394 262 394 c 0
 292 394 319 363 319 351 c 0
 319 340 298 310 282 310 c 0
 259 310 242 341 222 341 c 0
 172 341 165 222 165 137 c 0
 165 84 165 25 177 25 c 2
 240 25 l 2
 252 25 253 21 253 12 c 0
 253 3 253 -2 240 -2 c 0
 221 -2 163 0 134 0 c 0
 109 0 78 -2 48 -2 c 0
 35 -2 35 1 35 12 c 0
 35 21 37 25 47 25 c 2
 90 25 l 2
 98 25 99 90 99 162 c 0
 99 250 95 347 92 347 c 0
 89 347 32 345 28 345 c 0
 25 345 25 346 25 349 c 0
EndSplineSet
EndChar

StartChar: s
Encoding: 83 115 84
Width: 337
GlyphClass: 2
Flags: MW
HStem: -12 23<153 194 153 198> 372 21<152.5 201.5>
VStem: 38 58<280.5 313.5> 243 59<69.5 99.5>
LayerCount: 2
Fore
SplineSet
35 50 m 0
 35 66 57 88 65 88 c 0
 71 88 72 75 84 61 c 0
 104 37 129 11 177 11 c 0
 211 11 243 31 243 76 c 0
 243 123 201 145 154 165 c 0
 99 189 38 209 38 280 c 0
 38 347 111 393 182 393 c 0
 258 393 286 349 286 326 c 0
 286 315 257 307 246 307 c 0
 223 307 234 372 169 372 c 0
 136 372 96 354 96 302 c 0
 96 259 136 242 178 222 c 0
 236 194 302 165 302 106 c 0
 302 33 235 -12 161 -12 c 0
 100 -12 35 19 35 50 c 0
EndSplineSet
EndChar

StartChar: t
Encoding: 84 116 85
Width: 289
GlyphClass: 2
Flags: MW
HStem: -9 47<167 168.5> 338 34<143.5 248 153 244>
VStem: 76 66<45 100>
LayerCount: 2
Fore
SplineSet
35 344 m 0
 35 347 36 350 38 352 c 2
 129 479 l 2
 131 482 134 484 138 484 c 0
 143 484 148 481 148 474 c 0
 148 471 142 398 142 382 c 0
 142 373 144 372 153 372 c 2
 248 372 l 2
 260 372 261 372 257 354 c 0
 254 341 251 338 244 338 c 2
 145 338 l 2
 142 338 142 320 142 292 c 2
 142 100 l 2
 142 69 144 38 190 38 c 0
 229 38 262 54 270 54 c 0
 273 54 274 45 274 38 c 0
 274 33 189 -9 148 -9 c 0
 91 -9 76 30 76 60 c 0
 77 132 78 247 78 276 c 0
 78 313 77 337 66 337 c 2
 41 337 l 2
 37 337 35 340 35 344 c 0
EndSplineSet
EndChar

StartChar: u
Encoding: 85 117 86
Width: 510
GlyphClass: 2
Flags: MW
HStem: -11 50<141.5 277> 0 26 355 25
VStem: 80 70<122 279 279 301> 352 68<55 110 54.5 173 54.5 188>
LayerCount: 2
Fore
SplineSet
15 360 m 0xb8
 15 363 16 366 18 371 c 0
 21 379 21 379 33 380 c 0
 55 381 138 384 143 384 c 0
 149 384 150 383 150 378 c 2
 150 106 l 2
 150 50 202 39 261 39 c 0xb8
 293 39 352 43 352 55 c 2
 352 173 l 2
 352 203 350 359 344 359 c 0
 341 359 296 357 292 357 c 0
 289 357 288 358 288 361 c 0
 290 376 288 380 301 381 c 0
 320 382 409 386 414 386 c 0
 420 386 421 385 421 380 c 2
 421 380 420 141 420 79 c 0
 420 30 423 20 439 20 c 0
 442 20 478 26 480 26 c 0
 484 26 485 22 485 16 c 0
 485 2 484 2 471 0 c 0x78
 437 -5 374 -15 367 -15 c 0
 361 -15 357 -13 356 -2 c 0
 355 13 355 36 352 36 c 0
 347 36 264 -11 189 -11 c 0
 94 -11 80 55 80 122 c 2
 80 279 l 2
 80 323 80 356 68 356 c 0
 65 356 23 355 19 355 c 0
 16 355 15 357 15 360 c 0xb8
EndSplineSet
EndChar

StartChar: v
Encoding: 86 118 87
Width: 461
GlyphClass: 2
Flags: MW
HStem: -25 21G<201.5 209.5> 355 27<32 38 38 47 181 191 310.5 316 316 321 417.5 424>
VStem: 352 84<322.5 373.5>
LayerCount: 2
Fore
SplineSet
25 368 m 0
 25 377 25 382 38 382 c 0
 57 382 76 380 105 380 c 0
 130 380 172 382 190 382 c 0
 203 382 203 379 203 368 c 0
 203 359 201 355 191 355 c 2
 161 355 l 2
 151 355 143 354 143 347 c 0
 143 343 208 152 237 84 c 0
 243 70 247 66 249 66 c 0
 252 66 254 72 258 82 c 0
 282 139 352 306 352 339 c 0
 352 349 349 355 342 355 c 2
 316 355 l 2
 304 355 303 359 303 368 c 0
 303 377 304 382 317 382 c 0
 325 382 354 380 374 380 c 0
 396 380 410 382 425 382 c 0
 435 382 436 379 436 368 c 0
 436 359 434 355 424 355 c 2
 408 355 l 2
 400 355 400 353 395 345 c 0
 373 305 313 146 268 52 c 0
 252 19 245 21 219 -18 c 0
 215 -23 211 -25 208 -25 c 0
 195 -25 185 20 178 41 c 0
 167 75 109 236 69 340 c 0
 63 355 62 355 47 355 c 2
 38 355 l 2
 26 355 25 359 25 368 c 0
EndSplineSet
EndChar

StartChar: w
Encoding: 87 119 88
Width: 697
GlyphClass: 2
Flags: MW
HStem: -25 21G<200.5 207.5 459.5 467.5> 355 27<32 38 38 47.5 31.5 49 181 191 290 296 296 306 426.5 440 546.5 552 552 557 657.5 660>
VStem: 345 61<320.5 350.5> 595 77<332 373.5>
LayerCount: 2
Fore
SplineSet
25 368 m 0
 25 377 25 382 38 382 c 0
 57 382 76 380 105 380 c 0
 130 380 172 382 190 382 c 0
 203 382 203 379 203 368 c 0
 203 359 201 355 191 355 c 2
 166 355 l 2
 156 355 148 354 148 347 c 0
 148 343 207 152 236 84 c 0
 241 73 243 68 245 68 c 0
 248 68 252 76 258 91 c 0
 277 139 317 237 338 297 c 0
 343 310 345 317 345 324 c 0
 345 330 344 332 340 340 c 0
 333 354 321 355 306 355 c 2
 296 355 l 2
 284 355 283 359 283 368 c 0
 283 377 283 382 296 382 c 0
 321 382 335 380 369 380 c 0
 395 380 414 382 439 382 c 0
 452 382 452 379 452 368 c 0
 452 359 450 355 440 355 c 2
 419 355 l 2
 409 355 406 354 406 347 c 0
 406 343 461 152 488 84 c 0
 494 70 498 61 500 61 c 0
 503 61 507 73 511 83 c 0
 533 135 595 320 595 344 c 0
 595 351 592 355 583 355 c 2
 552 355 l 2
 540 355 539 359 539 368 c 0
 539 377 540 382 553 382 c 0
 561 382 590 380 610 380 c 0
 632 380 654 382 661 382 c 0
 671 382 672 379 672 368 c 0
 672 359 670 355 660 355 c 2
 654 355 l 2
 646 355 644 353 640 345 c 0
 618 303 568 146 523 52 c 0
 507 19 500 22 477 -18 c 0
 474 -24 469 -25 466 -25 c 0
 453 -25 442 20 436 41 c 0
 429 67 398 171 367 265 c 0
 363 277 361 283 359 283 c 0
 357 283 354 277 350 265 c 0
 325 199 295 113 266 53 c 0
 250 20 241 24 218 -18 c 0
 215 -24 209 -25 206 -25 c 0
 195 -25 181 20 175 41 c 0
 165 75 110 226 71 340 c 0
 66 355 63 355 49 355 c 2
 38 355 l 2
 26 355 25 359 25 368 c 0
EndSplineSet
EndChar

StartChar: x
Encoding: 88 120 89
Width: 468
GlyphClass: 2
Flags: MW
HStem: -2 27<32.5 45.5 147.5 157 157 163 290 300 418.5 428 428 434> 355 27<52 58 58 67.5 51.5 74 188.5 201 316.5 322 322 332.5 422.5 435>
LayerCount: 2
Fore
SplineSet
25 12 m 0
 25 21 27 25 37 25 c 0
 56 25 59 28 84 54 c 2
 204 177 l 2
 214 187 214 187 207 196 c 2
 100 340 l 2
 89 355 89 355 74 355 c 2
 58 355 l 2
 46 355 45 359 45 368 c 0
 45 377 45 382 58 382 c 0
 77 382 108 380 137 380 c 0
 162 380 177 382 195 382 c 0
 208 382 208 379 208 368 c 0
 208 359 206 355 196 355 c 0
 181 355 176 353 176 349 c 0
 176 345 181 338 186 331 c 2
 249 239 l 2
 260 223 257 226 270 239 c 0
 291 262 334 309 355 337 c 0
 358 342 361 345 361 348 c 0
 361 352 355 355 335 355 c 2
 322 355 l 2
 310 355 309 359 309 368 c 0
 309 377 310 382 323 382 c 0
 342 382 357 380 377 380 c 0
 399 380 415 382 430 382 c 0
 440 382 443 379 443 368 c 0
 443 359 441 355 431 355 c 0
 412 355 402 340 387 326 c 0
 347 289 303 243 282 222 c 0
 275 215 272 213 272 210 c 0
 272 207 276 203 282 195 c 0
 307 160 371 72 398 38 c 0
 407 26 407 25 416 25 c 2
 428 25 l 2
 440 25 441 21 441 12 c 0
 441 3 441 -2 428 -2 c 0
 409 -2 388 0 359 0 c 0
 334 0 309 -2 291 -2 c 0
 278 -2 278 1 278 12 c 0
 278 21 280 25 290 25 c 2
 301 25 l 2
 316 25 321 26 321 33 c 0
 321 36 310 51 300 66 c 0
 280 98 250 139 235 159 c 0
 226 171 225 172 215 160 c 0
 194 135 144 79 121 47 c 0
 116 40 111 35 111 31 c 0
 111 27 116 25 129 25 c 2
 157 25 l 2
 169 25 170 21 170 12 c 0
 170 3 170 -2 157 -2 c 0
 138 -2 123 0 94 0 c 0
 69 0 53 -2 38 -2 c 0
 27 -2 25 1 25 12 c 0
EndSplineSet
EndChar

StartChar: y
Encoding: 89 121 90
Width: 467
GlyphClass: 2
Flags: MW
HStem: -295 21G<56 66> 355 27<32 38 38 47.5 31.5 49 191 201 303.5 309 309 319.5 421.5 430>
LayerCount: 2
Fore
SplineSet
25 368 m 0
 25 377 25 382 38 382 c 0
 57 382 83 380 112 380 c 0
 137 380 182 382 200 382 c 0
 213 382 213 379 213 368 c 0
 213 359 211 355 201 355 c 2
 182 355 l 2
 169 355 156 354 156 345 c 0
 156 327 214 172 245 96 c 0
 256 69 262 56 264 56 c 0
 266 56 272 70 281 96 c 0
 309 175 363 335 363 348 c 0
 363 355 355 355 332 355 c 2
 309 355 l 2
 297 355 296 359 296 368 c 0
 296 377 297 382 310 382 c 0
 329 382 354 380 374 380 c 0
 396 380 414 382 429 382 c 0
 439 382 442 379 442 368 c 0
 442 359 440 355 430 355 c 2
 416 355 l 2
 408 355 406 354 403 345 c 0
 387 301 278 23 270 3 c 0
 267 -4 249 -59 230 -114 c 0
 212 -165 209 -181 166 -234 c 0
 151 -253 150 -257 125 -269 c 0
 100 -281 69 -295 63 -295 c 0
 49 -295 45 -284 45 -275 c 0
 45 -263 54 -247 64 -233 c 0
 70 -224 83 -218 92 -215 c 0
 118 -205 171 -193 182 -164 c 0
 199 -122 226 -55 226 -43 c 0
 226 -26 111 240 70 340 c 0
 64 355 64 355 49 355 c 2
 38 355 l 2
 26 355 25 359 25 368 c 0
EndSplineSet
EndChar

StartChar: z
Encoding: 90 122 91
Width: 388
GlyphClass: 2
Flags: MW
HStem: 0 27<139.5 145 139.5 347> 361 28<97 97>
VStem: 266 92<361.5 383> 342 26<102 110>
LayerCount: 2
Fore
SplineSet
30 10 m 0xd0
 30 15 34 22 40 30 c 2
 254 345 l 2
 259 353 266 360 266 363 c 0
 266 365 261 366 252 366 c 2
 97 361 l 2
 75 360 74 360 70 342 c 2
 60 302 l 2
 58 295 58 290 47 290 c 0
 38 290 31 292 31 296 c 0
 31 299 37 350 40 376 c 0
 41 388 42 389 54 389 c 2
 335 389 l 2
 351 389 358 386 358 380 c 0xe0
 358 376 354 373 349 365 c 2
 139 55 l 2
 135 49 130 42 130 37 c 0
 130 33 134 27 145 27 c 2
 319 31 l 2
 333 31 333 31 335 44 c 2
 342 102 l 2
 344 115 344 114 359 114 c 0
 367 114 368 112 368 108 c 0
 368 101 365 44 363 15 c 0
 362 1 362 0 347 0 c 2
 52 0 l 2
 38 0 30 0 30 10 c 0xd0
EndSplineSet
EndChar

StartChar: braceleft
Encoding: 91 123 92
Width: 307
GlyphClass: 2
Flags: MW
HStem: -141 26<227 258 227 260> 663 26<227 258>
VStem: 40 56<272.5 275.5 272.5 288.5> 117 52<52 126 416 422 422 496 496 562.5>
LayerCount: 2
Fore
SplineSet
40 274 m 0
 40 303 117 251 117 416 c 2
 117 496 l 2
 117 629 118 689 255 689 c 0
 265 689 267 688 267 676 c 0
 267 663 263 663 253 663 c 0
 201 663 169 648 169 571 c 2
 169 422 l 2
 169 335 166 299 111 281 c 0
 101 277 96 277 96 274 c 0
 96 271 101 271 111 267 c 0
 166 249 169 213 169 126 c 2
 169 -23 l 2
 169 -100 201 -115 253 -115 c 0
 263 -115 267 -115 267 -128 c 0
 267 -140 265 -141 255 -141 c 0
 118 -141 117 -81 117 52 c 2
 117 132 l 2
 117 297 40 245 40 274 c 0
EndSplineSet
EndChar

StartChar: bar
Encoding: 92 124 93
Width: 247
GlyphClass: 2
Flags: MW
VStem: 100 47<-187 745>
LayerCount: 2
Fore
SplineSet
100 -187 m 2
 100 746 l 2
 100 761 106 762 118 762 c 2
 125 762 l 2
 144 762 147 762 147 745 c 2
 147 -187 l 2
 147 -202 147 -209 135 -209 c 2
 114 -209 l 2
 100 -209 100 -208 100 -187 c 2
EndSplineSet
EndChar

StartChar: braceright
Encoding: 93 125 94
Width: 307
GlyphClass: 2
Flags: MW
HStem: -141 26<49 80 49 120.5> 663 26<49 80>
VStem: 138 52<-14.5 52 52 126 126 132 422 496> 211 56<272.5 275.5>
LayerCount: 2
Fore
SplineSet
40 -128 m 0
 40 -115 44 -115 54 -115 c 0
 106 -115 138 -100 138 -23 c 2
 138 126 l 2
 138 213 141 249 196 267 c 0
 206 271 211 271 211 274 c 0
 211 277 206 277 196 281 c 0
 141 299 138 335 138 422 c 2
 138 571 l 2
 138 648 106 663 54 663 c 0
 44 663 40 663 40 676 c 0
 40 688 42 689 52 689 c 0
 189 689 190 629 190 496 c 2
 190 416 l 2
 190 251 267 303 267 274 c 0
 267 245 190 297 190 132 c 2
 190 52 l 2
 190 -81 189 -141 52 -141 c 0
 42 -141 40 -140 40 -128 c 0
EndSplineSet
EndChar

StartChar: asciitilde
Encoding: 94 126 95
Width: 793
GlyphClass: 2
Flags: MW
HStem: 110 42<539 619> 248 48<167.5 244>
LayerCount: 2
Fore
SplineSet
45 117 m 0
 45 119 47 128 49 134 c 0
 62 181 107 296 228 296 c 0
 371 296 481 152 597 152 c 0
 672 152 708 257 717 287 c 0
 720 298 721 296 732 294 c 0
 740 292 743 292 743 287 c 0
 743 286 743 284 742 281 c 0
 726 217 676 110 562 110 c 0
 414 110 304 248 184 248 c 0
 108 248 80 157 72 122 c 0
 69 112 69 108 65 108 c 0
 63 108 59 109 55 110 c 0
 47 112 45 111 45 117 c 0
EndSplineSet
EndChar

StartChar: exclamdown
Encoding: 96 161 97
Width: 261
GlyphClass: 2
Flags: MW
HStem: -8 21G<111.5 136> 568 105<128 136 117 145>
VStem: 80 101<616.5 630.5> 92 72<7 19> 118 27<483 486.5>
LayerCount: 2
Fore
SplineSet
80 615 m 0xe0
 80 646 112 673 122 673 c 0
 150 673 181 642 181 627 c 0
 181 606 153 568 137 568 c 0
 119 568 80 590 80 615 c 0xe0
92 13 m 0xd0
 92 25 106 219 118 483 c 0
 118 490 125 493 132 493 c 0
 138 493 145 490 145 483 c 0xc8
 151 260 164 71 164 17 c 0
 164 -3 149 -8 123 -8 c 0
 100 -8 92 -5 92 13 c 0xd0
EndSplineSet
EndChar

StartChar: cent
Encoding: 97 162 98
Width: 407
GlyphClass: 2
Flags: MW
HStem: -10 44<212.5 283.5 215 283.5>
VStem: 30 65<170.5 238 170.5 245> 223 28 229 15 312 57
LayerCount: 2
Fore
SplineSet
30 177 m 0xd8
 30 313 122 386 212 397 c 0
 223 398 222 400 223 411 c 0xe8
 226 448 228 476 229 487 c 0xd8
 229 491 230 493 231 493 c 0
 233 493 251 493 251 490 c 2xe8
 244 411 l 1
 244 405 l 2
 244 399 246 400 256 398 c 0
 314 389 369 349 369 303 c 0
 369 295 367 289 359 283 c 0
 350 276 338 270 329 270 c 0
 321 270 315 272 312 281 c 0
 298 320 294 360 252 370 c 0
 250 371 248 371 247 371 c 0
 242 371 241 367 240 360 c 2
 214 48 l 2
 214 41 213 38 220 37 c 0
 229 35 239 34 249 34 c 0
 318 34 362 64 370 64 c 0
 374 64 377 62 377 56 c 0
 377 50 318 -10 219 -10 c 2
 215 -10 l 2
 210 -10 208 -11 207 -18 c 0
 201 -85 197 -130 196 -130 c 0
 193 -130 178 -130 178 -128 c 0
 178 -125 182 -81 187 -18 c 0
 187 -6 186 -8 175 -6 c 0
 84 10 30 79 30 177 c 0xd8
95 202 m 0
 95 139 124 76 182 48 c 0
 186 46 188 45 190 45 c 0
 192 45 193 46 193 52 c 2
 218 360 l 1
 218 366 l 2
 218 369 218 371 215 371 c 0
 213 371 211 371 207 370 c 0
 136 355 95 274 95 202 c 0
EndSplineSet
EndChar

StartChar: sterling
Encoding: 98 163 99
Width: 510
GlyphClass: 2
Flags: MW
HStem: -8 44<377 400> 6 24<143 143.5 143 149.5> 248 24<55 56 56 105 105 107 200 321> 642 23<237.5 301>
VStem: 40 81 114 68<444.5 460> 121 61<281.5 285.5> 340 56<551 612> 451 34<71.5 83>
LayerCount: 2
Fore
SplineSet
40 -56 m 0x7980
 40 -33 78 -18 108 4 c 0
 121 13 121 12 122 23 c 0
 124 58 126 90 126 128 c 0
 126 162 125 196 123 232 c 0
 122 248 122 248 107 248 c 2
 56 248 l 2
 49 248 47 249 47 261 c 0
 47 271 49 272 55 272 c 2
 105 272 l 2
 119 272 121 273 121 281 c 0x7380
 121 290 114 389 114 500 c 0
 114 601 194 665 281 665 c 0
 341 665 396 637 396 587 c 0
 396 565 379 546 356 546 c 0
 349 546 340 548 340 554 c 0
 340 588 328 642 274 642 c 0
 187 642 182 554 182 460 c 2
 182 290 l 2x7580
 182 273 184 272 200 272 c 2
 321 272 l 2
 328 272 330 271 330 260 c 0
 330 249 329 248 321 248 c 2
 200 248 l 2
 184 248 183 248 182 232 c 0
 178 144 157 70 147 42 c 0
 144 35 143 31 143 30 c 1x7380
 144 30 147 33 154 36 c 0
 169 43 197 53 230 53 c 0
 282 53 355 36 399 36 c 0
 428 36 451 43 451 73 c 0
 451 93 408 114 408 124 c 0
 408 132 424 156 440 156 c 0
 457 156 485 132 485 101 c 0
 485 42 427 -8 373 -8 c 0xb380
 318 -8 159 6 140 6 c 0
 129 6 127 -2 121 -18 c 0x7380
 112 -44 103 -80 68 -80 c 0
 55 -80 40 -73 40 -56 c 0x7980
EndSplineSet
EndChar

StartChar: currency
Encoding: 99 164 100
Width: 494
GlyphClass: 2
Flags: MW
HStem: -16 20G 26 50<224.5 264> 332 47<224.5 265 224.5 278.5> 402 20G<43 54.5 432 446>
VStem: 68 51<184 223.5> 370 52<182.5 222 182.5 237.5>
LayerCount: 2
Fore
SplineSet
25 8 m 0
 25 19 34 27 42 35 c 2
 103 97 l 1
 81 127 68 164 68 204 c 0
 68 243 80 280 102 309 c 1
 42 371 l 2
 40 373 25 384 25 398 c 0
 25 412 37 422 49 422 c 0
 60 422 69 414 77 406 c 2
 139 344 l 1
 168 366 205 379 244 379 c 0
 286 379 322 365 350 344 c 1
 412 406 l 2
 414 408 425 422 439 422 c 0
 453 422 464 410 464 398 c 0
 464 387 455 379 447 371 c 2
 385 308 l 1
 407 278 422 242 422 202 c 0
 422 163 407 127 385 98 c 1
 447 35 l 2
 449 33 464 22 464 8 c 0
 464 -6 451 -17 439 -17 c 0
 428 -17 420 -8 412 0 c 2
 350 62 l 1
 321 40 284 26 244 26 c 0
 205 26 168 39 139 61 c 1
 77 0 l 2
 75 -2 63 -16 49 -16 c 0
 35 -16 25 -4 25 8 c 0
119 202 m 0
 119 131 176 76 244 76 c 0
 312 76 370 133 370 203 c 0
 370 272 313 332 244 332 c 0
 174 332 119 272 119 202 c 0
EndSplineSet
EndChar

StartChar: yen
Encoding: 100 165 101
Width: 597
GlyphClass: 2
Flags: MW
HStem: 0 27 223 24<85.5 263 87 263 348 528> 345 24<85.5 215 87 215 87 228 378 528> 639 30<22 28 28 36 21.5 57 234.5 242 413 421 421 428.5 563 571>
VStem: 263 85<167.5 223 247 271 271 277>
LayerCount: 2
Fore
SplineSet
10 654 m 0
 10 669 15 669 28 669 c 0
 44 669 101 666 131 666 c 0
 161 666 223 669 246 669 c 0
 259 669 260 668 260 651 c 0
 260 639 258 639 242 639 c 2
 183 639 l 2
 168 639 169 638 175 624 c 0
 196 573 288 407 317 351 c 0
 322 341 325 334 328 334 c 0
 331 334 334 339 339 348 c 0
 374 416 479 610 479 636 c 0
 479 638 478 639 477 639 c 2
 421 639 l 2
 405 639 403 639 403 651 c 0
 403 668 404 669 417 669 c 0
 440 669 465 666 495 666 c 0
 525 666 555 669 571 669 c 0
 584 669 587 669 587 654 c 0
 587 639 583 639 571 639 c 2
 535 639 l 2
 531 639 436 467 378 369 c 1
 528 369 l 2
 532 369 532 345 528 345 c 2
 364 345 l 1
 351 324 l 2
 348 319 348 316 348 313 c 2
 348 247 l 1
 528 247 l 2
 532 247 532 223 528 223 c 2
 348 223 l 1
 349 123 351 27 358 27 c 2
 429 27 l 2
 440 27 440 26 440 14 c 0
 440 -1 439 -3 429 -3 c 0
 406 -3 339 0 309 0 c 0
 279 0 220 -3 197 -3 c 0
 184 -3 183 -2 183 15 c 0
 183 27 185 27 201 27 c 2
 253 27 l 2
 261 27 263 112 263 223 c 1
 87 223 l 2
 84 223 83 247 87 247 c 2
 263 247 l 1
 263 271 l 2
 263 283 260 287 256 294 c 2
 228 345 l 1
 87 345 l 2
 84 345 83 369 87 369 c 2
 215 369 l 1
 156 475 63 639 57 639 c 2
 28 639 l 2
 16 639 10 639 10 654 c 0
EndSplineSet
EndChar

StartChar: brokenbar
Encoding: 101 166 102
Width: 247
GlyphClass: 2
Flags: MW
VStem: 100 47<-187 189 379 745>
LayerCount: 2
Fore
SplineSet
100 -187 m 2
 100 189 l 2
 100 201 104 203 111 203 c 2
 136 203 l 2
 143 203 147 201 147 189 c 2
 147 -187 l 2
 147 -202 147 -209 135 -209 c 2
 114 -209 l 2
 100 -209 100 -208 100 -187 c 2
100 379 m 2
 100 746 l 2
 100 761 106 762 118 762 c 2
 125 762 l 2
 144 762 147 762 147 745 c 2
 147 379 l 2
 147 362 144 360 133 360 c 2
 115 360 l 2
 102 360 100 361 100 379 c 2
EndSplineSet
EndChar

StartChar: section
Encoding: 102 167 103
Width: 381
GlyphClass: 2
Flags: MW
HStem: -226 42<194 214> 636 41<149.5 178>
VStem: 40 38<320 340.5> 63 35<550 590> 280 34<-138.5 -93> 302 39<112.5 145.5>
LayerCount: 2
Fore
SplineSet
40 310 m 0xe8
 40 371 90 414 109 428 c 0
 116 433 112 439 107 446 c 0
 89 474 63 514 63 556 c 0
 63 624 111 677 188 677 c 0
 232 677 302 666 302 632 c 0
 302 611 285 605 265 605 c 0
 221 605 200 636 156 636 c 0
 131 636 98 633 98 594 c 0
 98 506 341 314 341 132 c 0xd4
 341 93 297 55 275 38 c 0
 268 32 265 29 265 26 c 0
 265 23 268 19 272 12 c 0
 287 -15 314 -69 314 -102 c 0
 314 -175 260 -226 168 -226 c 0
 124 -226 65 -221 65 -182 c 0
 65 -169 78 -159 93 -159 c 0
 109 -159 122 -167 136 -172 c 0
 150 -177 180 -184 208 -184 c 0
 247 -184 280 -169 280 -132 c 0
 280 -54 40 153 40 310 c 0xe8
78 357 m 0xe4
 78 283 209 100 245 52 c 0
 250 45 252 42 255 42 c 0
 258 42 261 45 269 52 c 0
 283 65 302 85 302 102 c 0
 302 189 164 365 131 411 c 0
 124 420 126 423 113 413 c 0
 100 403 78 383 78 357 c 0xe4
EndSplineSet
EndChar

StartChar: dieresis
Encoding: 103 168 104
Width: 400
GlyphClass: 2
Flags: MW
HStem: 492 96<117 124 277 284>
VStem: 69 102<531 551> 229 102<531 551>
LayerCount: 2
Fore
SplineSet
69 533 m 0
 69 569 105 588 129 588 c 0
 150 588 171 577 171 548 c 0
 171 514 138 492 110 492 c 0
 89 492 69 505 69 533 c 0
229 533 m 0
 229 569 265 588 289 588 c 0
 310 588 331 577 331 548 c 0
 331 514 298 492 270 492 c 0
 249 492 229 505 229 533 c 0
EndSplineSet
EndChar

StartChar: copyright
Encoding: 104 169 105
Width: 843
GlyphClass: 2
Flags: MW
HStem: -183 32<326 514 326 523.5> -27 30<389.5 477.5> 383 20G<578 588> 401 20<373.5 462.5> 529 32<326 514>
VStem: 54 34<95 283 95 292.5> 196 65<145 257 145 268> 568 27<388 394 394 397.5> 752 34<95 283>
LayerCount: 2
Fore
SplineSet
54 189 m 0xcf80
 54 396 213 561 420 561 c 0
 627 561 786 398 786 189 c 0
 786 -18 627 -183 420 -183 c 0
 213 -183 54 -18 54 189 c 0xcf80
88 189 m 0
 88 1 232 -151 420 -151 c 0
 608 -151 752 1 752 189 c 0
 752 377 608 529 420 529 c 0
 232 529 88 377 88 189 c 0
196 201 m 0
 196 335 296 421 425 421 c 0xdf80
 501 421 544 384 557 375 c 0
 563 371 568 366 568 377 c 2
 568 394 l 2
 568 401 573 403 583 403 c 0xef80
 593 403 595 402 595 394 c 0
 595 382 593 304 593 271 c 0
 593 263 591 261 583 261 c 0
 571 261 565 262 565 268 c 0
 565 271 568 318 568 324 c 0
 568 333 505 401 420 401 c 0xdf80
 327 401 261 315 261 199 c 0
 261 91 340 3 439 3 c 0
 536 3 576 53 580 53 c 0
 581 53 592 36 592 34 c 0
 592 28 534 -27 421 -27 c 0
 303 -27 196 47 196 201 c 0
EndSplineSet
EndChar

StartChar: ordfeminine
Encoding: 105 170 106
Width: 352
GlyphClass: 2
Flags: MW
HStem: 335 46<250 301.5> 649 23<155 193>
VStem: 35 63<418.5 443.5> 48 61<590.5 593 590.5 600> 228 59<399 599.5 503 599.5 547.5 567.5>
LayerCount: 2
Fore
SplineSet
35 407 m 0xe8
 35 480 140 514 222 528 c 0
 229 529 228 534 228 540 c 0
 228 595 227 649 159 649 c 0
 151 649 143 648 135 645 c 0
 113 636 110 624 109 593 c 0
 109 588 108 579 103 576 c 0
 89 567 60 555 56 555 c 0
 52 555 48 558 48 567 c 0xd8
 48 633 122 672 177 672 c 0
 262 672 287 631 287 568 c 0
 287 527 282 423 282 405 c 0
 282 398 285 381 300 381 c 0
 303 381 329 400 331 400 c 0
 334 400 341 392 341 387 c 0
 341 384 305 357 287 344 c 0
 281 340 273 335 265 335 c 0
 235 335 233 385 231 385 c 0
 229 385 221 378 214 374 c 0
 197 363 153 338 118 338 c 0
 66 338 35 365 35 407 c 0xe8
98 431 m 0xe8
 98 406 117 377 151 377 c 0
 186 377 228 395 228 399 c 2
 228 503 l 2
 228 508 228 512 224 512 c 0
 222 512 197 507 174 500 c 0
 136 488 98 468 98 431 c 0xe8
EndSplineSet
EndChar

StartChar: guillemotleft
Encoding: 106 171 107
Width: 408
GlyphClass: 2
Flags: MW
HStem: 62 262<183.5 185 333.5 335>
VStem: 50 86<190.5 195.5> 200 86<190.5 195.5>
LayerCount: 2
Fore
SplineSet
50 193 m 0
 50 198 76 221 105 248 c 0
 143 283 183 324 184 324 c 0
 186 324 198 314 198 312 c 0
 198 304 136 205 136 193 c 0
 136 181 198 82 198 74 c 0
 198 72 186 62 184 62 c 0
 183 62 143 103 105 138 c 0
 76 165 50 188 50 193 c 0
200 193 m 0
 200 198 226 221 255 248 c 0
 293 283 333 324 334 324 c 0
 336 324 348 314 348 312 c 0
 348 304 286 205 286 193 c 0
 286 181 348 82 348 74 c 0
 348 72 336 62 334 62 c 0
 333 62 293 103 255 138 c 0
 226 165 200 188 200 193 c 0
EndSplineSet
EndChar

StartChar: logicalnot
Encoding: 107 172 108
Width: 527
GlyphClass: 2
Flags: MW
HStem: 188 44<40.5 477 50 426>
VStem: 452 45<60 171 171 178>
LayerCount: 2
Fore
SplineSet
31 215 m 0
 31 232 41 232 50 232 c 2
 477 232 l 2
 494 232 497 230 497 213 c 2
 497 55 l 2
 497 45 494 40 481 40 c 0
 462 40 452 40 452 60 c 2
 452 171 l 2
 452 185 442 188 426 188 c 2
 50 188 l 2
 31 188 31 196 31 215 c 0
EndSplineSet
EndChar

StartChar: uni00AD
Encoding: 108 173 109
Width: 258
GlyphClass: 2
Flags: MW
HStem: 198 43 206 42<220 227>
VStem: 25 203<200 241.5>
LayerCount: 2
Fore
SplineSet
25 201 m 0xa0
 25 216 34 240 43 241 c 0xa0
 52 242 220 248 226 248 c 0
 228 248 228 244 228 239 c 0
 228 227 224 206 220 206 c 0x60
 207 205 42 198 29 198 c 0
 26 198 25 199 25 201 c 0xa0
EndSplineSet
EndChar

StartChar: registered
Encoding: 109 174 110
Width: 536
GlyphClass: 2
Flags: MW
HStem: 223 23<206 330 206 337> 328 18<161 161.5 248 253 253 256 402.5 412 412 413> 472 15<225 236> 623 16<266 268> 694 23<206 330>
VStem: 25 25<408 532 408 539> 182 40<456 464 464 470.5 488 489 489 495> 329 43<536.5 575> 343 45 486 25<408 532>
LayerCount: 2
Fore
SplineSet
25 470 m 0xfe40
 25 608 130 717 268 717 c 0
 406 717 511 609 511 470 c 0
 511 332 406 223 268 223 c 0
 130 223 25 332 25 470 c 0xfe40
50 470 m 0
 50 346 144 246 268 246 c 0
 392 246 486 346 486 470 c 0
 486 594 392 694 268 694 c 0
 144 694 50 594 50 470 c 0
142 628 m 0
 142 637 147 637 153 637 c 0
 161 637 191 636 204 636 c 0
 217 636 261 639 271 639 c 0
 317 639 372 625 372 559 c 0xff40
 372 514 328 490 308 481 c 1
 338 472 385 451 388 374 c 0
 389 346 390 346 392 346 c 2
 412 346 l 2
 418 346 420 344 420 334 c 0
 420 329 416 328 410 328 c 0
 395 328 350 329 350 329 c 2
 346 329 343 331 343 336 c 2
 343 363 l 2xfec0
 343 414 339 463 279 470 c 0
 264 472 245 472 227 472 c 0
 223 472 222 472 222 469 c 0
 222 443 224 358 226 346 c 1
 253 346 l 2
 259 346 260 345 260 339 c 0
 260 332 259 328 253 328 c 0
 243 328 216 329 203 329 c 0
 190 329 164 328 159 328 c 0
 152 328 150 330 150 339 c 0
 150 346 153 346 161 346 c 2
 180 346 l 1
 181 354 182 377 182 404 c 2
 182 464 l 2
 182 526 181 608 177 619 c 1
 153 618 l 2
 147 618 142 619 142 628 c 0
222 489 m 2
 222 487 222 487 227 487 c 0
 249 487 273 486 290 486 c 1
 311 496 329 516 329 553 c 0
 329 597 289 623 247 623 c 0
 239 623 232 622 224 622 c 1
 223 618 222 609 222 599 c 2
 222 489 l 2
EndSplineSet
EndChar

StartChar: macron
Encoding: 110 175 111
Width: 400
GlyphClass: 2
Flags: MW
HStem: 509 40<102.5 294 107 294>
VStem: 98 204<518 541 541 542 513 545>
LayerCount: 2
Fore
SplineSet
98 518 m 2
 98 541 l 2
 98 549 99 549 107 549 c 2
 294 549 l 2
 301 549 302 549 302 542 c 2
 302 517 l 2
 302 509 302 509 294 509 c 2
 107 509 l 2
 98 509 98 509 98 518 c 2
EndSplineSet
EndChar

StartChar: degree
Encoding: 111 176 112
Width: 256
GlyphClass: 2
Flags: MW
HStem: 447 31<112 144 112 152> 592 31<112 144>
VStem: 40 31<519 551 519 559> 185 31<519 551>
LayerCount: 2
Fore
SplineSet
40 535 m 0
 40 583 80 623 128 623 c 0
 176 623 216 583 216 535 c 0
 216 487 176 447 128 447 c 0
 80 447 40 487 40 535 c 0
71 535 m 0
 71 503 96 478 128 478 c 0
 160 478 185 503 185 535 c 0
 185 567 160 592 128 592 c 0
 96 592 71 567 71 535 c 0
EndSplineSet
EndChar

StartChar: plusminus
Encoding: 112 177 113
Width: 527
GlyphClass: 2
Flags: MW
HStem: 73 44<42.5 478 49 475> 301 45<39.5 230 49 225 297 475>
VStem: 241 44<152 284 356 357 357 365 365 493>
LayerCount: 2
Fore
SplineSet
31 90 m 0
 31 108 31 117 49 117 c 2
 478 117 l 2
 493 117 496 112 496 97 c 0
 496 82 495 73 475 73 c 2
 48 73 l 2
 37 73 31 75 31 90 c 0
31 324 m 0
 31 336 34 346 49 346 c 2
 230 346 l 2
 239 346 241 350 241 356 c 2
 241 365 l 1
 241 495 l 2
 241 506 248 510 257 510 c 0
 281 510 285 507 285 493 c 2
 285 365 l 1
 285 357 l 2
 285 351 287 346 297 346 c 2
 480 346 l 2
 489 346 496 344 496 331 c 0
 496 311 496 301 475 301 c 2
 297 301 l 2
 287 301 285 294 285 284 c 2
 285 152 l 2
 285 139 279 138 269 138 c 0
 248 138 241 139 241 152 c 2
 241 284 l 2
 241 297 240 301 225 301 c 2
 48 301 l 2
 31 301 31 309 31 324 c 0
EndSplineSet
EndChar

StartChar: uni00B2
Encoding: 113 178 114
Width: 360
GlyphClass: 2
Flags: MW
HStem: 350 50<59 290 105 290 105 293> 719 42<134.5 184.5>
VStem: 234 55<595 656.5> 297 21<452 453.5 450 454.5>
LayerCount: 2
Fore
SplineSet
40 671 m 0
 40 682 96 761 173 761 c 0
 256 761 289 691 289 644 c 0
 289 546 170 455 129 425 c 0
 121 419 108 406 105 400 c 1
 290 400 l 1
 292 407 296 442 297 452 c 0
 297 457 299 458 307 457 c 0
 312 457 318 455 318 452 c 0
 318 448 308 382 305 356 c 0
 304 352 300 350 293 350 c 2
 63 350 l 2
 55 350 50 353 50 359 c 0
 50 366 90 427 94 430 c 0
 131 462 234 540 234 636 c 0
 234 677 209 719 160 719 c 0
 95 719 60 658 53 658 c 0
 48 658 40 665 40 671 c 0
EndSplineSet
EndChar

StartChar: uni00B3
Encoding: 114 179 115
Width: 360
GlyphClass: 2
Flags: MW
HStem: 342 24<171.5 199.5> 535 32<180 214> 728 33<145.5 184>
VStem: 229 57<641.5 684.5> 260 55<431 479.5>
LayerCount: 2
Fore
SplineSet
65 368 m 0xe8
 65 387 79 397 97 397 c 0
 108 397 116 394 126 390 c 0
 146 382 163 366 180 366 c 0
 222 366 260 405 260 456 c 0xe8
 260 503 242 535 186 535 c 0
 165 535 121 531 113 531 c 0
 101 531 100 546 100 552 c 0
 100 562 112 564 117 565 c 0
 197 582 229 601 229 662 c 0
 229 707 202 728 166 728 c 0
 113 728 91 695 82 695 c 0
 76 695 69 702 69 708 c 0
 69 718 116 761 175 761 c 0
 239 761 286 723 286 672 c 0xf0
 286 611 229 586 180 567 c 1
 254 567 315 533 315 470 c 0
 315 392 234 342 165 342 c 0
 130 342 65 349 65 368 c 0xe8
EndSplineSet
EndChar

StartChar: acute
Encoding: 115 180 116
Width: 400
GlyphClass: 2
Flags: MW
HStem: 449 163<187.5 277.5 189 277.5>
VStem: 236 66<587 587>
LayerCount: 2
Fore
SplineSet
185 451 m 0
 185 452 186 455 187 457 c 2
 236 587 l 2
 242 603 252 612 266 612 c 0
 289 612 302 598 302 582 c 0
 302 575 300 569 295 562 c 2
 213 455 l 2
 210 451 208 449 205 449 c 2
 189 449 l 2
 186 449 185 450 185 451 c 0
EndSplineSet
EndChar

StartChar: uni00B5
Encoding: 116 181 117
Width: 509
GlyphClass: 2
Flags: MW
HStem: -15 53<152 170> 356 20G<145 151.5>
VStem: 25 40<-95 -90> 320 60<62 67.5> 367 63
LayerCount: 2
Fore
SplineSet
25 -136 m 0xf0
 25 -44 60 40 85 155 c 0
 132 365 140 376 150 376 c 0
 153 376 189 375 189 359 c 0
 189 340 152 240 138 128 c 0
 137 116 135 100 135 85 c 0
 135 60 140 38 164 38 c 0
 233 38 325 224 367 329 c 0
 384 371 385 377 390 377 c 0
 405 377 430 371 430 362 c 0xe8
 430 350 380 115 380 70 c 0
 380 54 393 44 405 44 c 0
 442 44 452 111 466 111 c 0
 474 111 474 106 474 98 c 0
 474 61 421 -17 354 -17 c 0
 326 -17 320 11 320 47 c 0
 320 88 336 173 336 184 c 0
 336 187 336 192 332 192 c 0
 331 192 305 146 275 102 c 0
 245 58 204 -15 136 -15 c 0
 98 -15 90 54 86 54 c 0
 80 54 65 -47 65 -79 c 0
 65 -111 89 -148 89 -156 c 0
 89 -160 83 -183 59 -183 c 0
 43 -183 25 -169 25 -136 c 0xf0
EndSplineSet
EndChar

StartChar: paragraph
Encoding: 117 182 118
Width: 492
GlyphClass: 2
Flags: MW
HStem: -231 34<285.5 348 290 348 348 353 290 372> 620 34<390.5 394 394 440>
VStem: 40 245<319 500> 359 27<-189 610>
LayerCount: 2
Fore
SplineSet
40 417 m 0
 40 583 186 644 273 644 c 0
 284 644 285 640 285 630 c 2
 285 162 l 2
 285 156 284 154 280 154 c 0
 210 154 40 221 40 417 c 0
280 -205 m 2
 280 -200 281 -197 290 -197 c 2
 348 -197 l 2
 358 -197 359 -196 359 -189 c 2
 359 642 l 2
 359 653 362 654 370 654 c 2
 440 654 l 2
 451 654 452 652 452 643 c 2
 452 629 l 2
 452 622 451 620 440 620 c 2
 394 620 l 2
 387 620 386 619 386 610 c 2
 386 -222 l 2
 386 -230 385 -231 372 -231 c 2
 290 -231 l 2
 281 -231 280 -228 280 -223 c 2
 280 -205 l 2
EndSplineSet
EndChar

StartChar: periodcentered
Encoding: 118 183 119
Width: 147
GlyphClass: 2
Flags: MW
HStem: 292 96<73 80>
VStem: 25 102<331 351>
LayerCount: 2
Fore
SplineSet
25 333 m 0
 25 369 61 388 85 388 c 0
 106 388 127 377 127 348 c 0
 127 314 94 292 66 292 c 0
 45 292 25 305 25 333 c 0
EndSplineSet
EndChar

StartChar: cedilla
Encoding: 119 184 120
Width: 400
GlyphClass: 2
Flags: MW
HStem: -228 24<175 208 168.5 233> -103 35<211.5 217> -20 20<192 209 209 209>
VStem: 251 55<-157.5 -135.5>
LayerCount: 2
Fore
SplineSet
117 -200 m 0
 117 -197 117 -189 125 -189 c 0
 128 -189 152 -204 185 -204 c 0
 231 -204 251 -187 251 -148 c 0
 251 -123 238 -103 196 -103 c 0
 177 -103 162 -112 159 -112 c 0
 157 -112 151 -109 151 -107 c 0
 151 -105 182 -25 192 0 c 1
 209 0 l 1
 185 -65 l 2
 184 -69 182 -74 185 -74 c 0
 187 -74 202 -68 221 -68 c 0
 278 -68 306 -105 306 -136 c 0
 306 -179 266 -228 200 -228 c 0
 150 -228 117 -204 117 -200 c 0
EndSplineSet
EndChar

StartChar: uni00B9
Encoding: 120 185 121
Width: 360
GlyphClass: 2
Flags: MW
HStem: 348 26<109 114.5 266 272 272 275> 724 21 736 20<219 224.5>
VStem: 170 57<424 455.5 391 499 391 536.5>
LayerCount: 2
Fore
SplineSet
95 364 m 0xb0
 95 373 98 374 109 374 c 2
 169 374 l 1
 170 383 170 413 170 424 c 2
 170 499 l 2
 170 574 170 680 168 716 c 0
 167 724 166 724 163 724 c 0
 161 724 107 721 103 721 c 0
 96 721 95 726 95 727 c 2
 95 739 l 2
 95 746 100 745 106 745 c 0xd0
 206 750 217 756 221 756 c 0
 228 756 228 748 228 742 c 0
 228 614 227 515 227 396 c 0
 227 386 227 375 228 374 c 1
 272 374 l 2
 279 374 279 372 279 364 c 0
 279 354 279 348 271 348 c 0
 261 348 242 350 200 350 c 0
 153 350 123 348 106 348 c 0
 97 348 95 350 95 364 c 0xb0
EndSplineSet
EndChar

StartChar: ordmasculine
Encoding: 121 186 122
Width: 384
GlyphClass: 2
Flags: MW
HStem: 337 23<157.5 229 157.5 241> 646 23<154.5 225.5>
VStem: 30 64<456 530 456 544.5> 288 66<478 545>
LayerCount: 2
Fore
SplineSet
30 497 m 0
 30 592 99 669 202 669 c 0
 293 669 354 597 354 508 c 0
 354 409 293 337 189 337 c 0
 99 337 30 409 30 497 c 0
94 486 m 0
 94 426 126 360 189 360 c 0
 269 360 288 442 288 514 c 0
 288 576 259 646 192 646 c 0
 117 646 94 574 94 486 c 0
EndSplineSet
EndChar

StartChar: guillemotright
Encoding: 122 187 123
Width: 408
GlyphClass: 2
Flags: MW
HStem: 62 262<73 74.5 223 224.5>
VStem: 122 86<190.5 195.5 190.5 199> 272 86<190.5 195.5 190.5 199>
LayerCount: 2
Fore
SplineSet
60 74 m 0
 60 82 122 181 122 193 c 0
 122 205 60 304 60 312 c 0
 60 314 72 324 74 324 c 0
 75 324 115 283 153 248 c 0
 182 221 208 198 208 193 c 0
 208 188 182 165 153 138 c 0
 115 103 75 62 74 62 c 0
 72 62 60 72 60 74 c 0
210 74 m 0
 210 82 272 181 272 193 c 0
 272 205 210 304 210 312 c 0
 210 314 222 324 224 324 c 0
 225 324 265 283 303 248 c 0
 332 221 358 198 358 193 c 0
 358 188 332 165 303 138 c 0
 265 103 225 62 224 62 c 0
 222 62 210 72 210 74 c 0
EndSplineSet
EndChar

StartChar: onequarter
Encoding: 123 188 124
Width: 774
GlyphClass: 2
Flags: MW
HStem: -13 21<211 226> -10 21<629 632> 131 42<464 618 487 618 618 619 687 733> 248 26<109 114.5 266 272 272 275> 394 20<663 671> 624 21 636 20<219 224.5> 648 20<626 641>
VStem: 170 57<324 355.5 291 399 291 436.5> 629 51<123 180 181 354 354 354>
LayerCount: 2
Fore
SplineSet
449 138 m 0x6840
 449 145 449 158 460 177 c 0
 488 226 557 311 609 367 c 0
 618 377 629 384 636 389 c 0
 653 404 659 414 667 414 c 0
 675 414 680 403 680 392 c 2
 680 180 l 2
 680 173 680 173 687 173 c 2
 738 173 l 2
 744 173 745 169 745 163 c 2
 745 141 l 2
 745 134 741 131 733 131 c 2
 687 131 l 2
 681 131 681 129 681 125 c 2
 681 2 l 2
 681 -1 678 -6 675 -6 c 2
 632 -10 l 2
 626 -10 626 -5 626 -2 c 2
 629 123 l 2
 629 130 626 131 619 131 c 2
 466 131 l 2
 462 131 449 131 449 138 c 0x6840
487 173 m 1
 618 173 l 2
 628 173 629 174 629 181 c 2
 629 354 l 1
 607 333 509 214 487 173 c 1
200 -8 m 0x81
 200 -6 202 -3 204 1 c 2
 612 658 l 2
 617 665 617 668 635 668 c 0
 647 668 652 666 652 662 c 0
 652 661 652 660 651 658 c 2
 241 -1 l 2
 235 -10 234 -13 218 -13 c 0
 204 -13 200 -11 200 -8 c 0x81
95 264 m 0x1280
 95 273 98 274 109 274 c 2
 169 274 l 1
 170 283 170 313 170 324 c 2
 170 399 l 2
 170 474 170 580 168 616 c 0
 167 624 166 624 163 624 c 0
 161 624 107 621 103 621 c 0
 96 621 95 626 95 627 c 2
 95 639 l 2
 95 646 100 645 106 645 c 0x1480
 206 650 217 656 221 656 c 0
 228 656 228 648 228 642 c 0
 228 514 227 415 227 296 c 0
 227 286 227 275 228 274 c 1
 272 274 l 2
 279 274 279 272 279 264 c 0
 279 254 279 248 271 248 c 0
 261 248 242 250 200 250 c 0
 153 250 123 248 106 248 c 0
 97 248 95 250 95 264 c 0x1280
EndSplineSet
EndChar

StartChar: onehalf
Encoding: 124 189 125
Width: 844
GlyphClass: 2
Flags: MW
HStem: -13 21<211 226> 0 50<543 774 589 774 589 777> 248 26<109 114.5 266 272 272 275> 369 42<618.5 668.5> 624 21 636 20<219 224.5> 648 20<626 641>
VStem: 170 57<324 355.5 291 399 291 436.5> 718 55<245 306.5> 781 21<102 103.5 100 104.5>
LayerCount: 2
Fore
SplineSet
524 321 m 0x50c0
 524 332 580 411 657 411 c 0
 740 411 773 341 773 294 c 0
 773 196 654 105 613 75 c 0
 605 69 592 56 589 50 c 1
 774 50 l 1
 776 57 780 92 781 102 c 0
 781 107 783 108 791 107 c 0
 796 107 802 105 802 102 c 0
 802 98 792 32 789 6 c 0
 788 2 784 0 777 0 c 2
 547 0 l 2
 539 0 534 3 534 9 c 0
 534 16 574 77 578 80 c 0
 615 112 718 190 718 286 c 0
 718 327 693 369 644 369 c 0
 579 369 544 308 537 308 c 0
 532 308 524 315 524 321 c 0x50c0
200 -8 m 0x82
 200 -6 202 -3 204 1 c 2
 612 658 l 2
 617 665 617 668 635 668 c 0
 647 668 652 666 652 662 c 0
 652 661 652 660 651 658 c 2
 241 -1 l 2
 235 -10 234 -13 218 -13 c 0
 204 -13 200 -11 200 -8 c 0x82
95 264 m 0x25
 95 273 98 274 109 274 c 2
 169 274 l 1
 170 283 170 313 170 324 c 2
 170 399 l 2
 170 474 170 580 168 616 c 0
 167 624 166 624 163 624 c 0
 161 624 107 621 103 621 c 0
 96 621 95 626 95 627 c 2
 95 639 l 2
 95 646 100 645 106 645 c 0x29
 206 650 217 656 221 656 c 0
 228 656 228 648 228 642 c 0
 228 514 227 415 227 296 c 0
 227 286 227 275 228 274 c 1
 272 274 l 2
 279 274 279 272 279 264 c 0
 279 254 279 248 271 248 c 0
 261 248 242 250 200 250 c 0
 153 250 123 248 106 248 c 0
 97 248 95 250 95 264 c 0x25
EndSplineSet
EndChar

StartChar: threequarters
Encoding: 125 190 126
Width: 774
GlyphClass: 2
Flags: MW
HStem: -13 21<211 226> -10 21<629 632> 131 42<464 618 487 618 618 619 687 733> 242 24<171.5 199.5> 394 20<663 671> 435 32<180 214> 628 33<145.5 184> 648 20<626 641>
VStem: 229 57<541.5 584.5> 260 55<331 379.5> 629 51<123 180 181 354 354 354>
LayerCount: 2
Fore
SplineSet
449 138 m 0x6820
 449 145 449 158 460 177 c 0
 488 226 557 311 609 367 c 0
 618 377 629 384 636 389 c 0
 653 404 659 414 667 414 c 0
 675 414 680 403 680 392 c 2
 680 180 l 2
 680 173 680 173 687 173 c 2
 738 173 l 2
 744 173 745 169 745 163 c 2
 745 141 l 2
 745 134 741 131 733 131 c 2
 687 131 l 2
 681 131 681 129 681 125 c 2
 681 2 l 2
 681 -1 678 -6 675 -6 c 2
 632 -10 l 2
 626 -10 626 -5 626 -2 c 2
 629 123 l 2
 629 130 626 131 619 131 c 2
 466 131 l 2
 462 131 449 131 449 138 c 0x6820
487 173 m 1
 618 173 l 2
 628 173 629 174 629 181 c 2
 629 354 l 1
 607 333 509 214 487 173 c 1
200 -8 m 0x81
 200 -6 202 -3 204 1 c 2
 612 658 l 2
 617 665 617 668 635 668 c 0
 647 668 652 666 652 662 c 0
 652 661 652 660 651 658 c 2
 241 -1 l 2
 235 -10 234 -13 218 -13 c 0
 204 -13 200 -11 200 -8 c 0x81
65 268 m 0x1640
 65 287 79 297 97 297 c 0
 108 297 116 294 126 290 c 0
 146 282 163 266 180 266 c 0
 222 266 260 305 260 356 c 0x1640
 260 403 242 435 186 435 c 0
 165 435 121 431 113 431 c 0
 101 431 100 446 100 452 c 0
 100 462 112 464 117 465 c 0
 197 482 229 501 229 562 c 0
 229 607 202 628 166 628 c 0
 113 628 91 595 82 595 c 0
 76 595 69 602 69 608 c 0
 69 618 116 661 175 661 c 0
 239 661 286 623 286 572 c 0x1680
 286 511 229 486 180 467 c 1
 254 467 315 433 315 370 c 0
 315 292 234 242 165 242 c 0
 130 242 65 249 65 268 c 0x1640
EndSplineSet
EndChar

StartChar: questiondown
Encoding: 126 191 127
Width: 364
GlyphClass: 2
Flags: MW
HStem: -8 21G<289 298.5> 343 71<99.5 176 165 176 165 197> 562 105<215 223 204 232>
VStem: 30 23<209 271.5 209 285.5> 167 101<610.5 624.5> 199 28<501.5 524>
LayerCount: 2
Fore
SplineSet
30 240 m 0xf4
 30 331 53 413 165 414 c 0
 187 414 190 421 191 431 c 0
 193 463 197 489 199 521 c 0
 199 527 204 530 211 530 c 0
 225 530 227 525 227 508 c 0
 227 495 226 375 225 361 c 0
 224 344 215 343 197 343 c 2
 140 343 l 2
 59 343 53 288 53 255 c 0
 53 163 125 89 281 69 c 0
 295 67 304 68 304 54 c 2
 304 9 l 2
 304 2 302 -8 295 -8 c 0
 283 -8 286 15 276 17 c 0
 203 29 30 56 30 240 c 0xf4
167 609 m 0xf8
 167 640 199 667 209 667 c 0
 237 667 268 636 268 621 c 0
 268 600 240 562 224 562 c 0
 206 562 167 584 167 609 c 0xf8
EndSplineSet
EndChar

StartChar: Agrave
Encoding: 127 192 128
Width: 698
GlyphClass: 2
Flags: MW
HStem: -3 30<48 55.5 197.5 209 209 214 470 477.5 659.5 667 667 672> 275 24<224.5 426 247 426 426 431 247 435> 667 20<380 385.5> 729 118<281.5 356 281.5 377>
VStem: 262 119<730.5 828.5>
LayerCount: 2
Fore
SplineSet
262 822 m 0
 262 835 271 847 292 847 c 0
 307 847 317 836 326 822 c 2
 379 737 l 2
 380 735 381 733 381 731 c 0
 381 730 380 729 377 729 c 2
 356 729 l 2
 353 729 352 732 348 735 c 2
 276 795 l 2
 267 802 262 812 262 822 c 0
30 15 m 0
 30 27 32 27 48 27 c 2
 76 27 l 2
 87 27 208 326 222 358 c 2
 328 604 l 2
 336 624 353 633 364 660 c 0
 370 674 377 687 383 687 c 0
 388 687 391 684 392 680 c 2
 512 343 l 2
 553 229 623 27 635 27 c 2
 667 27 l 2
 678 27 678 26 678 14 c 0
 678 -1 677 -3 667 -3 c 0
 652 -3 607 0 577 0 c 0
 547 0 489 -3 466 -3 c 0
 453 -3 452 -2 452 15 c 0
 452 27 454 27 470 27 c 2
 524 27 l 2
 525 27 525 28 525 30 c 0
 525 54 475 200 455 256 c 0
 449 274 450 275 435 275 c 2
 234 275 l 2
 215 275 216 270 211 257 c 0
 185 191 130 52 130 30 c 0
 130 28 130 27 131 27 c 2
 209 27 l 2
 220 27 220 26 220 14 c 0
 220 -1 219 -3 209 -3 c 0
 186 -3 147 0 117 0 c 0
 87 0 67 -3 44 -3 c 0
 31 -3 30 -2 30 15 c 0
231 305 m 0
 231 301 235 299 247 299 c 2
 426 299 l 2
 436 299 439 301 439 304 c 0
 439 307 437 311 435 317 c 2
 352 560 l 2
 348 573 346 579 344 579 c 0
 342 579 339 572 334 560 c 2
 236 320 l 2
 233 313 231 308 231 305 c 0
EndSplineSet
EndChar

StartChar: Aacute
Encoding: 128 193 129
Width: 698
GlyphClass: 2
Flags: MW
HStem: -3 30<48 55.5 197.5 209 209 214 470 477.5 659.5 667 667 672> 275 24<224.5 426 247 426 426 431 247 435> 667 20<380 385.5> 729 118<363.5 460.5 365 460.5>
VStem: 361 119<730.5 828.5>
LayerCount: 2
Fore
SplineSet
361 731 m 0
 361 733 362 735 363 737 c 2
 416 822 l 2
 425 836 435 847 450 847 c 0
 471 847 480 835 480 822 c 0
 480 812 475 802 466 795 c 2
 394 735 l 2
 390 732 389 729 386 729 c 2
 365 729 l 2
 362 729 361 730 361 731 c 0
30 15 m 0
 30 27 32 27 48 27 c 2
 76 27 l 2
 87 27 208 326 222 358 c 2
 328 604 l 2
 336 624 353 633 364 660 c 0
 370 674 377 687 383 687 c 0
 388 687 391 684 392 680 c 2
 512 343 l 2
 553 229 623 27 635 27 c 2
 667 27 l 2
 678 27 678 26 678 14 c 0
 678 -1 677 -3 667 -3 c 0
 652 -3 607 0 577 0 c 0
 547 0 489 -3 466 -3 c 0
 453 -3 452 -2 452 15 c 0
 452 27 454 27 470 27 c 2
 524 27 l 2
 525 27 525 28 525 30 c 0
 525 54 475 200 455 256 c 0
 449 274 450 275 435 275 c 2
 234 275 l 2
 215 275 216 270 211 257 c 0
 185 191 130 52 130 30 c 0
 130 28 130 27 131 27 c 2
 209 27 l 2
 220 27 220 26 220 14 c 0
 220 -1 219 -3 209 -3 c 0
 186 -3 147 0 117 0 c 0
 87 0 67 -3 44 -3 c 0
 31 -3 30 -2 30 15 c 0
231 305 m 0
 231 301 235 299 247 299 c 2
 426 299 l 2
 436 299 439 301 439 304 c 0
 439 307 437 311 435 317 c 2
 352 560 l 2
 348 573 346 579 344 579 c 0
 342 579 339 572 334 560 c 2
 236 320 l 2
 233 313 231 308 231 305 c 0
EndSplineSet
EndChar

StartChar: Acircumflex
Encoding: 129 194 130
Width: 698
GlyphClass: 2
Flags: MW
HStem: -3 30<48 55.5 197.5 209 209 214 470 477.5 659.5 667 667 672> 275 24<224.5 426 247 426 426 431 247 435> 667 20<380 385.5> 729 110<264 383 266 383 359 467 359 476>
VStem: 260 222<730.5 731.5>
LayerCount: 2
Fore
SplineSet
260 731 m 0
 260 732 262 734 264 737 c 2
 343 826 l 2
 353 837 354 839 359 839 c 2
 383 839 l 2
 388 839 389 837 399 826 c 2
 478 737 l 2
 480 735 482 732 482 731 c 0
 482 730 480 729 476 729 c 2
 467 729 l 2
 466 729 461 732 456 735 c 2
 375 780 l 2
 373 781 369 781 367 780 c 2
 286 735 l 2
 281 732 276 729 275 729 c 2
 266 729 l 2
 262 729 260 730 260 731 c 0
30 15 m 0
 30 27 32 27 48 27 c 2
 76 27 l 2
 87 27 208 326 222 358 c 2
 328 604 l 2
 336 624 353 633 364 660 c 0
 370 674 377 687 383 687 c 0
 388 687 391 684 392 680 c 2
 512 343 l 2
 553 229 623 27 635 27 c 2
 667 27 l 2
 678 27 678 26 678 14 c 0
 678 -1 677 -3 667 -3 c 0
 652 -3 607 0 577 0 c 0
 547 0 489 -3 466 -3 c 0
 453 -3 452 -2 452 15 c 0
 452 27 454 27 470 27 c 2
 524 27 l 2
 525 27 525 28 525 30 c 0
 525 54 475 200 455 256 c 0
 449 274 450 275 435 275 c 2
 234 275 l 2
 215 275 216 270 211 257 c 0
 185 191 130 52 130 30 c 0
 130 28 130 27 131 27 c 2
 209 27 l 2
 220 27 220 26 220 14 c 0
 220 -1 219 -3 209 -3 c 0
 186 -3 147 0 117 0 c 0
 87 0 67 -3 44 -3 c 0
 31 -3 30 -2 30 15 c 0
231 305 m 0
 231 301 235 299 247 299 c 2
 426 299 l 2
 436 299 439 301 439 304 c 0
 439 307 437 311 435 317 c 2
 352 560 l 2
 348 573 346 579 344 579 c 0
 342 579 339 572 334 560 c 2
 236 320 l 2
 233 313 231 308 231 305 c 0
EndSplineSet
EndChar

StartChar: Atilde
Encoding: 130 195 131
Width: 698
GlyphClass: 2
Flags: MW
HStem: -3 30<48 55.5 197.5 209 209 214 470 477.5 659.5 667 667 672> 275 24<224.5 426 247 426 426 431 247 435> 667 20<380 385.5> 746 45<405 419> 783 46<322 334>
VStem: 454 19
LayerCount: 2
Fore
SplineSet
266 748 m 0x14
 266 753 271 767 274 774 c 0
 290 812 314 829 330 829 c 0x0c
 361 829 392 791 418 791 c 0
 440 791 448 811 454 826 c 0
 456 833 457 833 466 833 c 0
 470 833 473 833 473 831 c 0
 473 824 469 812 466 804 c 0
 453 770 432 746 406 746 c 0x14
 371 746 350 783 318 783 c 0x0c
 296 783 289 766 284 752 c 0
 282 746 281 746 273 746 c 0
 269 746 266 746 266 748 c 0x14
30 15 m 0xe0
 30 27 32 27 48 27 c 2
 76 27 l 2
 87 27 208 326 222 358 c 2
 328 604 l 2
 336 624 353 633 364 660 c 0
 370 674 377 687 383 687 c 0
 388 687 391 684 392 680 c 2
 512 343 l 2
 553 229 623 27 635 27 c 2
 667 27 l 2
 678 27 678 26 678 14 c 0
 678 -1 677 -3 667 -3 c 0
 652 -3 607 0 577 0 c 0
 547 0 489 -3 466 -3 c 0
 453 -3 452 -2 452 15 c 0
 452 27 454 27 470 27 c 2
 524 27 l 2
 525 27 525 28 525 30 c 0
 525 54 475 200 455 256 c 0
 449 274 450 275 435 275 c 2
 234 275 l 2
 215 275 216 270 211 257 c 0
 185 191 130 52 130 30 c 0
 130 28 130 27 131 27 c 2
 209 27 l 2
 220 27 220 26 220 14 c 0
 220 -1 219 -3 209 -3 c 0
 186 -3 147 0 117 0 c 0
 87 0 67 -3 44 -3 c 0
 31 -3 30 -2 30 15 c 0xe0
231 305 m 0
 231 301 235 299 247 299 c 2
 426 299 l 2
 436 299 439 301 439 304 c 0
 439 307 437 311 435 317 c 2
 352 560 l 2
 348 573 346 579 344 579 c 0
 342 579 339 572 334 560 c 2
 236 320 l 2
 233 313 231 308 231 305 c 0
EndSplineSet
EndChar

StartChar: Adieresis
Encoding: 131 196 132
Width: 698
GlyphClass: 2
Flags: MW
HStem: -3 30<48 55.5 197.5 209 209 214 470 477.5 659.5 667 667 672> 275 24<224.5 426 247 426 426 431 247 435> 667 20<380 385.5> 742 96<288 295 448 455>
VStem: 240 102<781 801> 400 102<781 801>
LayerCount: 2
Fore
SplineSet
240 783 m 0
 240 819 276 838 300 838 c 0
 321 838 342 827 342 798 c 0
 342 764 309 742 281 742 c 0
 260 742 240 755 240 783 c 0
400 783 m 0
 400 819 436 838 460 838 c 0
 481 838 502 827 502 798 c 0
 502 764 469 742 441 742 c 0
 420 742 400 755 400 783 c 0
30 15 m 0
 30 27 32 27 48 27 c 2
 76 27 l 2
 87 27 208 326 222 358 c 2
 328 604 l 2
 336 624 353 633 364 660 c 0
 370 674 377 687 383 687 c 0
 388 687 391 684 392 680 c 2
 512 343 l 2
 553 229 623 27 635 27 c 2
 667 27 l 2
 678 27 678 26 678 14 c 0
 678 -1 677 -3 667 -3 c 0
 652 -3 607 0 577 0 c 0
 547 0 489 -3 466 -3 c 0
 453 -3 452 -2 452 15 c 0
 452 27 454 27 470 27 c 2
 524 27 l 2
 525 27 525 28 525 30 c 0
 525 54 475 200 455 256 c 0
 449 274 450 275 435 275 c 2
 234 275 l 2
 215 275 216 270 211 257 c 0
 185 191 130 52 130 30 c 0
 130 28 130 27 131 27 c 2
 209 27 l 2
 220 27 220 26 220 14 c 0
 220 -1 219 -3 209 -3 c 0
 186 -3 147 0 117 0 c 0
 87 0 67 -3 44 -3 c 0
 31 -3 30 -2 30 15 c 0
231 305 m 0
 231 301 235 299 247 299 c 2
 426 299 l 2
 436 299 439 301 439 304 c 0
 439 307 437 311 435 317 c 2
 352 560 l 2
 348 573 346 579 344 579 c 0
 342 579 339 572 334 560 c 2
 236 320 l 2
 233 313 231 308 231 305 c 0
EndSplineSet
EndChar

StartChar: Aring
Encoding: 132 197 133
Width: 698
GlyphClass: 2
Flags: MW
HStem: -3 30<48 55.5 197.5 209 209 214 470 477.5 659.5 667 667 672> 275 24<224.5 426 247 426 426 431 247 435> 667 20<380 385.5> 714 28<359 383 359 390.5> 828 28<359 383>
VStem: 300 28<773 797> 414 28<773 797>
LayerCount: 2
Fore
SplineSet
300 785 m 0
 300 824 332 856 371 856 c 0
 410 856 442 824 442 785 c 0
 442 746 410 714 371 714 c 0
 332 714 300 746 300 785 c 0
328 785 m 0
 328 761 347 742 371 742 c 0
 395 742 414 761 414 785 c 0
 414 809 395 828 371 828 c 0
 347 828 328 809 328 785 c 0
30 15 m 0
 30 27 32 27 48 27 c 2
 76 27 l 2
 87 27 208 326 222 358 c 2
 328 604 l 2
 336 624 353 633 364 660 c 0
 370 674 377 687 383 687 c 0
 388 687 391 684 392 680 c 2
 512 343 l 2
 553 229 623 27 635 27 c 2
 667 27 l 2
 678 27 678 26 678 14 c 0
 678 -1 677 -3 667 -3 c 0
 652 -3 607 0 577 0 c 0
 547 0 489 -3 466 -3 c 0
 453 -3 452 -2 452 15 c 0
 452 27 454 27 470 27 c 2
 524 27 l 2
 525 27 525 28 525 30 c 0
 525 54 475 200 455 256 c 0
 449 274 450 275 435 275 c 2
 234 275 l 2
 215 275 216 270 211 257 c 0
 185 191 130 52 130 30 c 0
 130 28 130 27 131 27 c 2
 209 27 l 2
 220 27 220 26 220 14 c 0
 220 -1 219 -3 209 -3 c 0
 186 -3 147 0 117 0 c 0
 87 0 67 -3 44 -3 c 0
 31 -3 30 -2 30 15 c 0
231 305 m 0
 231 301 235 299 247 299 c 2
 426 299 l 2
 436 299 439 301 439 304 c 0
 439 307 437 311 435 317 c 2
 352 560 l 2
 348 573 346 579 344 579 c 0
 342 579 339 572 334 560 c 2
 236 320 l 2
 233 313 231 308 231 305 c 0
EndSplineSet
EndChar

StartChar: AE
Encoding: 133 198 134
Width: 973
GlyphClass: 2
Flags: MW
HStem: -3 30<38 45.5 180.5 192 192 197 425 432.5> 0 34<528 633> 275 24<295 463> 325 27<584 588 588 751> 407 20G<819 826.5> 636 29<382 386 386 389.5 382 431>
VStem: 493 79<102 317.5 260 317.5 361.5 368 310 411> 806 31<259 264.5 255.5 305 414.5 418 418 421> 849 28 907 31<147 149.5 121 150>
LayerCount: 2
Fore
SplineSet
20 15 m 0xbfc0
 20 27 22 27 38 27 c 2
 66 27 l 2xbfc0
 80 27 139 136 219 266 c 2
 440 626 l 2
 446 636 447 636 431 636 c 2
 386 636 l 2
 377 636 374 638 374 651 c 0
 374 663 378 665 386 665 c 0
 393 665 438 662 535 662 c 0
 588 662 741 665 784 665 c 0
 851 665 849 666 851 678 c 0
 852 688 856 690 864 690 c 0
 878 690 881 689 881 679 c 0
 881 660 877 627 877 549 c 0
 877 541 875 539 861 539 c 0
 849 539 846 543 846 553 c 0
 846 558 849 625 849 631 c 0
 849 635 688 638 577 638 c 0
 571 638 570 588 570 510 c 0
 570 467 571 418 572 368 c 0
 572 355 572 352 584 352 c 2
 751 352 l 2
 769 352 806 352 806 368 c 2
 806 418 l 2
 806 424 815 427 823 427 c 0
 830 427 837 424 837 419 c 0
 837 410 835 377 835 341 c 0
 835 305 837 271 837 258 c 0
 837 253 831 250 824 250 c 0
 816 250 806 253 806 259 c 2
 806 305 l 2
 806 315 805 325 751 325 c 2
 588 325 l 2
 572 325 572 325 572 310 c 0
 575 167 578 34 584 34 c 0x7fc0
 682 34 881 37 885 37 c 0
 901 37 902 37 904 60 c 0
 906 85 906 108 907 147 c 0
 907 153 913 155 921 155 c 0
 930 155 938 153 938 146 c 0
 938 96 935 38 935 8 c 0
 935 -1 923 -3 913 -3 c 0xbfc0
 890 -3 573 0 543 0 c 0x7fc0
 513 0 444 -3 421 -3 c 0
 408 -3 408 -2 408 15 c 0
 408 27 409 27 425 27 c 2
 486 27 l 2
 492 27 493 47 493 102 c 2
 493 260 l 2
 493 275 480 275 463 275 c 2
 262 275 l 2
 256 275 141 71 123 33 c 0
 119 25 121 27 128 27 c 2
 192 27 l 2
 203 27 203 26 203 14 c 0
 203 -1 202 -3 192 -3 c 0xbfc0
 169 -3 135 0 105 0 c 0x7fc0
 75 0 57 -3 34 -3 c 0
 21 -3 20 -2 20 15 c 0xbfc0
279 306 m 0
 279 302 283 299 295 299 c 2
 464 299 l 2
 490 299 493 301 493 319 c 2
 493 411 l 2
 493 614 486 636 479 636 c 2
 478 636 l 2
 473 636 470 631 467 626 c 2
 285 320 l 2
 282 314 279 309 279 306 c 0
EndSplineSet
EndChar

StartChar: Ccedilla
Encoding: 134 199 135
Width: 731
GlyphClass: 2
Flags: MW
HStem: -228 24<371 404 364.5 429> -103 35<407.5 413> -16 39<399 399> 429 21G<632 647.5> 650 30<322.5 461 301 461.5>
VStem: 45 102<248.5 423.5 248.5 439.5> 447 55<-157.5 -135.5> 626 35<629 638 638 643.5>
LayerCount: 2
Fore
SplineSet
45 335 m 0
 45 544 200 680 402 680 c 0
 520 680 589 622 609 608 c 0
 618 601 626 594 626 611 c 2
 626 638 l 2
 626 649 626 651 641 651 c 0
 656 651 661 650 661 638 c 0
 661 620 657 496 657 445 c 0
 657 433 654 429 641 429 c 0
 623 429 622 432 622 441 c 0
 622 445 626 522 626 531 c 0
 626 545 528 650 395 650 c 0
 250 650 147 514 147 333 c 0
 147 164 270 23 424 23 c 0
 537 23 618 80 619 91 c 2
 632 204 l 2
 634 218 638 220 654 218 c 0
 664 217 666 212 666 205 c 0
 666 195 662 162 650 72 c 0
 648 54 525 -15 399 -16 c 1
 381 -65 l 2
 380 -69 378 -74 381 -74 c 0
 383 -74 398 -68 417 -68 c 0
 474 -68 502 -105 502 -136 c 0
 502 -179 462 -228 396 -228 c 0
 346 -228 313 -204 313 -200 c 0
 313 -197 313 -189 321 -189 c 0
 324 -189 348 -204 381 -204 c 0
 427 -204 447 -187 447 -148 c 0
 447 -123 434 -103 392 -103 c 0
 373 -103 358 -112 355 -112 c 0
 353 -112 347 -109 347 -107 c 0
 347 -105 369 -49 382 -16 c 1
 204 -10 45 100 45 335 c 0
EndSplineSet
EndChar

StartChar: Egrave
Encoding: 135 200 136
Width: 605
GlyphClass: 2
Flags: MW
HStem: -3 30<57 64.5> 0 34<160 265> 325 27<216 220 220 383> 407 20<451 458.5> 636 29<61 63.5 56 67 56 110> 729 118<226.5 301 226.5 322>
VStem: 125 79<198 317.5> 207 119<730.5 828.5> 438 31<259 264.5 255.5 305 414.5 418 418 421> 481 28 539 31<147 149.5 121 150>
LayerCount: 2
Fore
SplineSet
207 822 m 0x05
 207 835 216 847 237 847 c 0
 252 847 262 836 271 822 c 2
 324 737 l 2
 325 735 326 733 326 731 c 0
 326 730 325 729 322 729 c 2
 301 729 l 2
 298 729 297 732 293 735 c 2
 221 795 l 2
 212 802 207 812 207 822 c 0x05
40 15 m 0xbae0
 40 27 41 27 57 27 c 2
 118 27 l 2xbae0
 124 27 125 47 125 102 c 2
 125 198 l 2
 125 309 121 486 121 492 c 0
 121 564 117 636 110 636 c 2
 67 636 l 2
 55 636 48 636 48 651 c 0
 48 663 52 665 60 665 c 0
 67 665 132 662 167 662 c 0
 220 662 373 665 416 665 c 0
 483 665 481 666 483 678 c 0
 484 688 488 690 496 690 c 0
 510 690 513 689 513 679 c 0
 513 660 509 627 509 549 c 0
 509 541 507 539 493 539 c 0
 481 539 478 543 478 553 c 0
 478 558 481 625 481 631 c 0
 481 635 320 638 209 638 c 0
 203 638 202 588 202 510 c 0
 202 467 203 418 204 368 c 0
 204 355 204 352 216 352 c 2
 383 352 l 2
 401 352 438 352 438 368 c 2
 438 418 l 2
 438 424 447 427 455 427 c 0
 462 427 469 424 469 419 c 0
 469 410 467 377 467 341 c 0
 467 305 469 271 469 258 c 0
 469 253 463 250 456 250 c 0
 448 250 438 253 438 259 c 2
 438 305 l 2
 438 315 437 325 383 325 c 2
 220 325 l 2
 204 325 204 325 204 310 c 0
 207 167 210 34 216 34 c 0x7ae0
 314 34 513 37 517 37 c 0
 533 37 534 37 536 60 c 0
 538 85 538 108 539 147 c 0
 539 153 545 155 553 155 c 0
 562 155 570 153 570 146 c 0
 570 96 567 38 567 8 c 0
 567 -1 555 -3 545 -3 c 0xbae0
 522 -3 205 0 175 0 c 0x7ae0
 145 0 76 -3 53 -3 c 0
 40 -3 40 -2 40 15 c 0xbae0
EndSplineSet
EndChar

StartChar: Eacute
Encoding: 136 201 137
Width: 605
GlyphClass: 2
Flags: MW
HStem: -3 30<57 64.5> 0 34<160 265> 325 27<216 220 220 383> 407 20<451 458.5> 636 29<61 63.5 56 67 56 110> 729 118<308.5 405.5 310 405.5>
VStem: 125 79<198 317.5> 306 119<730.5 828.5> 438 31<259 264.5 255.5 305 414.5 418 418 421> 481 28 539 31<147 149.5 121 150>
LayerCount: 2
Fore
SplineSet
306 731 m 0x05
 306 733 307 735 308 737 c 2
 361 822 l 2
 370 836 380 847 395 847 c 0
 416 847 425 835 425 822 c 0
 425 812 420 802 411 795 c 2
 339 735 l 2
 335 732 334 729 331 729 c 2
 310 729 l 2
 307 729 306 730 306 731 c 0x05
40 15 m 0xbae0
 40 27 41 27 57 27 c 2
 118 27 l 2xbae0
 124 27 125 47 125 102 c 2
 125 198 l 2
 125 309 121 486 121 492 c 0
 121 564 117 636 110 636 c 2
 67 636 l 2
 55 636 48 636 48 651 c 0
 48 663 52 665 60 665 c 0
 67 665 132 662 167 662 c 0
 220 662 373 665 416 665 c 0
 483 665 481 666 483 678 c 0
 484 688 488 690 496 690 c 0
 510 690 513 689 513 679 c 0
 513 660 509 627 509 549 c 0
 509 541 507 539 493 539 c 0
 481 539 478 543 478 553 c 0
 478 558 481 625 481 631 c 0
 481 635 320 638 209 638 c 0
 203 638 202 588 202 510 c 0
 202 467 203 418 204 368 c 0
 204 355 204 352 216 352 c 2
 383 352 l 2
 401 352 438 352 438 368 c 2
 438 418 l 2
 438 424 447 427 455 427 c 0
 462 427 469 424 469 419 c 0
 469 410 467 377 467 341 c 0
 467 305 469 271 469 258 c 0
 469 253 463 250 456 250 c 0
 448 250 438 253 438 259 c 2
 438 305 l 2
 438 315 437 325 383 325 c 2
 220 325 l 2
 204 325 204 325 204 310 c 0
 207 167 210 34 216 34 c 0x7ae0
 314 34 513 37 517 37 c 0
 533 37 534 37 536 60 c 0
 538 85 538 108 539 147 c 0
 539 153 545 155 553 155 c 0
 562 155 570 153 570 146 c 0
 570 96 567 38 567 8 c 0
 567 -1 555 -3 545 -3 c 0xbae0
 522 -3 205 0 175 0 c 0x7ae0
 145 0 76 -3 53 -3 c 0
 40 -3 40 -2 40 15 c 0xbae0
EndSplineSet
EndChar

StartChar: Ecircumflex
Encoding: 137 202 138
Width: 605
GlyphClass: 2
Flags: MW
HStem: -3 30<57 64.5> 0 34<160 265> 325 27<216 220 220 383> 407 20<451 458.5> 636 29<61 63.5 56 67 56 110> 729 110<209 328 211 328 304 412 304 421>
VStem: 125 79<198 317.5> 205 222<730.5 731.5> 438 31<259 264.5 255.5 305 414.5 418 418 421> 481 28 539 31<147 149.5 121 150>
LayerCount: 2
Fore
SplineSet
205 731 m 0x05
 205 732 207 734 209 737 c 2
 288 826 l 2
 298 837 299 839 304 839 c 2
 328 839 l 2
 333 839 334 837 344 826 c 2
 423 737 l 2
 425 735 427 732 427 731 c 0
 427 730 425 729 421 729 c 2
 412 729 l 2
 411 729 406 732 401 735 c 2
 320 780 l 2
 318 781 314 781 312 780 c 2
 231 735 l 2
 226 732 221 729 220 729 c 2
 211 729 l 2
 207 729 205 730 205 731 c 0x05
40 15 m 0xbae0
 40 27 41 27 57 27 c 2
 118 27 l 2xbae0
 124 27 125 47 125 102 c 2
 125 198 l 2
 125 309 121 486 121 492 c 0
 121 564 117 636 110 636 c 2
 67 636 l 2
 55 636 48 636 48 651 c 0
 48 663 52 665 60 665 c 0
 67 665 132 662 167 662 c 0
 220 662 373 665 416 665 c 0
 483 665 481 666 483 678 c 0
 484 688 488 690 496 690 c 0
 510 690 513 689 513 679 c 0
 513 660 509 627 509 549 c 0
 509 541 507 539 493 539 c 0
 481 539 478 543 478 553 c 0
 478 558 481 625 481 631 c 0
 481 635 320 638 209 638 c 0
 203 638 202 588 202 510 c 0
 202 467 203 418 204 368 c 0
 204 355 204 352 216 352 c 2
 383 352 l 2
 401 352 438 352 438 368 c 2
 438 418 l 2
 438 424 447 427 455 427 c 0
 462 427 469 424 469 419 c 0
 469 410 467 377 467 341 c 0
 467 305 469 271 469 258 c 0
 469 253 463 250 456 250 c 0
 448 250 438 253 438 259 c 2
 438 305 l 2
 438 315 437 325 383 325 c 2
 220 325 l 2
 204 325 204 325 204 310 c 0
 207 167 210 34 216 34 c 0x7ae0
 314 34 513 37 517 37 c 0
 533 37 534 37 536 60 c 0
 538 85 538 108 539 147 c 0
 539 153 545 155 553 155 c 0
 562 155 570 153 570 146 c 0
 570 96 567 38 567 8 c 0
 567 -1 555 -3 545 -3 c 0xbae0
 522 -3 205 0 175 0 c 0x7ae0
 145 0 76 -3 53 -3 c 0
 40 -3 40 -2 40 15 c 0xbae0
EndSplineSet
EndChar

StartChar: Edieresis
Encoding: 138 203 139
Width: 605
GlyphClass: 2
Flags: MW
HStem: -3 30<57 64.5> 0 34<160 265> 325 27<216 220 220 383> 407 20<451 458.5> 636 29<61 63.5 56 67 56 110> 742 96<233 240 393 400>
VStem: 125 79<198 317.5> 185 102<781 801> 345 102<781 801> 438 31<259 264.5 255.5 305 414.5 418 418 421> 481 28 539 31<147 149.5 121 150>
LayerCount: 2
Fore
SplineSet
185 783 m 0x0580
 185 819 221 838 245 838 c 0
 266 838 287 827 287 798 c 0
 287 764 254 742 226 742 c 0
 205 742 185 755 185 783 c 0x0580
345 783 m 0
 345 819 381 838 405 838 c 0
 426 838 447 827 447 798 c 0
 447 764 414 742 386 742 c 0
 365 742 345 755 345 783 c 0
40 15 m 0xba70
 40 27 41 27 57 27 c 2
 118 27 l 2xba70
 124 27 125 47 125 102 c 2
 125 198 l 2
 125 309 121 486 121 492 c 0
 121 564 117 636 110 636 c 2
 67 636 l 2
 55 636 48 636 48 651 c 0
 48 663 52 665 60 665 c 0
 67 665 132 662 167 662 c 0
 220 662 373 665 416 665 c 0
 483 665 481 666 483 678 c 0
 484 688 488 690 496 690 c 0
 510 690 513 689 513 679 c 0
 513 660 509 627 509 549 c 0
 509 541 507 539 493 539 c 0
 481 539 478 543 478 553 c 0
 478 558 481 625 481 631 c 0
 481 635 320 638 209 638 c 0
 203 638 202 588 202 510 c 0
 202 467 203 418 204 368 c 0
 204 355 204 352 216 352 c 2
 383 352 l 2
 401 352 438 352 438 368 c 2
 438 418 l 2
 438 424 447 427 455 427 c 0
 462 427 469 424 469 419 c 0
 469 410 467 377 467 341 c 0
 467 305 469 271 469 258 c 0
 469 253 463 250 456 250 c 0
 448 250 438 253 438 259 c 2
 438 305 l 2
 438 315 437 325 383 325 c 2
 220 325 l 2
 204 325 204 325 204 310 c 0
 207 167 210 34 216 34 c 0x7a70
 314 34 513 37 517 37 c 0
 533 37 534 37 536 60 c 0
 538 85 538 108 539 147 c 0
 539 153 545 155 553 155 c 0
 562 155 570 153 570 146 c 0
 570 96 567 38 567 8 c 0
 567 -1 555 -3 545 -3 c 0xba70
 522 -3 205 0 175 0 c 0x7a70
 145 0 76 -3 53 -3 c 0
 40 -3 40 -2 40 15 c 0xba70
EndSplineSet
EndChar

StartChar: Igrave
Encoding: 139 204 140
Width: 333
GlyphClass: 2
Flags: MW
HStem: 0 27 639 27 729 118<78.5 153 78.5 174>
VStem: 59 119<730.5 828.5> 126 85<394 481>
LayerCount: 2
Fore
SplineSet
59 822 m 0x30
 59 835 68 847 89 847 c 0
 104 847 114 836 123 822 c 2
 176 737 l 2
 177 735 178 733 178 731 c 0
 178 730 177 729 174 729 c 2
 153 729 l 2
 150 729 149 732 145 735 c 2
 73 795 l 2
 64 802 59 812 59 822 c 0x30
30 15 m 0x48
 30 27 32 27 48 27 c 2
 116 27 l 2
 125 27 126 255 126 394 c 2
 126 492 l 2
 126 564 123 639 116 639 c 2
 54 639 l 2
 42 639 34 639 34 654 c 0
 34 669 41 669 54 669 c 0
 70 669 144 666 174 666 c 0
 204 666 266 669 289 669 c 0
 302 669 303 668 303 651 c 0
 303 639 301 639 285 639 c 2
 222 639 l 2
 212 639 211 537 211 481 c 2
 211 346 l 2
 211 210 212 27 221 27 c 2
 292 27 l 2
 303 27 303 26 303 14 c 0
 303 -1 302 -3 292 -3 c 0
 269 -3 202 0 172 0 c 0
 142 0 67 -3 44 -3 c 0
 31 -3 30 -2 30 15 c 0x48
EndSplineSet
EndChar

StartChar: Iacute
Encoding: 140 205 141
Width: 333
GlyphClass: 2
Flags: MW
HStem: 0 27 639 27 729 118<160.5 257.5 162 257.5>
VStem: 126 85<394 481> 158 119<730.5 828.5>
LayerCount: 2
Fore
SplineSet
158 731 m 0x28
 158 733 159 735 160 737 c 2
 213 822 l 2
 222 836 232 847 247 847 c 0
 268 847 277 835 277 822 c 0
 277 812 272 802 263 795 c 2
 191 735 l 2
 187 732 186 729 183 729 c 2
 162 729 l 2
 159 729 158 730 158 731 c 0x28
30 15 m 0x50
 30 27 32 27 48 27 c 2
 116 27 l 2
 125 27 126 255 126 394 c 2
 126 492 l 2
 126 564 123 639 116 639 c 2
 54 639 l 2
 42 639 34 639 34 654 c 0
 34 669 41 669 54 669 c 0
 70 669 144 666 174 666 c 0
 204 666 266 669 289 669 c 0
 302 669 303 668 303 651 c 0
 303 639 301 639 285 639 c 2
 222 639 l 2
 212 639 211 537 211 481 c 2
 211 346 l 2
 211 210 212 27 221 27 c 2
 292 27 l 2
 303 27 303 26 303 14 c 0
 303 -1 302 -3 292 -3 c 0
 269 -3 202 0 172 0 c 0
 142 0 67 -3 44 -3 c 0
 31 -3 30 -2 30 15 c 0x50
EndSplineSet
EndChar

StartChar: Icircumflex
Encoding: 141 206 142
Width: 333
GlyphClass: 2
Flags: MW
HStem: 0 27 639 27 729 110<61 180 63 180 156 264 156 273>
VStem: 57 222<730.5 731.5> 126 85<394 481>
LayerCount: 2
Fore
SplineSet
57 731 m 0x30
 57 732 59 734 61 737 c 2
 140 826 l 2
 150 837 151 839 156 839 c 2
 180 839 l 2
 185 839 186 837 196 826 c 2
 275 737 l 2
 277 735 279 732 279 731 c 0
 279 730 277 729 273 729 c 2
 264 729 l 2
 263 729 258 732 253 735 c 2
 172 780 l 2
 170 781 166 781 164 780 c 2
 83 735 l 2
 78 732 73 729 72 729 c 2
 63 729 l 2
 59 729 57 730 57 731 c 0x30
30 15 m 0x48
 30 27 32 27 48 27 c 2
 116 27 l 2
 125 27 126 255 126 394 c 2
 126 492 l 2
 126 564 123 639 116 639 c 2
 54 639 l 2
 42 639 34 639 34 654 c 0
 34 669 41 669 54 669 c 0
 70 669 144 666 174 666 c 0
 204 666 266 669 289 669 c 0
 302 669 303 668 303 651 c 0
 303 639 301 639 285 639 c 2
 222 639 l 2
 212 639 211 537 211 481 c 2
 211 346 l 2
 211 210 212 27 221 27 c 2
 292 27 l 2
 303 27 303 26 303 14 c 0
 303 -1 302 -3 292 -3 c 0
 269 -3 202 0 172 0 c 0
 142 0 67 -3 44 -3 c 0
 31 -3 30 -2 30 15 c 0x48
EndSplineSet
EndChar

StartChar: Idieresis
Encoding: 142 207 143
Width: 333
GlyphClass: 2
Flags: MW
HStem: 0 27 639 27 742 96<85 92 245 252>
VStem: 37 102<781 801> 126 85<394 481> 197 102<781 801>
LayerCount: 2
Fore
SplineSet
37 783 m 0x34
 37 819 73 838 97 838 c 0
 118 838 139 827 139 798 c 0
 139 764 106 742 78 742 c 0
 57 742 37 755 37 783 c 0x34
197 783 m 0
 197 819 233 838 257 838 c 0
 278 838 299 827 299 798 c 0
 299 764 266 742 238 742 c 0
 217 742 197 755 197 783 c 0
30 15 m 0x48
 30 27 32 27 48 27 c 2
 116 27 l 2
 125 27 126 255 126 394 c 2
 126 492 l 2
 126 564 123 639 116 639 c 2
 54 639 l 2
 42 639 34 639 34 654 c 0
 34 669 41 669 54 669 c 0
 70 669 144 666 174 666 c 0
 204 666 266 669 289 669 c 0
 302 669 303 668 303 651 c 0
 303 639 301 639 285 639 c 2
 222 639 l 2
 212 639 211 537 211 481 c 2
 211 346 l 2
 211 210 212 27 221 27 c 2
 292 27 l 2
 303 27 303 26 303 14 c 0
 303 -1 302 -3 292 -3 c 0
 269 -3 202 0 172 0 c 0
 142 0 67 -3 44 -3 c 0
 31 -3 30 -2 30 15 c 0x48
EndSplineSet
EndChar

StartChar: Eth
Encoding: 143 208 144
Width: 758
GlyphClass: 2
Flags: MW
HStem: -4 29<40.5 118> 331 24<41.5 119 43 119 119 122 224 432> 641 25<129 129.5> 652 26<312 403.5>
VStem: 129 84<360 365> 612 101<304.5 419>
LayerCount: 2
Fore
SplineSet
35 10 m 0xdc
 35 25 39 25 52 25 c 2
 118 25 l 2
 122 25 126 172 129 323 c 0
 129 330 127 331 122 331 c 2
 43 331 l 2
 40 331 39 355 43 355 c 2
 119 355 l 2
 129 355 129 355 129 365 c 0
 130 439 131 511 131 563 c 0
 131 610 130 641 129 641 c 2
 59 639 l 2
 50 639 46 639 46 651 c 0
 46 663 46 667 59 667 c 0
 63 667 94 666 128 666 c 0xec
 202 666 292 678 332 678 c 0
 548 678 713 549 713 335 c 0
 713 116 547 -2 368 -4 c 0
 303 -4 238 0 173 0 c 0
 145 0 57 -4 46 -4 c 0
 35 -4 35 -2 35 10 c 0xdc
213 86 m 2
 213 54 213 27 215 26 c 0
 221 22 252 22 272 22 c 0
 608 22 612 261 612 348 c 0
 612 490 496 652 311 652 c 0xdc
 285 652 244 652 221 646 c 0
 217 645 214 545 214 500 c 0
 214 455 213 410 213 365 c 0
 213 355 214 355 224 355 c 2
 432 355 l 2
 436 355 436 331 432 331 c 2
 220 331 l 2
 215 331 213 330 213 323 c 2
 213 86 l 2
EndSplineSet
EndChar

StartChar: Ntilde
Encoding: 144 209 145
Width: 814
GlyphClass: 2
Flags: MW
HStem: -18 21<679.5 684.5> 0 27<58 151> 614 52<155.5 157.5> 639 30<49 54 54 61 49 122 567 572 572 583.5 748.5 756> 746 45<455 469> 783 46<372 384>
VStem: 114 37<129 129> 122 30 504 19 667 38<580 598.5 580 600>
LayerCount: 2
Fore
SplineSet
316 748 m 0x0880
 316 753 321 767 324 774 c 0
 340 812 364 829 380 829 c 0x0480
 411 829 442 791 468 791 c 0
 490 791 498 811 504 826 c 0
 506 833 507 833 516 833 c 0
 520 833 523 833 523 831 c 0
 523 824 519 812 516 804 c 0
 503 770 482 746 456 746 c 0x0880
 421 746 400 783 368 783 c 0x0480
 346 783 339 766 334 752 c 0
 332 746 331 746 323 746 c 0
 319 746 316 746 316 748 c 0x0880
40 15 m 0x2240
 40 27 42 27 58 27 c 2
 102 27 l 2
 115 27 112 68 114 129 c 0x2240
 119 301 122 639 122 639 c 1
 54 639 l 2
 43 639 43 640 43 652 c 0
 43 667 44 669 54 669 c 0x1140
 68 669 145 666 166 666 c 0x2140
 188 666 215 669 221 669 c 0
 232 669 233 666 241 656 c 2
 647 157 l 2
 656 146 662 137 665 137 c 0
 668 137 669 145 669 165 c 2
 669 207 l 2
 669 305 667 482 667 583 c 0
 667 617 667 639 666 639 c 2
 572 639 l 2
 561 639 561 640 561 652 c 0
 561 667 562 669 572 669 c 0x1140
 595 669 648 666 678 666 c 0x2140
 708 666 737 669 760 669 c 0
 773 669 774 668 774 651 c 0
 774 639 772 639 756 639 c 2
 709 639 l 2x1140
 708 639 705 617 705 580 c 0
 704 425 692 15 692 4 c 0
 692 -12 687 -18 682 -18 c 0
 677 -18 670 -9 664 -2 c 2
 172 596 l 2
 164 606 159 614 156 614 c 0
 154 614 153 609 153 594 c 0
 152 569 152 525 152 472 c 0xa140
 152 366 151 224 151 129 c 0
 151 68 153 27 156 27 c 2
 242 27 l 2
 253 27 253 26 253 14 c 0
 253 -1 252 -3 242 -3 c 0
 219 -3 166 0 136 0 c 0
 106 0 77 -3 54 -3 c 0
 41 -3 40 -2 40 15 c 0x2240
EndSplineSet
EndChar

StartChar: Ograve
Encoding: 145 210 146
Width: 752
GlyphClass: 2
Flags: MW
HStem: -11 28<298.5 453.5 298.5 468.5> 647 28<303.5 456.5> 729 118<285.5 360 285.5 381>
VStem: 45 94<255 421.5 255 426> 266 119<730.5 828.5> 615 92<256 409.5>
LayerCount: 2
Fore
SplineSet
266 822 m 0
 266 835 275 847 296 847 c 0
 311 847 321 836 330 822 c 2
 383 737 l 2
 384 735 385 733 385 731 c 0
 385 730 384 729 381 729 c 2
 360 729 l 2
 357 729 356 732 352 735 c 2
 280 795 l 2
 271 802 266 812 266 822 c 0
45 318 m 0
 45 534 201 675 385 675 c 0
 583 675 707 518 707 324 c 0
 707 124 567 -11 370 -11 c 0
 210 -11 45 104 45 318 c 0
139 345 m 0
 139 165 226 17 371 17 c 0
 536 17 615 179 615 333 c 0
 615 486 538 647 375 647 c 0
 232 647 139 498 139 345 c 0
EndSplineSet
EndChar

StartChar: Oacute
Encoding: 146 211 147
Width: 752
GlyphClass: 2
Flags: MW
HStem: -11 28<298.5 453.5 298.5 468.5> 647 28<303.5 456.5> 729 118<367.5 464.5 369 464.5>
VStem: 45 94<255 421.5 255 426> 365 119<730.5 828.5> 615 92<256 409.5>
LayerCount: 2
Fore
SplineSet
365 731 m 0
 365 733 366 735 367 737 c 2
 420 822 l 2
 429 836 439 847 454 847 c 0
 475 847 484 835 484 822 c 0
 484 812 479 802 470 795 c 2
 398 735 l 2
 394 732 393 729 390 729 c 2
 369 729 l 2
 366 729 365 730 365 731 c 0
45 318 m 0
 45 534 201 675 385 675 c 0
 583 675 707 518 707 324 c 0
 707 124 567 -11 370 -11 c 0
 210 -11 45 104 45 318 c 0
139 345 m 0
 139 165 226 17 371 17 c 0
 536 17 615 179 615 333 c 0
 615 486 538 647 375 647 c 0
 232 647 139 498 139 345 c 0
EndSplineSet
EndChar

StartChar: Ocircumflex
Encoding: 147 212 148
Width: 752
GlyphClass: 2
Flags: MW
HStem: -11 28<298.5 453.5 298.5 468.5> 647 28<303.5 456.5> 729 110<268 387 270 387 363 471 363 480>
VStem: 45 94<255 421.5 255 426> 264 222<730.5 731.5> 615 92<256 409.5>
LayerCount: 2
Fore
SplineSet
264 731 m 0
 264 732 266 734 268 737 c 2
 347 826 l 2
 357 837 358 839 363 839 c 2
 387 839 l 2
 392 839 393 837 403 826 c 2
 482 737 l 2
 484 735 486 732 486 731 c 0
 486 730 484 729 480 729 c 2
 471 729 l 2
 470 729 465 732 460 735 c 2
 379 780 l 2
 377 781 373 781 371 780 c 2
 290 735 l 2
 285 732 280 729 279 729 c 2
 270 729 l 2
 266 729 264 730 264 731 c 0
45 318 m 0
 45 534 201 675 385 675 c 0
 583 675 707 518 707 324 c 0
 707 124 567 -11 370 -11 c 0
 210 -11 45 104 45 318 c 0
139 345 m 0
 139 165 226 17 371 17 c 0
 536 17 615 179 615 333 c 0
 615 486 538 647 375 647 c 0
 232 647 139 498 139 345 c 0
EndSplineSet
EndChar

StartChar: Otilde
Encoding: 148 213 149
Width: 752
GlyphClass: 2
Flags: MW
HStem: -11 28<298.5 453.5 298.5 468.5> 647 28<303.5 456.5> 746 45<409 423> 783 46<326 338>
VStem: 45 94<255 421.5 255 426> 458 19 615 92<256 409.5>
LayerCount: 2
Fore
SplineSet
270 748 m 0x24
 270 753 275 767 278 774 c 0
 294 812 318 829 334 829 c 0x14
 365 829 396 791 422 791 c 0
 444 791 452 811 458 826 c 0
 460 833 461 833 470 833 c 0
 474 833 477 833 477 831 c 0
 477 824 473 812 470 804 c 0
 457 770 436 746 410 746 c 0x24
 375 746 354 783 322 783 c 0x14
 300 783 293 766 288 752 c 0
 286 746 285 746 277 746 c 0
 273 746 270 746 270 748 c 0x24
45 318 m 0xca
 45 534 201 675 385 675 c 0
 583 675 707 518 707 324 c 0
 707 124 567 -11 370 -11 c 0
 210 -11 45 104 45 318 c 0xca
139 345 m 0
 139 165 226 17 371 17 c 0
 536 17 615 179 615 333 c 0
 615 486 538 647 375 647 c 0
 232 647 139 498 139 345 c 0
EndSplineSet
EndChar

StartChar: Odieresis
Encoding: 149 214 150
Width: 752
GlyphClass: 2
Flags: MW
HStem: -11 28<298.5 453.5 298.5 468.5> 647 28<303.5 456.5> 742 96<292 299 452 459>
VStem: 45 94<255 421.5 255 426> 244 102<781 801> 404 102<781 801> 615 92<256 409.5>
LayerCount: 2
Fore
SplineSet
244 783 m 0
 244 819 280 838 304 838 c 0
 325 838 346 827 346 798 c 0
 346 764 313 742 285 742 c 0
 264 742 244 755 244 783 c 0
404 783 m 0
 404 819 440 838 464 838 c 0
 485 838 506 827 506 798 c 0
 506 764 473 742 445 742 c 0
 424 742 404 755 404 783 c 0
45 318 m 0
 45 534 201 675 385 675 c 0
 583 675 707 518 707 324 c 0
 707 124 567 -11 370 -11 c 0
 210 -11 45 104 45 318 c 0
139 345 m 0
 139 165 226 17 371 17 c 0
 536 17 615 179 615 333 c 0
 615 486 538 647 375 647 c 0
 232 647 139 498 139 345 c 0
EndSplineSet
EndChar

StartChar: multiply
Encoding: 150 215 151
Width: 527
GlyphClass: 2
Flags: MW
HStem: 173 76<261.5 265> 364 20G<111.5 118>
VStem: 226 74<208 211.5 208 212.5>
LayerCount: 2
Fore
SplineSet
88 358 m 0
 88 365 107 384 116 384 c 0
 120 384 125 381 130 376 c 2
 246 261 l 2
 252 255 258 249 265 249 c 0
 268 249 272 250 276 254 c 2
 401 379 l 2
 405 383 410 385 413 385 c 0
 419 385 438 368 438 358 c 0
 438 355 435 350 429 344 c 2
 308 223 l 2
 303 218 300 213 300 210 c 0
 300 206 304 202 308 198 c 2
 432 74 l 2
 437 69 438 65 438 62 c 0
 438 54 419 35 412 35 c 0
 409 35 404 37 399 42 c 2
 276 166 l 2
 271 171 267 173 263 173 c 0
 258 173 254 169 247 162 c 2
 127 42 l 2
 122 37 118 35 115 35 c 0
 108 35 89 53 89 61 c 0
 89 65 92 69 97 74 c 2
 217 195 l 2
 223 201 226 206 226 210 c 0
 226 215 223 219 219 223 c 2
 95 347 l 2
 91 351 88 355 88 358 c 0
EndSplineSet
EndChar

StartChar: Oslash
Encoding: 151 216 152
Width: 752
GlyphClass: 2
Flags: MW
HStem: -11 28<345.5 453.5 345.5 468.5> 647 28<303.5 400.5>
VStem: 45 94<296 421.5 296 426> 615 92<256 377.5>
LayerCount: 2
Fore
SplineSet
45 318 m 0
 45 534 201 675 385 675 c 0
 438 675 486 664 527 644 c 0
 535 640 536 640 540 648 c 2
 582 722 l 1
 582 722 583 723 585 723 c 0
 591 723 605 713 603 710 c 2
 559 635 l 2
 555 628 555 628 561 624 c 0
 653 562 707 451 707 324 c 0
 707 124 567 -11 370 -11 c 0
 318 -11 265 1 218 25 c 0
 211 29 210 29 206 23 c 2
 162 -53 l 2
 161 -54 160 -55 159 -55 c 0
 151 -55 139 -45 140 -43 c 2
 186 36 l 2
 189 41 188 42 182 46 c 0
 102 100 45 192 45 318 c 0
139 345 m 0
 139 247 165 158 212 98 c 0
 215 95 216 93 217 93 c 0
 218 93 219 94 221 98 c 2
 507 592 l 2
 509 595 510 597 510 598 c 0
 510 600 508 602 504 605 c 0
 469 632 426 647 375 647 c 0
 232 647 139 498 139 345 c 0
238 79 m 2
 235 74 235 73 240 68 c 0
 276 36 320 17 371 17 c 0
 536 17 615 179 615 333 c 0
 615 422 589 515 535 576 c 0
 530 581 530 583 526 576 c 2
 238 79 l 2
EndSplineSet
EndChar

StartChar: Ugrave
Encoding: 152 217 153
Width: 755
GlyphClass: 2
Flags: MW
HStem: -11 45<311 356> 634 30<52 58 58 66 51.5 95 252.5 260 517 523 523 531 696 697> 729 118<294.5 369 294.5 390>
VStem: 99 82<166 243.5> 275 119<730.5 828.5> 579 81
LayerCount: 2
Fore
SplineSet
275 822 m 0
 275 835 284 847 305 847 c 0
 320 847 330 836 339 822 c 2
 392 737 l 2
 393 735 394 733 394 731 c 0
 394 730 393 729 390 729 c 2
 369 729 l 2
 366 729 365 732 361 735 c 2
 289 795 l 2
 280 802 275 812 275 822 c 0
40 649 m 0
 40 664 45 664 58 664 c 0
 74 664 120 661 150 661 c 0
 180 661 241 664 264 664 c 0
 277 664 278 663 278 646 c 0
 278 634 276 634 260 634 c 2
 195 634 l 2
 186 634 181 272 181 228 c 0
 181 101 240 34 382 34 c 0
 467 34 526 69 554 88 c 0
 579 105 579 102 579 247 c 2
 579 552 l 2
 579 598 578 634 572 634 c 2
 523 634 l 2
 511 634 503 634 503 649 c 0
 503 664 510 664 523 664 c 0
 539 664 593 661 623 661 c 0
 653 661 691 664 701 664 c 0
 714 664 715 663 715 646 c 0
 715 634 713 634 697 634 c 2
 673 634 l 2
 662 634 664 472 660 317 c 0
 657 180 653 46 653 25 c 0
 653 17 652 -7 632 -7 c 0
 612 -7 593 66 570 66 c 0
 562 66 542 56 524 46 c 0
 477 19 394 -11 318 -11 c 0
 116 -11 99 105 99 227 c 0
 99 260 100 496 100 575 c 0
 100 611 100 634 95 634 c 2
 58 634 l 2
 46 634 40 634 40 649 c 0
EndSplineSet
EndChar

StartChar: Uacute
Encoding: 153 218 154
Width: 755
GlyphClass: 2
Flags: MW
HStem: -11 45<311 356> 634 30<52 58 58 66 51.5 95 252.5 260 517 523 523 531 696 697> 729 118<376.5 473.5 378 473.5>
VStem: 99 82<166 243.5> 374 119<730.5 828.5> 579 81
LayerCount: 2
Fore
SplineSet
374 731 m 0
 374 733 375 735 376 737 c 2
 429 822 l 2
 438 836 448 847 463 847 c 0
 484 847 493 835 493 822 c 0
 493 812 488 802 479 795 c 2
 407 735 l 2
 403 732 402 729 399 729 c 2
 378 729 l 2
 375 729 374 730 374 731 c 0
40 649 m 0
 40 664 45 664 58 664 c 0
 74 664 120 661 150 661 c 0
 180 661 241 664 264 664 c 0
 277 664 278 663 278 646 c 0
 278 634 276 634 260 634 c 2
 195 634 l 2
 186 634 181 272 181 228 c 0
 181 101 240 34 382 34 c 0
 467 34 526 69 554 88 c 0
 579 105 579 102 579 247 c 2
 579 552 l 2
 579 598 578 634 572 634 c 2
 523 634 l 2
 511 634 503 634 503 649 c 0
 503 664 510 664 523 664 c 0
 539 664 593 661 623 661 c 0
 653 661 691 664 701 664 c 0
 714 664 715 663 715 646 c 0
 715 634 713 634 697 634 c 2
 673 634 l 2
 662 634 664 472 660 317 c 0
 657 180 653 46 653 25 c 0
 653 17 652 -7 632 -7 c 0
 612 -7 593 66 570 66 c 0
 562 66 542 56 524 46 c 0
 477 19 394 -11 318 -11 c 0
 116 -11 99 105 99 227 c 0
 99 260 100 496 100 575 c 0
 100 611 100 634 95 634 c 2
 58 634 l 2
 46 634 40 634 40 649 c 0
EndSplineSet
EndChar

StartChar: Ucircumflex
Encoding: 154 219 155
Width: 755
GlyphClass: 2
Flags: MW
HStem: -11 45<311 356> 634 30<52 58 58 66 51.5 95 252.5 260 517 523 523 531 696 697> 729 110<277 396 279 396 372 480 372 489>
VStem: 99 82<166 243.5> 273 222<730.5 731.5> 579 81
LayerCount: 2
Fore
SplineSet
273 731 m 0
 273 732 275 734 277 737 c 2
 356 826 l 2
 366 837 367 839 372 839 c 2
 396 839 l 2
 401 839 402 837 412 826 c 2
 491 737 l 2
 493 735 495 732 495 731 c 0
 495 730 493 729 489 729 c 2
 480 729 l 2
 479 729 474 732 469 735 c 2
 388 780 l 2
 386 781 382 781 380 780 c 2
 299 735 l 2
 294 732 289 729 288 729 c 2
 279 729 l 2
 275 729 273 730 273 731 c 0
40 649 m 0
 40 664 45 664 58 664 c 0
 74 664 120 661 150 661 c 0
 180 661 241 664 264 664 c 0
 277 664 278 663 278 646 c 0
 278 634 276 634 260 634 c 2
 195 634 l 2
 186 634 181 272 181 228 c 0
 181 101 240 34 382 34 c 0
 467 34 526 69 554 88 c 0
 579 105 579 102 579 247 c 2
 579 552 l 2
 579 598 578 634 572 634 c 2
 523 634 l 2
 511 634 503 634 503 649 c 0
 503 664 510 664 523 664 c 0
 539 664 593 661 623 661 c 0
 653 661 691 664 701 664 c 0
 714 664 715 663 715 646 c 0
 715 634 713 634 697 634 c 2
 673 634 l 2
 662 634 664 472 660 317 c 0
 657 180 653 46 653 25 c 0
 653 17 652 -7 632 -7 c 0
 612 -7 593 66 570 66 c 0
 562 66 542 56 524 46 c 0
 477 19 394 -11 318 -11 c 0
 116 -11 99 105 99 227 c 0
 99 260 100 496 100 575 c 0
 100 611 100 634 95 634 c 2
 58 634 l 2
 46 634 40 634 40 649 c 0
EndSplineSet
EndChar

StartChar: Udieresis
Encoding: 155 220 156
Width: 755
GlyphClass: 2
Flags: MW
HStem: -11 45<311 356> 634 30<52 58 58 66 51.5 95 252.5 260 517 523 523 531 696 697> 742 96<301 308 461 468>
VStem: 99 82<166 243.5> 253 102<781 801> 413 102<781 801> 579 81
LayerCount: 2
Fore
SplineSet
253 783 m 0
 253 819 289 838 313 838 c 0
 334 838 355 827 355 798 c 0
 355 764 322 742 294 742 c 0
 273 742 253 755 253 783 c 0
413 783 m 0
 413 819 449 838 473 838 c 0
 494 838 515 827 515 798 c 0
 515 764 482 742 454 742 c 0
 433 742 413 755 413 783 c 0
40 649 m 0
 40 664 45 664 58 664 c 0
 74 664 120 661 150 661 c 0
 180 661 241 664 264 664 c 0
 277 664 278 663 278 646 c 0
 278 634 276 634 260 634 c 2
 195 634 l 2
 186 634 181 272 181 228 c 0
 181 101 240 34 382 34 c 0
 467 34 526 69 554 88 c 0
 579 105 579 102 579 247 c 2
 579 552 l 2
 579 598 578 634 572 634 c 2
 523 634 l 2
 511 634 503 634 503 649 c 0
 503 664 510 664 523 664 c 0
 539 664 593 661 623 661 c 0
 653 661 691 664 701 664 c 0
 714 664 715 663 715 646 c 0
 715 634 713 634 697 634 c 2
 673 634 l 2
 662 634 664 472 660 317 c 0
 657 180 653 46 653 25 c 0
 653 17 652 -7 632 -7 c 0
 612 -7 593 66 570 66 c 0
 562 66 542 56 524 46 c 0
 477 19 394 -11 318 -11 c 0
 116 -11 99 105 99 227 c 0
 99 260 100 496 100 575 c 0
 100 611 100 634 95 634 c 2
 58 634 l 2
 46 634 40 634 40 649 c 0
EndSplineSet
EndChar

StartChar: Yacute
Encoding: 156 221 157
Width: 597
GlyphClass: 2
Flags: MW
HStem: 0 27 639 30<22 28 28 36 21.5 57 234.5 242 413 421 421 428.5 563 571> 729 118<320.5 417.5 322 417.5>
VStem: 263 85<252 277> 318 119<730.5 828.5>
LayerCount: 2
Fore
SplineSet
318 731 m 0x28
 318 733 319 735 320 737 c 2
 373 822 l 2
 382 836 392 847 407 847 c 0
 428 847 437 835 437 822 c 0
 437 812 432 802 423 795 c 2
 351 735 l 2
 347 732 346 729 343 729 c 2
 322 729 l 2
 319 729 318 730 318 731 c 0x28
10 654 m 0xd0
 10 669 15 669 28 669 c 0
 44 669 101 666 131 666 c 0
 161 666 223 669 246 669 c 0
 259 669 260 668 260 651 c 0
 260 639 258 639 242 639 c 2
 183 639 l 2
 168 639 169 638 175 624 c 0
 196 573 288 407 317 351 c 0
 322 341 325 334 328 334 c 0
 331 334 334 339 339 348 c 0
 374 416 479 610 479 636 c 0
 479 638 478 639 477 639 c 2
 421 639 l 2
 405 639 403 639 403 651 c 0
 403 668 404 669 417 669 c 0
 440 669 465 666 495 666 c 0
 525 666 555 669 571 669 c 0
 584 669 587 669 587 654 c 0
 587 639 583 639 571 639 c 2
 535 639 l 2
 530 639 398 398 351 324 c 0
 348 319 348 316 348 313 c 0
 348 191 349 27 358 27 c 2
 429 27 l 2
 440 27 440 26 440 14 c 0
 440 -1 439 -3 429 -3 c 0
 406 -3 339 0 309 0 c 0
 279 0 220 -3 197 -3 c 0
 184 -3 183 -2 183 15 c 0
 183 27 185 27 201 27 c 2
 253 27 l 2
 262 27 263 137 263 271 c 0
 263 283 260 287 256 294 c 0
 222 356 65 639 57 639 c 2
 28 639 l 2
 16 639 10 639 10 654 c 0xd0
EndSplineSet
EndChar

StartChar: Thorn
Encoding: 157 222 158
Width: 591
GlyphClass: 2
Flags: MW
HStem: -3 30<48 55.5 280.5 292 292 297> 147 22<291 306 245 377.5> 498 23 639 27
VStem: 126 85<394 470> 460 86<278.5 391.5>
LayerCount: 2
Fore
SplineSet
30 15 m 0
 30 27 32 27 48 27 c 2
 116 27 l 2
 125 27 126 255 126 394 c 2
 126 492 l 2
 126 564 123 639 116 639 c 2
 54 639 l 2
 42 639 34 639 34 654 c 0
 34 669 41 669 54 669 c 0
 70 669 144 666 174 666 c 0
 204 666 266 669 289 669 c 0
 302 669 303 668 303 651 c 0
 303 639 301 639 285 639 c 2
 222 639 l 2
 215 639 212 587 211 537 c 0
 211 520 211 520 228 521 c 0
 259 522 293 524 306 524 c 0
 442 524 546 463 546 328 c 0
 546 200 448 147 307 147 c 0
 275 147 254 149 230 150 c 0
 216 150 212 152 212 137 c 0
 213 74 216 27 221 27 c 2
 292 27 l 2
 303 27 303 26 303 14 c 0
 303 -1 302 -3 292 -3 c 0
 269 -3 202 0 172 0 c 0
 142 0 67 -3 44 -3 c 0
 31 -3 30 -2 30 15 c 0
211 188 m 2
 211 179 213 173 225 171 c 0
 232 169 241 169 249 169 c 0
 363 169 460 214 460 343 c 0
 460 440 368 498 249 498 c 0
 238 498 225 498 214 497 c 0
 211 497 211 486 211 470 c 2
 211 188 l 2
EndSplineSet
EndChar

StartChar: germandbls
Encoding: 158 223 159
Width: 482
GlyphClass: 2
Flags: MW
HStem: -10 18<286 337 286 356> -2 27<42 58> 363 20<215.5 220> 656 22<200 282>
VStem: 86 71<155.5 261.5> 207 53 338 63<490.5 572> 378 74<120 235.5 117.5 249.5>
LayerCount: 2
Fore
SplineSet
30 12 m 0x7e
 30 21 32 25 42 25 c 2
 80 25 l 2
 85 25 86 108 86 203 c 0
 86 320 84 457 84 481 c 0
 84 585 131 678 256 678 c 0
 347 678 401 626 401 539 c 0x7e
 401 442 331 396 290 380 c 0
 275 374 266 374 266 373 c 0
 266 372 272 372 286 368 c 0
 334 354 452 307 452 164 c 0
 452 71 399 -10 313 -10 c 0
 253 -10 207 19 207 68 c 0
 207 93 217 101 242 109 c 0
 255 113 259 108 260 101 c 0
 263 66 257 8 315 8 c 0
 359 8 378 86 378 154 c 0xbd
 378 345 277 356 220 363 c 0
 211 364 211 383 220 383 c 0
 273 385 338 428 338 542 c 0
 338 602 323 656 241 656 c 0
 159 656 157 553 157 492 c 2
 157 17 l 2
 157 2 156 -1 149 -1 c 0
 144 -1 130 0 121 0 c 0
 96 0 73 -2 43 -2 c 0
 30 -2 30 1 30 12 c 0x7e
EndSplineSet
EndChar

StartChar: agrave
Encoding: 159 224 160
Width: 419
GlyphClass: 2
Flags: MW
HStem: -17 51<290 350> 374 25<175 223> 449 163<123.5 196 123.5 212>
VStem: 35 70<83 115.5> 49 68<299 302 299 309> 99 66<587 587 587 590> 267 65<58 307.5 192 307.5 242.5 270>
LayerCount: 2
Fore
SplineSet
99 582 m 0x24
 99 598 112 612 135 612 c 0
 149 612 159 603 165 587 c 2
 214 457 l 2
 215 455 216 452 216 451 c 0
 216 450 215 449 212 449 c 2
 196 449 l 2
 193 449 191 451 188 455 c 2
 106 562 l 2
 101 569 99 575 99 582 c 0x24
35 71 m 0xd2
 35 160 160 202 259 219 c 0
 267 220 267 227 267 235 c 0
 267 305 266 374 180 374 c 0
 170 374 159 373 149 369 c 0
 121 357 118 342 117 302 c 0
 117 296 116 285 110 281 c 0
 94 269 61 253 57 253 c 0
 52 253 49 257 49 268 c 0xca
 49 350 136 399 201 399 c 0
 302 399 332 347 332 268 c 0
 332 217 326 86 326 64 c 0
 326 55 330 34 348 34 c 0
 352 34 383 58 386 58 c 0
 390 58 399 49 399 43 c 0
 399 39 356 9 334 -6 c 0
 327 -11 318 -17 308 -17 c 0
 272 -17 270 39 268 39 c 0
 266 39 256 31 248 27 c 0
 228 15 175 -14 133 -14 c 0
 71 -14 35 20 35 71 c 0xd2
105 99 m 0xd2
 105 67 128 30 170 30 c 0
 214 30 267 53 267 58 c 2
 267 192 l 2
 267 199 266 203 261 203 c 0
 258 203 228 197 199 188 c 0
 152 173 105 146 105 99 c 0xd2
EndSplineSet
EndChar

StartChar: aacute
Encoding: 160 225 161
Width: 419
GlyphClass: 2
Flags: MW
HStem: -17 51<290 350> 374 25<175 223> 449 163<188.5 278.5 190 278.5>
VStem: 35 70<83 115.5> 49 68<299 302 299 309> 237 66<587 587> 267 65<58 307.5 192 307.5 242.5 270>
LayerCount: 2
Fore
SplineSet
186 451 m 0x24
 186 452 187 455 188 457 c 2
 237 587 l 2
 243 603 253 612 267 612 c 0
 290 612 303 598 303 582 c 0
 303 575 301 569 296 562 c 2
 214 455 l 2
 211 451 209 449 206 449 c 2
 190 449 l 2
 187 449 186 450 186 451 c 0x24
35 71 m 0xd2
 35 160 160 202 259 219 c 0
 267 220 267 227 267 235 c 0
 267 305 266 374 180 374 c 0
 170 374 159 373 149 369 c 0
 121 357 118 342 117 302 c 0
 117 296 116 285 110 281 c 0
 94 269 61 253 57 253 c 0
 52 253 49 257 49 268 c 0xca
 49 350 136 399 201 399 c 0
 302 399 332 347 332 268 c 0
 332 217 326 86 326 64 c 0
 326 55 330 34 348 34 c 0
 352 34 383 58 386 58 c 0
 390 58 399 49 399 43 c 0
 399 39 356 9 334 -6 c 0
 327 -11 318 -17 308 -17 c 0
 272 -17 270 39 268 39 c 0
 266 39 256 31 248 27 c 0
 228 15 175 -14 133 -14 c 0
 71 -14 35 20 35 71 c 0xd2
105 99 m 0xd2
 105 67 128 30 170 30 c 0
 214 30 267 53 267 58 c 2
 267 192 l 2
 267 199 266 203 261 203 c 0
 258 203 228 197 199 188 c 0
 152 173 105 146 105 99 c 0xd2
EndSplineSet
EndChar

StartChar: acircumflex
Encoding: 161 226 162
Width: 419
GlyphClass: 2
Flags: MW
HStem: -17 51<290 350> 374 25<175 223> 459 140<94.5 211 96 211 191 294 191 306>
VStem: 35 70<83 115.5> 49 68<299 302 299 309> 91 220<460.5 461.5> 267 65<58 307.5 192 307.5 242.5 270>
LayerCount: 2
Fore
SplineSet
91 461 m 0x24
 91 462 92 464 94 467 c 2
 173 586 l 2
 181 598 181 599 191 599 c 2
 211 599 l 2
 221 599 221 598 229 586 c 2
 308 467 l 2
 310 464 311 462 311 461 c 0
 311 460 310 459 306 459 c 2
 294 459 l 2
 293 459 291 461 286 465 c 2
 205 535 l 2
 201 538 201 538 197 535 c 2
 116 465 l 2
 112 461 109 459 108 459 c 2
 96 459 l 2
 93 459 91 460 91 461 c 0x24
35 71 m 0xd2
 35 160 160 202 259 219 c 0
 267 220 267 227 267 235 c 0
 267 305 266 374 180 374 c 0
 170 374 159 373 149 369 c 0
 121 357 118 342 117 302 c 0
 117 296 116 285 110 281 c 0
 94 269 61 253 57 253 c 0
 52 253 49 257 49 268 c 0xca
 49 350 136 399 201 399 c 0
 302 399 332 347 332 268 c 0
 332 217 326 86 326 64 c 0
 326 55 330 34 348 34 c 0
 352 34 383 58 386 58 c 0
 390 58 399 49 399 43 c 0
 399 39 356 9 334 -6 c 0
 327 -11 318 -17 308 -17 c 0
 272 -17 270 39 268 39 c 0
 266 39 256 31 248 27 c 0
 228 15 175 -14 133 -14 c 0
 71 -14 35 20 35 71 c 0xd2
105 99 m 0xd2
 105 67 128 30 170 30 c 0
 214 30 267 53 267 58 c 2
 267 192 l 2
 267 199 266 203 261 203 c 0
 258 203 228 197 199 188 c 0
 152 173 105 146 105 99 c 0xd2
EndSplineSet
EndChar

StartChar: atilde
Encoding: 162 227 163
Width: 419
GlyphClass: 2
Flags: MW
HStem: -17 51<290 350> 374 25<175 223> 496 45<235 249> 533 46<152 164>
VStem: 35 70<83 115.5> 49 68<299 302 299 309> 267 65<58 307.5 192 307.5 242.5 270> 284 19
LayerCount: 2
Fore
SplineSet
96 498 m 0x21
 96 503 101 517 104 524 c 0
 120 562 144 579 160 579 c 0x11
 191 579 222 541 248 541 c 0
 270 541 278 561 284 576 c 0
 286 583 287 583 296 583 c 0
 300 583 303 583 303 581 c 0
 303 574 299 562 296 554 c 0
 283 520 262 496 236 496 c 0x21
 201 496 180 533 148 533 c 0x11
 126 533 119 516 114 502 c 0
 112 496 111 496 103 496 c 0
 99 496 96 496 96 498 c 0x21
35 71 m 0xca
 35 160 160 202 259 219 c 0
 267 220 267 227 267 235 c 0
 267 305 266 374 180 374 c 0
 170 374 159 373 149 369 c 0
 121 357 118 342 117 302 c 0
 117 296 116 285 110 281 c 0
 94 269 61 253 57 253 c 0
 52 253 49 257 49 268 c 0xc6
 49 350 136 399 201 399 c 0
 302 399 332 347 332 268 c 0
 332 217 326 86 326 64 c 0
 326 55 330 34 348 34 c 0
 352 34 383 58 386 58 c 0
 390 58 399 49 399 43 c 0
 399 39 356 9 334 -6 c 0
 327 -11 318 -17 308 -17 c 0
 272 -17 270 39 268 39 c 0
 266 39 256 31 248 27 c 0
 228 15 175 -14 133 -14 c 0
 71 -14 35 20 35 71 c 0xca
105 99 m 0xca
 105 67 128 30 170 30 c 0
 214 30 267 53 267 58 c 2
 267 192 l 2
 267 199 266 203 261 203 c 0
 258 203 228 197 199 188 c 0
 152 173 105 146 105 99 c 0xca
EndSplineSet
EndChar

StartChar: adieresis
Encoding: 163 228 164
Width: 419
GlyphClass: 2
Flags: MW
HStem: -17 51<290 350> 374 25<175 223> 492 96<118 125 278 285>
VStem: 35 70<83 115.5> 49 68<299 302 299 309> 70 102<531 551> 230 102<531 551> 267 65<58 307.5 192 307.5 242.5 270>
LayerCount: 2
Fore
SplineSet
70 533 m 0x26
 70 569 106 588 130 588 c 0
 151 588 172 577 172 548 c 0
 172 514 139 492 111 492 c 0
 90 492 70 505 70 533 c 0x26
230 533 m 0
 230 569 266 588 290 588 c 0
 311 588 332 577 332 548 c 0
 332 514 299 492 271 492 c 0
 250 492 230 505 230 533 c 0
35 71 m 0xd1
 35 160 160 202 259 219 c 0
 267 220 267 227 267 235 c 0
 267 305 266 374 180 374 c 0
 170 374 159 373 149 369 c 0
 121 357 118 342 117 302 c 0
 117 296 116 285 110 281 c 0
 94 269 61 253 57 253 c 0
 52 253 49 257 49 268 c 0xc9
 49 350 136 399 201 399 c 0
 302 399 332 347 332 268 c 0
 332 217 326 86 326 64 c 0
 326 55 330 34 348 34 c 0
 352 34 383 58 386 58 c 0
 390 58 399 49 399 43 c 0
 399 39 356 9 334 -6 c 0
 327 -11 318 -17 308 -17 c 0
 272 -17 270 39 268 39 c 0
 266 39 256 31 248 27 c 0
 228 15 175 -14 133 -14 c 0
 71 -14 35 20 35 71 c 0xd1
105 99 m 0xd1
 105 67 128 30 170 30 c 0
 214 30 267 53 267 58 c 2
 267 192 l 2
 267 199 266 203 261 203 c 0
 258 203 228 197 199 188 c 0
 152 173 105 146 105 99 c 0xd1
EndSplineSet
EndChar

StartChar: aring
Encoding: 164 229 165
Width: 419
GlyphClass: 2
Flags: MW
HStem: -17 51<290 350> 374 25<175 223> 464 28<189 213 189 220.5> 578 28<189 213>
VStem: 35 70<83 115.5> 49 68<299 302 299 309> 130 28<523 547 523 554.5> 244 28<523 547> 267 65<58 307.5 192 307.5 242.5 270>
LayerCount: 2
Fore
SplineSet
130 535 m 0x33
 130 574 162 606 201 606 c 0
 240 606 272 574 272 535 c 0
 272 496 240 464 201 464 c 0
 162 464 130 496 130 535 c 0x33
158 535 m 0
 158 511 177 492 201 492 c 0
 225 492 244 511 244 535 c 0
 244 559 225 578 201 578 c 0
 177 578 158 559 158 535 c 0
35 71 m 0xc880
 35 160 160 202 259 219 c 0
 267 220 267 227 267 235 c 0
 267 305 266 374 180 374 c 0
 170 374 159 373 149 369 c 0
 121 357 118 342 117 302 c 0
 117 296 116 285 110 281 c 0
 94 269 61 253 57 253 c 0
 52 253 49 257 49 268 c 0xc480
 49 350 136 399 201 399 c 0
 302 399 332 347 332 268 c 0
 332 217 326 86 326 64 c 0
 326 55 330 34 348 34 c 0
 352 34 383 58 386 58 c 0
 390 58 399 49 399 43 c 0
 399 39 356 9 334 -6 c 0
 327 -11 318 -17 308 -17 c 0
 272 -17 270 39 268 39 c 0
 266 39 256 31 248 27 c 0
 228 15 175 -14 133 -14 c 0
 71 -14 35 20 35 71 c 0xc880
105 99 m 0xc880
 105 67 128 30 170 30 c 0
 214 30 267 53 267 58 c 2
 267 192 l 2
 267 199 266 203 261 203 c 0
 258 203 228 197 199 188 c 0
 152 173 105 146 105 99 c 0xc880
EndSplineSet
EndChar

StartChar: ae
Encoding: 165 230 166
Width: 649
GlyphClass: 2
Flags: MW
HStem: -15 44<149 156 436.5 496.5> 230 17<327.5 344.5> 373 25<175 223>
VStem: 35 70<82 114.5> 49 68<298 301 298 308> 267 63<66 255 191 255 252 255 252 269> 539 69<254 279 233 304>
LayerCount: 2
Fore
SplineSet
35 70 m 0xf6
 35 159 160 201 259 218 c 0
 267 219 267 226 267 234 c 0
 267 304 266 373 180 373 c 0
 170 373 159 372 149 368 c 0
 121 356 118 341 117 301 c 0
 117 295 116 284 110 280 c 0
 94 268 61 252 57 252 c 0
 52 252 49 256 49 267 c 0xee
 49 349 136 398 201 398 c 0
 258 398 293 381 312 353 c 0
 321 340 319 341 331 351 c 0
 365 379 409 396 459 396 c 0
 558 396 608 321 608 237 c 0
 608 229 566 225 554 225 c 0
 543 225 338 230 330 230 c 0
 325 230 325 208 325 194 c 0
 325 87 399 29 474 29 c 0
 554 29 600 94 603 94 c 0
 606 94 619 82 619 79 c 0
 619 73 547 -15 446 -15 c 0
 385 -15 337 5 305 39 c 0
 297 48 297 46 286 39 c 0
 244 13 179 -15 133 -15 c 0
 71 -15 35 19 35 70 c 0xf6
105 98 m 0xf6
 105 66 128 29 170 29 c 0
 198 29 230 38 249 46 c 0
 265 53 267 56 267 66 c 2
 267 191 l 2
 267 198 266 202 261 202 c 0
 258 202 228 196 199 187 c 0
 152 172 105 145 105 98 c 0xf6
330 255 m 0
 330 249 334 247 342 247 c 0
 347 247 449 249 499 251 c 0
 536 252 539 253 539 255 c 0
 539 353 479 374 447 374 c 0
 381 374 334 305 330 255 c 0
EndSplineSet
EndChar

StartChar: ccedilla
Encoding: 166 231 167
Width: 412
GlyphClass: 2
Flags: MW
HStem: -228 24<206 239 199.5 264> -103 35<242.5 248> -10 44<236 236> 372 27<192.5 266.5>
VStem: 35 65<160 241.5 160 251> 282 55<-157.5 -135.5> 317 57
LayerCount: 2
Fore
SplineSet
35 177 m 0xfc
 35 325 144 399 241 399 c 0
 306 399 374 354 374 303 c 0
 374 295 372 289 364 283 c 0
 355 276 343 270 334 270 c 0
 326 270 320 272 317 281 c 0xfa
 301 326 298 372 235 372 c 0
 150 372 100 281 100 202 c 0
 100 118 151 34 254 34 c 0
 323 34 367 64 375 64 c 0
 379 64 382 62 382 56 c 0
 382 50 327 -5 236 -10 c 1
 216 -65 l 2
 215 -69 213 -74 216 -74 c 0
 218 -74 233 -68 252 -68 c 0
 309 -68 337 -105 337 -136 c 0
 337 -179 297 -228 231 -228 c 0
 181 -228 148 -204 148 -200 c 0
 148 -197 148 -189 156 -189 c 0
 159 -189 183 -204 216 -204 c 0
 262 -204 282 -187 282 -148 c 0
 282 -123 269 -103 227 -103 c 0
 208 -103 193 -112 190 -112 c 0
 188 -112 182 -109 182 -107 c 0
 182 -105 207 -42 219 -10 c 1
 105 -8 35 66 35 177 c 0xfc
EndSplineSet
EndChar

StartChar: egrave
Encoding: 167 232 168
Width: 424
GlyphClass: 2
Flags: MW
HStem: -15 44<211.5 271.5> 230 17<102.5 119.5> 374 22<189 238> 449 163<150.5 223 150.5 239>
VStem: 30 75<123.5 255> 126 66<587 587 587 590> 314 69<254 279 233 304>
LayerCount: 2
Fore
SplineSet
126 582 m 0
 126 598 139 612 162 612 c 0
 176 612 186 603 192 587 c 2
 241 457 l 2
 242 455 243 452 243 451 c 0
 243 450 242 449 239 449 c 2
 223 449 l 2
 220 449 218 451 215 455 c 2
 133 562 l 2
 128 569 126 575 126 582 c 0
30 182 m 0
 30 302 113 396 234 396 c 0
 333 396 383 321 383 237 c 0
 383 229 341 225 329 225 c 0
 318 225 113 230 105 230 c 0
 100 230 100 208 100 194 c 0
 100 87 174 29 249 29 c 0
 329 29 375 94 378 94 c 0
 381 94 394 82 394 79 c 0
 394 73 322 -15 221 -15 c 0
 98 -15 30 65 30 182 c 0
105 255 m 0
 105 249 109 247 117 247 c 0
 122 247 224 249 274 251 c 0
 311 252 314 253 314 255 c 0
 314 353 254 374 222 374 c 0
 156 374 109 305 105 255 c 0
EndSplineSet
EndChar

StartChar: eacute
Encoding: 168 233 169
Width: 424
GlyphClass: 2
Flags: MW
HStem: -15 44<211.5 271.5> 230 17<102.5 119.5> 374 22<189 238> 449 163<215.5 305.5 217 305.5>
VStem: 30 75<123.5 255> 264 66<587 587> 314 69<254 279 233 304>
LayerCount: 2
Fore
SplineSet
213 451 m 0x14
 213 452 214 455 215 457 c 2
 264 587 l 2
 270 603 280 612 294 612 c 0
 317 612 330 598 330 582 c 0
 330 575 328 569 323 562 c 2
 241 455 l 2
 238 451 236 449 233 449 c 2
 217 449 l 2
 214 449 213 450 213 451 c 0x14
30 182 m 0xe2
 30 302 113 396 234 396 c 0
 333 396 383 321 383 237 c 0
 383 229 341 225 329 225 c 0
 318 225 113 230 105 230 c 0
 100 230 100 208 100 194 c 0
 100 87 174 29 249 29 c 0
 329 29 375 94 378 94 c 0
 381 94 394 82 394 79 c 0
 394 73 322 -15 221 -15 c 0
 98 -15 30 65 30 182 c 0xe2
105 255 m 0
 105 249 109 247 117 247 c 0
 122 247 224 249 274 251 c 0
 311 252 314 253 314 255 c 0
 314 353 254 374 222 374 c 0
 156 374 109 305 105 255 c 0
EndSplineSet
EndChar

StartChar: ecircumflex
Encoding: 169 234 170
Width: 424
GlyphClass: 2
Flags: MW
HStem: -15 44<211.5 271.5> 230 17<102.5 119.5> 374 22<189 238> 459 140<121.5 238 123 238 218 321 218 333>
VStem: 30 75<123.5 255> 118 220<460.5 461.5> 314 69<254 279 233 304>
LayerCount: 2
Fore
SplineSet
118 461 m 0x14
 118 462 119 464 121 467 c 2
 200 586 l 2
 208 598 208 599 218 599 c 2
 238 599 l 2
 248 599 248 598 256 586 c 2
 335 467 l 2
 337 464 338 462 338 461 c 0
 338 460 337 459 333 459 c 2
 321 459 l 2
 320 459 318 461 313 465 c 2
 232 535 l 2
 228 538 228 538 224 535 c 2
 143 465 l 2
 139 461 136 459 135 459 c 2
 123 459 l 2
 120 459 118 460 118 461 c 0x14
30 182 m 0xe2
 30 302 113 396 234 396 c 0
 333 396 383 321 383 237 c 0
 383 229 341 225 329 225 c 0
 318 225 113 230 105 230 c 0
 100 230 100 208 100 194 c 0
 100 87 174 29 249 29 c 0
 329 29 375 94 378 94 c 0
 381 94 394 82 394 79 c 0
 394 73 322 -15 221 -15 c 0
 98 -15 30 65 30 182 c 0xe2
105 255 m 0
 105 249 109 247 117 247 c 0
 122 247 224 249 274 251 c 0
 311 252 314 253 314 255 c 0
 314 353 254 374 222 374 c 0
 156 374 109 305 105 255 c 0
EndSplineSet
EndChar

StartChar: edieresis
Encoding: 170 235 171
Width: 424
GlyphClass: 2
Flags: MW
HStem: -15 44<211.5 271.5> 230 17<102.5 119.5> 374 22<189 238> 492 96<145 152 305 312>
VStem: 30 75<123.5 255> 97 102<531 551> 257 102<531 551> 314 69<254 279 233 304>
LayerCount: 2
Fore
SplineSet
97 533 m 0x16
 97 569 133 588 157 588 c 0
 178 588 199 577 199 548 c 0
 199 514 166 492 138 492 c 0
 117 492 97 505 97 533 c 0x16
257 533 m 0
 257 569 293 588 317 588 c 0
 338 588 359 577 359 548 c 0
 359 514 326 492 298 492 c 0
 277 492 257 505 257 533 c 0
30 182 m 0xe1
 30 302 113 396 234 396 c 0
 333 396 383 321 383 237 c 0
 383 229 341 225 329 225 c 0
 318 225 113 230 105 230 c 0
 100 230 100 208 100 194 c 0
 100 87 174 29 249 29 c 0
 329 29 375 94 378 94 c 0
 381 94 394 82 394 79 c 0
 394 73 322 -15 221 -15 c 0
 98 -15 30 65 30 182 c 0xe1
105 255 m 0
 105 249 109 247 117 247 c 0
 122 247 224 249 274 251 c 0
 311 252 314 253 314 255 c 0
 314 353 254 374 222 374 c 0
 156 374 109 305 105 255 c 0
EndSplineSet
EndChar

StartChar: igrave
Encoding: 171 236 172
Width: 249
GlyphClass: 2
Flags: MW
HStem: -2 27<43 49.5 203.5 213 213 218> 353 30 449 163<37.5 110 37.5 126>
VStem: 13 66<587 587 587 590> 96 68<110 207>
LayerCount: 2
Fore
SplineSet
13 582 m 0
 13 598 26 612 49 612 c 0
 63 612 73 603 79 587 c 2
 128 457 l 2
 129 455 130 452 130 451 c 0
 130 450 129 449 126 449 c 2
 110 449 l 2
 107 449 105 451 102 455 c 2
 20 562 l 2
 15 569 13 575 13 582 c 0
25 357 m 0
 25 360 25 362 29 370 c 0
 33 378 32 377 44 378 c 0
 63 379 152 383 157 383 c 0
 163 383 164 382 164 377 c 2
 164 207 l 2
 164 150 164 94 167 37 c 0
 167 28 167 25 177 25 c 2
 213 25 l 2
 223 25 224 21 224 12 c 0
 224 3 224 -2 213 -2 c 0
 194 -2 154 0 129 0 c 0
 104 0 59 -2 40 -2 c 0
 29 -2 29 1 29 12 c 0
 29 21 30 25 43 25 c 2
 84 25 l 2
 95 25 95 27 95 37 c 0
 96 66 96 95 96 125 c 0
 96 195 95 266 92 339 c 0
 91 354 89 355 79 355 c 0
 76 355 33 353 29 353 c 0
 26 353 25 354 25 357 c 0
EndSplineSet
EndChar

StartChar: iacute
Encoding: 172 237 173
Width: 249
GlyphClass: 2
Flags: MW
HStem: -2 27<43 49.5 203.5 213 213 218> 353 30 449 163<102.5 192.5 104 192.5>
VStem: 96 68<110 207> 151 66<587 587>
LayerCount: 2
Fore
SplineSet
100 451 m 0x28
 100 452 101 455 102 457 c 2
 151 587 l 2
 157 603 167 612 181 612 c 0
 204 612 217 598 217 582 c 0
 217 575 215 569 210 562 c 2
 128 455 l 2
 125 451 123 449 120 449 c 2
 104 449 l 2
 101 449 100 450 100 451 c 0x28
25 357 m 0xd0
 25 360 25 362 29 370 c 0
 33 378 32 377 44 378 c 0
 63 379 152 383 157 383 c 0
 163 383 164 382 164 377 c 2
 164 207 l 2
 164 150 164 94 167 37 c 0
 167 28 167 25 177 25 c 2
 213 25 l 2
 223 25 224 21 224 12 c 0
 224 3 224 -2 213 -2 c 0
 194 -2 154 0 129 0 c 0
 104 0 59 -2 40 -2 c 0
 29 -2 29 1 29 12 c 0
 29 21 30 25 43 25 c 2
 84 25 l 2
 95 25 95 27 95 37 c 0
 96 66 96 95 96 125 c 0
 96 195 95 266 92 339 c 0
 91 354 89 355 79 355 c 0
 76 355 33 353 29 353 c 0
 26 353 25 354 25 357 c 0xd0
EndSplineSet
EndChar

StartChar: icircumflex
Encoding: 173 238 174
Width: 249
GlyphClass: 2
Flags: MW
HStem: -2 27<43 49.5 203.5 213 213 218> 353 30 459 140<8.5 125 10 125 105 208 105 220>
VStem: 5 220<460.5 461.5> 96 68<110 207>
LayerCount: 2
Fore
SplineSet
5 461 m 0x30
 5 462 6 464 8 467 c 2
 87 586 l 2
 95 598 95 599 105 599 c 2
 125 599 l 2
 135 599 135 598 143 586 c 2
 222 467 l 2
 224 464 225 462 225 461 c 0
 225 460 224 459 220 459 c 2
 208 459 l 2
 207 459 205 461 200 465 c 2
 119 535 l 2
 115 538 115 538 111 535 c 2
 30 465 l 2
 26 461 23 459 22 459 c 2
 10 459 l 2
 7 459 5 460 5 461 c 0x30
25 357 m 0xc8
 25 360 25 362 29 370 c 0
 33 378 32 377 44 378 c 0
 63 379 152 383 157 383 c 0
 163 383 164 382 164 377 c 2
 164 207 l 2
 164 150 164 94 167 37 c 0
 167 28 167 25 177 25 c 2
 213 25 l 2
 223 25 224 21 224 12 c 0
 224 3 224 -2 213 -2 c 0
 194 -2 154 0 129 0 c 0
 104 0 59 -2 40 -2 c 0
 29 -2 29 1 29 12 c 0
 29 21 30 25 43 25 c 2
 84 25 l 2
 95 25 95 27 95 37 c 0
 96 66 96 95 96 125 c 0
 96 195 95 266 92 339 c 0
 91 354 89 355 79 355 c 0
 76 355 33 353 29 353 c 0
 26 353 25 354 25 357 c 0xc8
EndSplineSet
EndChar

StartChar: idieresis
Encoding: 174 239 175
Width: 249
GlyphClass: 2
Flags: MW
HStem: -2 27<43 49.5 203.5 213 213 218> 353 30 492 96<42 49 182 189>
VStem: -6 102<531 551> 96 68<110 207> 134 102<531 551>
LayerCount: 2
Fore
SplineSet
-6 533 m 0x34
 -6 569 30 588 54 588 c 0
 75 588 96 577 96 548 c 0
 96 514 63 492 35 492 c 0
 14 492 -6 505 -6 533 c 0x34
134 533 m 0
 134 569 170 588 194 588 c 0
 215 588 236 577 236 548 c 0
 236 514 203 492 175 492 c 0
 154 492 134 505 134 533 c 0
25 357 m 0xc8
 25 360 25 362 29 370 c 0
 33 378 32 377 44 378 c 0
 63 379 152 383 157 383 c 0
 163 383 164 382 164 377 c 2
 164 207 l 2
 164 150 164 94 167 37 c 0
 167 28 167 25 177 25 c 2
 213 25 l 2
 223 25 224 21 224 12 c 0
 224 3 224 -2 213 -2 c 0
 194 -2 154 0 129 0 c 0
 104 0 59 -2 40 -2 c 0
 29 -2 29 1 29 12 c 0
 29 21 30 25 43 25 c 2
 84 25 l 2
 95 25 95 27 95 37 c 0
 96 66 96 95 96 125 c 0
 96 195 95 266 92 339 c 0
 91 354 89 355 79 355 c 0
 76 355 33 353 29 353 c 0
 26 353 25 354 25 357 c 0xc8
EndSplineSet
EndChar

StartChar: eth
Encoding: 175 240 176
Width: 438
GlyphClass: 2
Flags: MW
HStem: -15 26<182 273 182 277> 370 25<184.5 229.5 163 268> 643 20G<104 148 148 154>
VStem: 30 73<149 243.5 149 246.5> 341 67<149.5 236>
LayerCount: 2
Fore
SplineSet
30 183 m 0
 30 310 108 395 218 395 c 0
 241 395 274 389 291 378 c 0
 299 373 305 368 308 368 c 0
 311 368 306 386 301 396 c 0
 290 421 270 468 233 519 c 0
 230 523 229 522 224 521 c 2
 110 491 l 2
 107 490 98 508 98 513 c 0
 98 514 197 539 207 542 c 0
 213 543 212 546 210 548 c 0
 179 586 150 620 104 655 c 0
 99 658 88 663 104 663 c 2
 148 663 l 2
 160 663 203 624 255 561 c 0
 259 556 259 556 266 558 c 2
 266 558 360 584 364 584 c 0
 367 584 378 569 378 564 c 0
 378 563 291 540 282 538 c 0
 278 537 277 532 279 530 c 0
 338 450 408 316 408 197 c 0
 408 74 334 -15 220 -15 c 0
 113 -15 30 70 30 183 c 0
103 192 m 0
 103 106 139 11 225 11 c 0
 321 11 341 106 341 193 c 0
 341 279 312 370 224 370 c 0
 145 370 103 295 103 192 c 0
EndSplineSet
EndChar

StartChar: ntilde
Encoding: 176 241 177
Width: 514
GlyphClass: 2
Flags: MW
HStem: -2 27<43 59 203.5 213 213 219 316 332 467.5 475 475 481> 342 42<275.5 310.5> 346 28 496 45<306 320> 533 46<223 235>
VStem: 95 68 303 131<5.5 44.5> 355 19 368 71<179.5 248>
LayerCount: 2
Fore
SplineSet
167 498 m 0x11
 167 503 172 517 175 524 c 0
 191 562 215 579 231 579 c 0x09
 262 579 293 541 319 541 c 0
 341 541 349 561 355 576 c 0
 357 583 358 583 367 583 c 0
 371 583 374 583 374 581 c 0
 374 574 370 562 367 554 c 0
 354 520 333 496 307 496 c 0x11
 272 496 251 533 219 533 c 0x09
 197 533 190 516 185 502 c 0
 183 496 182 496 174 496 c 0
 170 496 167 496 167 498 c 0x11
25 350 m 0xa480
 25 353 28 361 30 366 c 0
 33 374 31 373 45 374 c 0xa480
 59 375 122 379 150 381 c 0
 165 382 163 380 163 370 c 2
 163 328 l 2
 163 319 173 330 178 333 c 0
 208 352 245 384 306 384 c 0
 422 384 439 305 439 207 c 0xc480
 439 152 434 52 434 37 c 0
 434 26 435 25 445 25 c 2
 475 25 l 2
 487 25 489 24 489 12 c 0
 489 3 489 -2 477 -2 c 0
 458 -2 431 0 402 0 c 0
 377 0 347 -2 317 -2 c 0
 303 -2 303 0 303 11 c 0xc6
 303 23 306 25 316 25 c 2
 353 25 l 2
 363 25 363 25 364 36 c 0
 366 60 368 106 368 212 c 0
 368 284 349 342 272 342 c 0xc480
 232 342 203 324 183 314 c 0
 167 306 165 300 165 291 c 0
 165 209 164 126 164 44 c 0
 164 28 164 25 177 25 c 2
 213 25 l 2
 225 25 226 21 226 12 c 0
 226 3 226 -2 213 -2 c 0
 194 -2 161 0 132 0 c 0
 107 0 74 -2 44 -2 c 0
 31 -2 31 1 31 12 c 0
 31 21 33 25 43 25 c 2
 82 25 l 2
 92 25 91 28 92 43 c 0
 95 102 97 173 97 237 c 0
 97 271 97 305 95 336 c 0
 94 351 93 350 83 350 c 0
 80 350 32 346 28 346 c 0
 25 346 25 347 25 350 c 0xa480
EndSplineSet
EndChar

StartChar: ograve
Encoding: 177 242 178
Width: 446
GlyphClass: 2
Flags: MW
HStem: -15 26<180 269 180 281> 370 26<176 265> 449 163<152.5 225 152.5 241>
VStem: 30 71<131.5 224 131.5 242> 128 66<587 587 587 590> 343 73<159 243>
LayerCount: 2
Fore
SplineSet
128 582 m 0
 128 598 141 612 164 612 c 0
 178 612 188 603 194 587 c 2
 243 457 l 2
 244 455 245 452 245 451 c 0
 245 450 244 449 241 449 c 2
 225 449 l 2
 222 449 220 451 217 455 c 2
 135 562 l 2
 130 569 128 575 128 582 c 0
30 183 m 0
 30 301 112 396 235 396 c 0
 344 396 416 307 416 197 c 0
 416 74 343 -15 219 -15 c 0
 112 -15 30 74 30 183 c 0
101 169 m 0
 101 94 141 11 219 11 c 0
 319 11 343 114 343 204 c 0
 343 282 307 370 223 370 c 0
 129 370 101 279 101 169 c 0
EndSplineSet
EndChar

StartChar: oacute
Encoding: 178 243 179
Width: 446
GlyphClass: 2
Flags: MW
HStem: -15 26<180 269 180 281> 370 26<176 265> 449 163<217.5 307.5 219 307.5>
VStem: 30 71<131.5 224 131.5 242> 266 66<587 587> 343 73<159 243>
LayerCount: 2
Fore
SplineSet
215 451 m 0
 215 452 216 455 217 457 c 2
 266 587 l 2
 272 603 282 612 296 612 c 0
 319 612 332 598 332 582 c 0
 332 575 330 569 325 562 c 2
 243 455 l 2
 240 451 238 449 235 449 c 2
 219 449 l 2
 216 449 215 450 215 451 c 0
30 183 m 0
 30 301 112 396 235 396 c 0
 344 396 416 307 416 197 c 0
 416 74 343 -15 219 -15 c 0
 112 -15 30 74 30 183 c 0
101 169 m 0
 101 94 141 11 219 11 c 0
 319 11 343 114 343 204 c 0
 343 282 307 370 223 370 c 0
 129 370 101 279 101 169 c 0
EndSplineSet
EndChar

StartChar: ocircumflex
Encoding: 179 244 180
Width: 446
GlyphClass: 2
Flags: MW
HStem: -15 26<180 269 180 281> 370 26<176 265> 459 140<123.5 240 125 240 220 323 220 335>
VStem: 30 71<131.5 224 131.5 242> 120 220<460.5 461.5> 343 73<159 243>
LayerCount: 2
Fore
SplineSet
120 461 m 0
 120 462 121 464 123 467 c 2
 202 586 l 2
 210 598 210 599 220 599 c 2
 240 599 l 2
 250 599 250 598 258 586 c 2
 337 467 l 2
 339 464 340 462 340 461 c 0
 340 460 339 459 335 459 c 2
 323 459 l 2
 322 459 320 461 315 465 c 2
 234 535 l 2
 230 538 230 538 226 535 c 2
 145 465 l 2
 141 461 138 459 137 459 c 2
 125 459 l 2
 122 459 120 460 120 461 c 0
30 183 m 0
 30 301 112 396 235 396 c 0
 344 396 416 307 416 197 c 0
 416 74 343 -15 219 -15 c 0
 112 -15 30 74 30 183 c 0
101 169 m 0
 101 94 141 11 219 11 c 0
 319 11 343 114 343 204 c 0
 343 282 307 370 223 370 c 0
 129 370 101 279 101 169 c 0
EndSplineSet
EndChar

StartChar: otilde
Encoding: 180 245 181
Width: 446
GlyphClass: 2
Flags: MW
HStem: -15 26<180 269 180 281> 370 26<176 265> 496 45<264 278> 533 46<181 193>
VStem: 30 71<131.5 224 131.5 242> 313 19 343 73<159 243>
LayerCount: 2
Fore
SplineSet
125 498 m 0x24
 125 503 130 517 133 524 c 0
 149 562 173 579 189 579 c 0x14
 220 579 251 541 277 541 c 0
 299 541 307 561 313 576 c 0
 315 583 316 583 325 583 c 0
 329 583 332 583 332 581 c 0
 332 574 328 562 325 554 c 0
 312 520 291 496 265 496 c 0x24
 230 496 209 533 177 533 c 0x14
 155 533 148 516 143 502 c 0
 141 496 140 496 132 496 c 0
 128 496 125 496 125 498 c 0x24
30 183 m 0xca
 30 301 112 396 235 396 c 0
 344 396 416 307 416 197 c 0
 416 74 343 -15 219 -15 c 0
 112 -15 30 74 30 183 c 0xca
101 169 m 0
 101 94 141 11 219 11 c 0
 319 11 343 114 343 204 c 0
 343 282 307 370 223 370 c 0
 129 370 101 279 101 169 c 0
EndSplineSet
EndChar

StartChar: odieresis
Encoding: 181 246 182
Width: 446
GlyphClass: 2
Flags: MW
HStem: -15 26<180 269 180 281> 370 26<176 265> 492 96<147 154 307 314>
VStem: 30 71<131.5 224 131.5 242> 99 102<531 551> 259 102<531 551> 343 73<159 243>
LayerCount: 2
Fore
SplineSet
99 533 m 0x2c
 99 569 135 588 159 588 c 0
 180 588 201 577 201 548 c 0
 201 514 168 492 140 492 c 0
 119 492 99 505 99 533 c 0x2c
259 533 m 0
 259 569 295 588 319 588 c 0
 340 588 361 577 361 548 c 0
 361 514 328 492 300 492 c 0
 279 492 259 505 259 533 c 0
30 183 m 0xd2
 30 301 112 396 235 396 c 0
 344 396 416 307 416 197 c 0
 416 74 343 -15 219 -15 c 0
 112 -15 30 74 30 183 c 0xd2
101 169 m 0
 101 94 141 11 219 11 c 0
 319 11 343 114 343 204 c 0
 343 282 307 370 223 370 c 0
 129 370 101 279 101 169 c 0
EndSplineSet
EndChar

StartChar: divide
Encoding: 182 247 183
Width: 527
GlyphClass: 2
Flags: MW
HStem: 60 81<248 269 247 270> 188 44<39 480 49 475> 280 81<243 264>
VStem: 217 82<89.5 111 89 112>
LayerCount: 2
Fore
SplineSet
31 212 m 0
 31 225 31 232 49 232 c 2
 480 232 l 2
 496 232 496 225 496 211 c 0
 496 194 496 188 475 188 c 2
 48 188 l 2
 30 188 31 195 31 212 c 0
212 320 m 0
 212 342 232 361 254 361 c 0
 276 361 294 343 294 321 c 0
 294 299 275 280 253 280 c 0
 231 280 212 298 212 320 c 0
217 101 m 0
 217 123 236 141 258 141 c 0
 280 141 299 122 299 100 c 0
 299 78 281 60 259 60 c 0
 237 60 217 78 217 101 c 0
EndSplineSet
EndChar

StartChar: oslash
Encoding: 183 248 184
Width: 446
GlyphClass: 2
Flags: MW
HStem: -15 26<205 269 205 281> 370 26<176 235>
VStem: 30 71<152 224 152 242> 343 73<159 224.5>
LayerCount: 2
Fore
SplineSet
30 183 m 0
 30 301 112 396 235 396 c 0
 259 396 282 391 302 383 c 0
 311 380 310 379 315 387 c 2
 353 452 l 1
 353 452 354 454 357 454 c 0
 363 454 377 445 375 442 c 2
 336 375 l 2
 333 370 331 369 336 365 c 0
 386 330 416 268 416 197 c 0
 416 74 343 -15 219 -15 c 0
 187 -15 157 -7 131 7 c 0
 126 10 126 10 123 5 c 2
 85 -61 l 2
 84 -62 83 -63 82 -63 c 0
 76 -63 64 -54 64 -51 c 0
 64 -50 65 -48 65 -48 c 1
 103 18 l 2
 106 23 104 25 99 29 c 0
 56 65 30 121 30 183 c 0
101 169 m 0
 101 135 110 99 126 70 c 0
 129 63 130 65 134 72 c 2
 288 339 l 2
 291 344 290 346 284 350 c 0
 267 362 247 370 223 370 c 0
 129 370 101 279 101 169 c 0
146 44 m 0
 146 43 147 42 149 40 c 0
 167 22 191 11 219 11 c 0
 319 11 343 114 343 204 c 0
 343 245 333 288 312 320 c 0
 310 322 310 324 309 324 c 0
 308 324 307 322 305 320 c 2
 149 50 l 2
 147 47 146 45 146 44 c 0
EndSplineSet
EndChar

StartChar: ugrave
Encoding: 184 249 185
Width: 510
GlyphClass: 2
Flags: MW
HStem: -11 50<141.5 277> 0 26 355 25 449 163<162.5 235 162.5 251>
VStem: 80 70<122 279 279 301> 138 66<587 587 587 590> 352 68<55 110 54.5 173 54.5 188>
LayerCount: 2
Fore
SplineSet
138 582 m 0x14
 138 598 151 612 174 612 c 0
 188 612 198 603 204 587 c 2
 253 457 l 2
 254 455 255 452 255 451 c 0
 255 450 254 449 251 449 c 2
 235 449 l 2
 232 449 230 451 227 455 c 2
 145 562 l 2
 140 569 138 575 138 582 c 0x14
15 360 m 0xaa
 15 363 16 366 18 371 c 0
 21 379 21 379 33 380 c 0
 55 381 138 384 143 384 c 0
 149 384 150 383 150 378 c 2
 150 106 l 2
 150 50 202 39 261 39 c 0xaa
 293 39 352 43 352 55 c 2
 352 173 l 2
 352 203 350 359 344 359 c 0
 341 359 296 357 292 357 c 0
 289 357 288 358 288 361 c 0
 290 376 288 380 301 381 c 0
 320 382 409 386 414 386 c 0
 420 386 421 385 421 380 c 2
 421 380 420 141 420 79 c 0
 420 30 423 20 439 20 c 0
 442 20 478 26 480 26 c 0
 484 26 485 22 485 16 c 0
 485 2 484 2 471 0 c 0x6a
 437 -5 374 -15 367 -15 c 0
 361 -15 357 -13 356 -2 c 0
 355 13 355 36 352 36 c 0
 347 36 264 -11 189 -11 c 0
 94 -11 80 55 80 122 c 2
 80 279 l 2
 80 323 80 356 68 356 c 0
 65 356 23 355 19 355 c 0
 16 355 15 357 15 360 c 0xaa
EndSplineSet
EndChar

StartChar: uacute
Encoding: 185 250 186
Width: 510
GlyphClass: 2
Flags: MW
HStem: -11 50<141.5 277> 0 26 355 25 449 163<227.5 317.5 229 317.5>
VStem: 80 70<122 279 279 301> 276 66<587 587> 352 68<55 110 54.5 173 54.5 188>
LayerCount: 2
Fore
SplineSet
225 451 m 0x14
 225 452 226 455 227 457 c 2
 276 587 l 2
 282 603 292 612 306 612 c 0
 329 612 342 598 342 582 c 0
 342 575 340 569 335 562 c 2
 253 455 l 2
 250 451 248 449 245 449 c 2
 229 449 l 2
 226 449 225 450 225 451 c 0x14
15 360 m 0xaa
 15 363 16 366 18 371 c 0
 21 379 21 379 33 380 c 0
 55 381 138 384 143 384 c 0
 149 384 150 383 150 378 c 2
 150 106 l 2
 150 50 202 39 261 39 c 0xaa
 293 39 352 43 352 55 c 2
 352 173 l 2
 352 203 350 359 344 359 c 0
 341 359 296 357 292 357 c 0
 289 357 288 358 288 361 c 0
 290 376 288 380 301 381 c 0
 320 382 409 386 414 386 c 0
 420 386 421 385 421 380 c 2
 421 380 420 141 420 79 c 0
 420 30 423 20 439 20 c 0
 442 20 478 26 480 26 c 0
 484 26 485 22 485 16 c 0
 485 2 484 2 471 0 c 0x6a
 437 -5 374 -15 367 -15 c 0
 361 -15 357 -13 356 -2 c 0
 355 13 355 36 352 36 c 0
 347 36 264 -11 189 -11 c 0
 94 -11 80 55 80 122 c 2
 80 279 l 2
 80 323 80 356 68 356 c 0
 65 356 23 355 19 355 c 0
 16 355 15 357 15 360 c 0xaa
EndSplineSet
EndChar

StartChar: ucircumflex
Encoding: 186 251 187
Width: 510
GlyphClass: 2
Flags: MW
HStem: -11 50<141.5 277> 0 26 355 25 459 140<133.5 250 135 250 230 333 230 345>
VStem: 80 70<122 279 279 301> 130 220<460.5 461.5> 352 68<55 110 54.5 173 54.5 188>
LayerCount: 2
Fore
SplineSet
130 461 m 0x14
 130 462 131 464 133 467 c 2
 212 586 l 2
 220 598 220 599 230 599 c 2
 250 599 l 2
 260 599 260 598 268 586 c 2
 347 467 l 2
 349 464 350 462 350 461 c 0
 350 460 349 459 345 459 c 2
 333 459 l 2
 332 459 330 461 325 465 c 2
 244 535 l 2
 240 538 240 538 236 535 c 2
 155 465 l 2
 151 461 148 459 147 459 c 2
 135 459 l 2
 132 459 130 460 130 461 c 0x14
15 360 m 0xaa
 15 363 16 366 18 371 c 0
 21 379 21 379 33 380 c 0
 55 381 138 384 143 384 c 0
 149 384 150 383 150 378 c 2
 150 106 l 2
 150 50 202 39 261 39 c 0xaa
 293 39 352 43 352 55 c 2
 352 173 l 2
 352 203 350 359 344 359 c 0
 341 359 296 357 292 357 c 0
 289 357 288 358 288 361 c 0
 290 376 288 380 301 381 c 0
 320 382 409 386 414 386 c 0
 420 386 421 385 421 380 c 2
 421 380 420 141 420 79 c 0
 420 30 423 20 439 20 c 0
 442 20 478 26 480 26 c 0
 484 26 485 22 485 16 c 0
 485 2 484 2 471 0 c 0x6a
 437 -5 374 -15 367 -15 c 0
 361 -15 357 -13 356 -2 c 0
 355 13 355 36 352 36 c 0
 347 36 264 -11 189 -11 c 0
 94 -11 80 55 80 122 c 2
 80 279 l 2
 80 323 80 356 68 356 c 0
 65 356 23 355 19 355 c 0
 16 355 15 357 15 360 c 0xaa
EndSplineSet
EndChar

StartChar: udieresis
Encoding: 187 252 188
Width: 510
GlyphClass: 2
Flags: MW
HStem: -11 50<141.5 277> 0 26 355 25 492 96<157 164 317 324>
VStem: 80 70<122 279 279 301> 109 102<531 551> 269 102<531 551> 352 68<55 110 54.5 173 54.5 188>
LayerCount: 2
Fore
SplineSet
109 533 m 0x16
 109 569 145 588 169 588 c 0
 190 588 211 577 211 548 c 0
 211 514 178 492 150 492 c 0
 129 492 109 505 109 533 c 0x16
269 533 m 0
 269 569 305 588 329 588 c 0
 350 588 371 577 371 548 c 0
 371 514 338 492 310 492 c 0
 289 492 269 505 269 533 c 0
15 360 m 0xa9
 15 363 16 366 18 371 c 0
 21 379 21 379 33 380 c 0
 55 381 138 384 143 384 c 0
 149 384 150 383 150 378 c 2
 150 106 l 2
 150 50 202 39 261 39 c 0xa9
 293 39 352 43 352 55 c 2
 352 173 l 2
 352 203 350 359 344 359 c 0
 341 359 296 357 292 357 c 0
 289 357 288 358 288 361 c 0
 290 376 288 380 301 381 c 0
 320 382 409 386 414 386 c 0
 420 386 421 385 421 380 c 2
 421 380 420 141 420 79 c 0
 420 30 423 20 439 20 c 0
 442 20 478 26 480 26 c 0
 484 26 485 22 485 16 c 0
 485 2 484 2 471 0 c 0x69
 437 -5 374 -15 367 -15 c 0
 361 -15 357 -13 356 -2 c 0
 355 13 355 36 352 36 c 0
 347 36 264 -11 189 -11 c 0
 94 -11 80 55 80 122 c 2
 80 279 l 2
 80 323 80 356 68 356 c 0
 65 356 23 355 19 355 c 0
 16 355 15 357 15 360 c 0xa9
EndSplineSet
EndChar

StartChar: yacute
Encoding: 188 253 189
Width: 467
GlyphClass: 2
Flags: MW
HStem: -295 21<56 66> 355 27<32 38 38 47.5 31.5 49 191 201 303.5 309 309 319.5 421.5 430> 449 163<238.5 328.5 240 328.5>
VStem: 287 66<587 587>
LayerCount: 2
Fore
SplineSet
236 451 m 0
 236 452 237 455 238 457 c 2
 287 587 l 2
 293 603 303 612 317 612 c 0
 340 612 353 598 353 582 c 0
 353 575 351 569 346 562 c 2
 264 455 l 2
 261 451 259 449 256 449 c 2
 240 449 l 2
 237 449 236 450 236 451 c 0
25 368 m 0
 25 377 25 382 38 382 c 0
 57 382 83 380 112 380 c 0
 137 380 182 382 200 382 c 0
 213 382 213 379 213 368 c 0
 213 359 211 355 201 355 c 2
 182 355 l 2
 169 355 156 354 156 345 c 0
 156 327 214 172 245 96 c 0
 256 69 262 56 264 56 c 0
 266 56 272 70 281 96 c 0
 309 175 363 335 363 348 c 0
 363 355 355 355 332 355 c 2
 309 355 l 2
 297 355 296 359 296 368 c 0
 296 377 297 382 310 382 c 0
 329 382 354 380 374 380 c 0
 396 380 414 382 429 382 c 0
 439 382 442 379 442 368 c 0
 442 359 440 355 430 355 c 2
 416 355 l 2
 408 355 406 354 403 345 c 0
 387 301 278 23 270 3 c 0
 267 -4 249 -59 230 -114 c 0
 212 -165 209 -181 166 -234 c 0
 151 -253 150 -257 125 -269 c 0
 100 -281 69 -295 63 -295 c 0
 49 -295 45 -284 45 -275 c 0
 45 -263 54 -247 64 -233 c 0
 70 -224 83 -218 92 -215 c 0
 118 -205 171 -193 182 -164 c 0
 199 -122 226 -55 226 -43 c 0
 226 -26 111 240 70 340 c 0
 64 355 64 355 49 355 c 2
 38 355 l 2
 26 355 25 359 25 368 c 0
EndSplineSet
EndChar

StartChar: thorn
Encoding: 189 254 190
Width: 498
GlyphClass: 2
Flags: MW
HStem: -279 25 -9 19<243.5 298 235.5 319.5> 348 35<271 298> 646 32
VStem: 87 75 96 68<110 134.5> 391 72<147 236>
LayerCount: 2
Fore
SplineSet
20 645 m 0xfa
 20 648 21 654 22 661 c 0
 24 669 23 668 32 669 c 0
 72 672 149 678 155 678 c 0
 162 678 162 675 162 663 c 0xfa
 163 533 163 365 163 342 c 0
 163 335 163 332 165 332 c 0
 168 332 175 339 184 346 c 0
 207 363 250 383 292 383 c 0
 407 383 463 300 463 194 c 0
 463 93 385 -9 254 -9 c 0
 233 -9 207 -4 188 2 c 0
 175 6 164 13 164 2 c 2
 167 -187 l 2
 168 -225 167 -254 173 -254 c 2
 243 -254 l 2
 255 -254 256 -258 256 -267 c 0
 256 -276 256 -281 243 -281 c 0
 224 -281 166 -279 137 -279 c 0
 112 -279 70 -281 40 -281 c 0
 27 -281 27 -278 27 -267 c 0
 27 -258 29 -254 39 -254 c 2
 94 -254 l 2
 97 -254 97 -173 97 -94 c 2
 96 110 l 2xf6
 96 159 95 538 87 627 c 0
 85 644 86 646 76 646 c 0
 71 646 32 642 28 642 c 0
 21 642 20 642 20 645 c 0xfa
164 52 m 2xf6
 164 28 220 10 251 10 c 0
 345 10 391 107 391 187 c 0
 391 285 335 348 261 348 c 0
 233 348 212 342 197 335 c 0
 165 319 164 306 164 302 c 2
 164 52 l 2xf6
EndSplineSet
EndChar

StartChar: ydieresis
Encoding: 190 255 191
Width: 467
GlyphClass: 2
Flags: MW
HStem: -295 21<56 66> 355 27<32 38 38 47.5 31.5 49 191 201 303.5 309 309 319.5 421.5 430> 492 96<168 175 328 335>
VStem: 120 102<531 551> 280 102<531 551>
LayerCount: 2
Fore
SplineSet
120 533 m 0
 120 569 156 588 180 588 c 0
 201 588 222 577 222 548 c 0
 222 514 189 492 161 492 c 0
 140 492 120 505 120 533 c 0
280 533 m 0
 280 569 316 588 340 588 c 0
 361 588 382 577 382 548 c 0
 382 514 349 492 321 492 c 0
 300 492 280 505 280 533 c 0
25 368 m 0
 25 377 25 382 38 382 c 0
 57 382 83 380 112 380 c 0
 137 380 182 382 200 382 c 0
 213 382 213 379 213 368 c 0
 213 359 211 355 201 355 c 2
 182 355 l 2
 169 355 156 354 156 345 c 0
 156 327 214 172 245 96 c 0
 256 69 262 56 264 56 c 0
 266 56 272 70 281 96 c 0
 309 175 363 335 363 348 c 0
 363 355 355 355 332 355 c 2
 309 355 l 2
 297 355 296 359 296 368 c 0
 296 377 297 382 310 382 c 0
 329 382 354 380 374 380 c 0
 396 380 414 382 429 382 c 0
 439 382 442 379 442 368 c 0
 442 359 440 355 430 355 c 2
 416 355 l 2
 408 355 406 354 403 345 c 0
 387 301 278 23 270 3 c 0
 267 -4 249 -59 230 -114 c 0
 212 -165 209 -181 166 -234 c 0
 151 -253 150 -257 125 -269 c 0
 100 -281 69 -295 63 -295 c 0
 49 -295 45 -284 45 -275 c 0
 45 -263 54 -247 64 -233 c 0
 70 -224 83 -218 92 -215 c 0
 118 -205 171 -193 182 -164 c 0
 199 -122 226 -55 226 -43 c 0
 226 -26 111 240 70 340 c 0
 64 355 64 355 49 355 c 2
 38 355 l 2
 26 355 25 359 25 368 c 0
EndSplineSet
EndChar

StartChar: Amacron
Encoding: 191 256 192
Width: 698
GlyphClass: 2
Flags: MW
HStem: -3 30<48 55.5 197.5 209 209 214 470 477.5 659.5 667 667 672> 275 24<224.5 426 247 426 426 431 247 435> 667 20<380 385.5> 779 40<273.5 465 278 465>
VStem: 269 204<788 811 811 812 783 815>
LayerCount: 2
Fore
SplineSet
269 788 m 2
 269 811 l 2
 269 819 270 819 278 819 c 2
 465 819 l 2
 472 819 473 819 473 812 c 2
 473 787 l 2
 473 779 473 779 465 779 c 2
 278 779 l 2
 269 779 269 779 269 788 c 2
30 15 m 0
 30 27 32 27 48 27 c 2
 76 27 l 2
 87 27 208 326 222 358 c 2
 328 604 l 2
 336 624 353 633 364 660 c 0
 370 674 377 687 383 687 c 0
 388 687 391 684 392 680 c 2
 512 343 l 2
 553 229 623 27 635 27 c 2
 667 27 l 2
 678 27 678 26 678 14 c 0
 678 -1 677 -3 667 -3 c 0
 652 -3 607 0 577 0 c 0
 547 0 489 -3 466 -3 c 0
 453 -3 452 -2 452 15 c 0
 452 27 454 27 470 27 c 2
 524 27 l 2
 525 27 525 28 525 30 c 0
 525 54 475 200 455 256 c 0
 449 274 450 275 435 275 c 2
 234 275 l 2
 215 275 216 270 211 257 c 0
 185 191 130 52 130 30 c 0
 130 28 130 27 131 27 c 2
 209 27 l 2
 220 27 220 26 220 14 c 0
 220 -1 219 -3 209 -3 c 0
 186 -3 147 0 117 0 c 0
 87 0 67 -3 44 -3 c 0
 31 -3 30 -2 30 15 c 0
231 305 m 0
 231 301 235 299 247 299 c 2
 426 299 l 2
 436 299 439 301 439 304 c 0
 439 307 437 311 435 317 c 2
 352 560 l 2
 348 573 346 579 344 579 c 0
 342 579 339 572 334 560 c 2
 236 320 l 2
 233 313 231 308 231 305 c 0
EndSplineSet
EndChar

StartChar: amacron
Encoding: 192 257 193
Width: 419
GlyphClass: 2
Flags: MW
HStem: -17 51<290 350> 374 25<175 223> 509 40<103.5 295 108 295>
VStem: 35 70<83 115.5> 49 68<299 302 299 309> 99 204<518 541 541 542 513 545> 267 65<58 307.5 192 307.5 242.5 270>
LayerCount: 2
Fore
SplineSet
99 518 m 2x24
 99 541 l 2
 99 549 100 549 108 549 c 2
 295 549 l 2
 302 549 303 549 303 542 c 2
 303 517 l 2
 303 509 303 509 295 509 c 2
 108 509 l 2
 99 509 99 509 99 518 c 2x24
35 71 m 0xd2
 35 160 160 202 259 219 c 0
 267 220 267 227 267 235 c 0
 267 305 266 374 180 374 c 0
 170 374 159 373 149 369 c 0
 121 357 118 342 117 302 c 0
 117 296 116 285 110 281 c 0
 94 269 61 253 57 253 c 0
 52 253 49 257 49 268 c 0xca
 49 350 136 399 201 399 c 0
 302 399 332 347 332 268 c 0
 332 217 326 86 326 64 c 0
 326 55 330 34 348 34 c 0
 352 34 383 58 386 58 c 0
 390 58 399 49 399 43 c 0
 399 39 356 9 334 -6 c 0
 327 -11 318 -17 308 -17 c 0
 272 -17 270 39 268 39 c 0
 266 39 256 31 248 27 c 0
 228 15 175 -14 133 -14 c 0
 71 -14 35 20 35 71 c 0xd2
105 99 m 0xd2
 105 67 128 30 170 30 c 0
 214 30 267 53 267 58 c 2
 267 192 l 2
 267 199 266 203 261 203 c 0
 258 203 228 197 199 188 c 0
 152 173 105 146 105 99 c 0xd2
EndSplineSet
EndChar

StartChar: Abreve
Encoding: 193 258 194
Width: 698
GlyphClass: 2
Flags: MW
HStem: -3 30<48 55.5 197.5 209 209 214 470 477.5 659.5 667 667 672> 275 24<224.5 426 247 426 426 431 247 435> 667 20<380 385.5> 729 50<335.5 406.5>
VStem: 268 206<803.5 833.5>
LayerCount: 2
Fore
SplineSet
268 832 m 0
 268 835 268 838 269 838 c 2
 286 838 l 2
 292 838 279 779 371 779 c 0
 463 779 450 838 456 838 c 2
 473 838 l 2
 474 838 474 835 474 832 c 0
 474 775 442 729 371 729 c 0
 300 729 268 775 268 832 c 0
30 15 m 0
 30 27 32 27 48 27 c 2
 76 27 l 2
 87 27 208 326 222 358 c 2
 328 604 l 2
 336 624 353 633 364 660 c 0
 370 674 377 687 383 687 c 0
 388 687 391 684 392 680 c 2
 512 343 l 2
 553 229 623 27 635 27 c 2
 667 27 l 2
 678 27 678 26 678 14 c 0
 678 -1 677 -3 667 -3 c 0
 652 -3 607 0 577 0 c 0
 547 0 489 -3 466 -3 c 0
 453 -3 452 -2 452 15 c 0
 452 27 454 27 470 27 c 2
 524 27 l 2
 525 27 525 28 525 30 c 0
 525 54 475 200 455 256 c 0
 449 274 450 275 435 275 c 2
 234 275 l 2
 215 275 216 270 211 257 c 0
 185 191 130 52 130 30 c 0
 130 28 130 27 131 27 c 2
 209 27 l 2
 220 27 220 26 220 14 c 0
 220 -1 219 -3 209 -3 c 0
 186 -3 147 0 117 0 c 0
 87 0 67 -3 44 -3 c 0
 31 -3 30 -2 30 15 c 0
231 305 m 0
 231 301 235 299 247 299 c 2
 426 299 l 2
 436 299 439 301 439 304 c 0
 439 307 437 311 435 317 c 2
 352 560 l 2
 348 573 346 579 344 579 c 0
 342 579 339 572 334 560 c 2
 236 320 l 2
 233 313 231 308 231 305 c 0
EndSplineSet
EndChar

StartChar: abreve
Encoding: 194 259 195
Width: 419
GlyphClass: 2
Flags: MW
HStem: -17 51<290 350> 374 25<175 223> 459 53<178.5 223.5 178.5 237>
VStem: 35 70<83 115.5> 49 68<299 302 299 309> 98 28 267 65<58 307.5 192 307.5 242.5 270> 276 28
LayerCount: 2
Fore
SplineSet
98 579 m 0x25
 98 583 98 586 99 586 c 2
 116 586 l 2
 117 586 118 570 126 553 c 0
 138 530 156 512 201 512 c 0
 246 512 264 530 276 553 c 0
 284 570 285 586 286 586 c 2
 303 586 l 2
 304 586 304 583 304 580 c 0
 304 523 273 459 201 459 c 0
 128 459 98 523 98 579 c 0x25
35 71 m 0xd2
 35 160 160 202 259 219 c 0
 267 220 267 227 267 235 c 0
 267 305 266 374 180 374 c 0
 170 374 159 373 149 369 c 0
 121 357 118 342 117 302 c 0
 117 296 116 285 110 281 c 0
 94 269 61 253 57 253 c 0
 52 253 49 257 49 268 c 0xca
 49 350 136 399 201 399 c 0
 302 399 332 347 332 268 c 0
 332 217 326 86 326 64 c 0
 326 55 330 34 348 34 c 0
 352 34 383 58 386 58 c 0
 390 58 399 49 399 43 c 0
 399 39 356 9 334 -6 c 0
 327 -11 318 -17 308 -17 c 0
 272 -17 270 39 268 39 c 0
 266 39 256 31 248 27 c 0
 228 15 175 -14 133 -14 c 0
 71 -14 35 20 35 71 c 0xd2
105 99 m 0xd2
 105 67 128 30 170 30 c 0
 214 30 267 53 267 58 c 2
 267 192 l 2
 267 199 266 203 261 203 c 0
 258 203 228 197 199 188 c 0
 152 173 105 146 105 99 c 0xd2
EndSplineSet
EndChar

StartChar: Aogonek
Encoding: 195 260 196
Width: 698
GlyphClass: 2
Flags: MW
HStem: -287 40<534 554> -3 30<48 55.5 197.5 209 209 214 470 474 659.5 667 667 672> 275 24<224.5 426 247 426 426 431 247 435> 667 20G<380 385.5>
VStem: 421 64<-189.5 -156>
LayerCount: 2
Fore
SplineSet
30 15 m 0
 30 27 32 27 48 27 c 2
 76 27 l 2
 85 27 155 204 222 358 c 2
 328 604 l 2
 336 624 353 633 364 660 c 0
 370 674 377 687 383 687 c 0
 388 687 391 684 392 680 c 2
 512 343 l 2
 553 229 623 27 635 27 c 2
 667 27 l 2
 678 27 678 26 678 14 c 0
 678 -1 677 -3 667 -3 c 0
 652 -3 607 0 577 0 c 0
 572 0 571 -2 569 -4 c 0
 528 -46 485 -106 485 -167 c 0
 485 -212 519 -247 549 -247 c 0
 600 -247 630 -203 634 -203 c 0
 636 -203 645 -215 645 -216 c 0
 645 -218 594 -287 514 -287 c 0
 472 -287 421 -241 421 -194 c 0
 421 -118 478 -71 547 -4 c 0
 549 -2 551 -1 546 -1 c 0
 517 -2 482 -3 466 -3 c 0
 453 -3 452 -2 452 15 c 0
 452 27 454 27 470 27 c 2
 524 27 l 2
 525 27 525 28 525 30 c 0
 525 54 475 200 455 256 c 0
 449 274 450 275 435 275 c 2
 234 275 l 2
 215 275 216 270 211 257 c 0
 185 191 130 52 130 30 c 0
 130 28 130 27 131 27 c 2
 209 27 l 2
 220 27 220 26 220 14 c 0
 220 -1 219 -3 209 -3 c 0
 186 -3 147 0 117 0 c 0
 87 0 67 -3 44 -3 c 0
 31 -3 30 -2 30 15 c 0
231 305 m 0
 231 301 235 299 247 299 c 2
 426 299 l 2
 436 299 439 301 439 304 c 0
 439 307 437 311 435 317 c 2
 352 560 l 2
 348 573 346 579 344 579 c 0
 342 579 339 572 334 560 c 2
 236 320 l 2
 233 313 231 308 231 305 c 0
EndSplineSet
EndChar

StartChar: aogonek
Encoding: 196 261 197
Width: 419
GlyphClass: 2
Flags: MW
HStem: -287 40<273 293> -14 44<149 154> 374 25<175 223>
VStem: 35 70<83 115.5> 49 68<299 302 299 309> 160 64<-189.5 -160> 267 65<58 307.5 192 307.5 242.5 270>
LayerCount: 2
Fore
SplineSet
35 71 m 0xf6
 35 160 160 202 259 219 c 0
 267 220 267 227 267 235 c 0
 267 305 266 374 180 374 c 0
 170 374 159 373 149 369 c 0
 121 357 118 342 117 302 c 0
 117 296 116 285 110 281 c 0
 94 269 61 253 57 253 c 0
 52 253 49 257 49 268 c 0xee
 49 350 136 399 201 399 c 0
 302 399 332 347 332 268 c 0
 332 217 326 86 326 64 c 0
 326 55 330 34 348 34 c 0
 352 34 383 58 386 58 c 0
 390 58 399 49 399 43 c 0
 399 40 373 22 352 6 c 0
 305 -29 224 -87 224 -167 c 0
 224 -212 258 -247 288 -247 c 0
 339 -247 369 -203 373 -203 c 0
 375 -203 384 -215 384 -216 c 0
 384 -218 333 -287 253 -287 c 0
 211 -287 160 -241 160 -194 c 0
 160 -126 231 -64 286 -21 c 0
 296 -13 294 -15 286 -7 c 0
 271 8 270 39 268 39 c 0
 266 39 256 31 248 27 c 0
 228 15 175 -14 133 -14 c 0
 71 -14 35 20 35 71 c 0xf6
105 99 m 0xf6
 105 67 128 30 170 30 c 0
 214 30 267 53 267 58 c 2
 267 192 l 2
 267 199 266 203 261 203 c 0
 258 203 228 197 199 188 c 0
 152 173 105 146 105 99 c 0xf6
EndSplineSet
EndChar

StartChar: Cacute
Encoding: 197 262 198
Width: 731
GlyphClass: 2
Flags: MW
HStem: -16 39<347 459.5> 429 21<632 647.5> 650 30<322.5 461 301 461.5> 729 118<387.5 484.5 389 484.5>
VStem: 45 102<248.5 423.5 248.5 439.5> 385 119<730.5 828.5> 626 35<629 638 638 643.5>
LayerCount: 2
Fore
SplineSet
385 731 m 0
 385 733 386 735 387 737 c 2
 440 822 l 2
 449 836 459 847 474 847 c 0
 495 847 504 835 504 822 c 0
 504 812 499 802 490 795 c 2
 418 735 l 2
 414 732 413 729 410 729 c 2
 389 729 l 2
 386 729 385 730 385 731 c 0
45 335 m 0
 45 544 200 680 402 680 c 0
 520 680 589 622 609 608 c 0
 618 601 626 594 626 611 c 2
 626 638 l 2
 626 649 626 651 641 651 c 0
 656 651 661 650 661 638 c 0
 661 620 657 496 657 445 c 0
 657 433 654 429 641 429 c 0
 623 429 622 432 622 441 c 0
 622 445 626 522 626 531 c 0
 626 545 528 650 395 650 c 0
 250 650 147 514 147 333 c 0
 147 164 270 23 424 23 c 0
 537 23 618 80 619 91 c 2
 632 204 l 2
 634 218 638 220 654 218 c 0
 664 217 666 212 666 205 c 0
 666 195 662 162 650 72 c 0
 648 54 523 -16 396 -16 c 0
 212 -16 45 94 45 335 c 0
EndSplineSet
EndChar

